<svg width="160" height="54" viewBox="0 0 160 54" fill="none" xmlns="http://www.w3.org/2000/svg">
<g clip-path="url(#clip0_997_14877)">
<path d="M6.50832 0H153.064C156.639 0 159.544 2.9052 159.544 6.48V47.52C159.544 51.0948 156.639 54 153.064 54H6.50832C2.93352 54 0.0283203 51.0948 0.0283203 47.52V6.48C0.0283203 2.9052 2.93352 0 6.50832 0Z" fill="#121212"/>
<path d="M34.9442 25.7695C34.9118 21.9031 38.1086 20.0239 38.249 19.9375C36.4346 17.3023 33.6266 16.9351 32.6438 16.9027C30.2894 16.6543 27.9998 18.3175 26.801 18.3175C25.5806 18.3175 23.723 16.9351 21.7358 16.9675C19.1762 17.0107 16.7678 18.4903 15.461 20.8015C12.7502 25.4995 14.7698 32.4115 17.3726 36.2131C18.6794 38.0707 20.1914 40.1551 22.1894 40.0795C24.1334 40.0039 24.8678 38.8375 27.2114 38.8375C29.5442 38.8375 30.2246 40.0795 32.255 40.0363C34.3502 40.0039 35.657 38.1679 36.9206 36.2887C38.4218 34.1611 39.0266 32.0551 39.0482 31.9471C38.9942 31.9255 34.9874 30.3919 34.9442 25.7695Z" fill="white"/>
<path d="M31.1096 14.4081C32.1572 13.1013 32.87 11.3193 32.6756 9.50488C31.1636 9.56968 29.2628 10.5525 28.172 11.8377C27.2108 12.9717 26.3468 14.8185 26.5628 16.5573C28.2692 16.6869 30.0188 15.6933 31.1096 14.4081Z" fill="white"/>
<path d="M63.1546 39.8095H60.433L58.9426 35.1223H53.7586L52.3438 39.8095H49.6978L54.8278 23.8579H58.003L63.1546 39.8095ZM58.4998 33.1567L57.1498 28.9987C57.0094 28.5667 56.7394 27.5731 56.3506 25.9963H56.2966C56.1346 26.6767 55.8862 27.6811 55.5406 28.9987L54.2122 33.1567H58.4998Z" fill="white"/>
<path d="M76.3415 33.9229C76.3415 35.8777 75.8123 37.4221 74.7431 38.5561C73.7927 39.5713 72.6047 40.0681 71.2007 40.0681C69.6779 40.0681 68.5871 39.5281 67.9175 38.4373V44.4745H65.3579V32.0869C65.3579 30.8557 65.3255 29.6029 65.2607 28.3069H67.5071L67.6475 30.1321H67.6907C68.5439 28.7605 69.8399 28.0693 71.5679 28.0693C72.9287 28.0693 74.0519 28.6093 74.9591 29.6785C75.8879 30.7585 76.3415 32.1625 76.3415 33.9229ZM73.7387 34.0093C73.7387 32.8861 73.4903 31.9681 72.9827 31.2445C72.4319 30.4885 71.6867 30.1105 70.7579 30.1105C70.1315 30.1105 69.5591 30.3265 69.0407 30.7369C68.5331 31.1581 68.1875 31.6981 68.0363 32.3785C67.9607 32.6917 67.9175 32.9509 67.9175 33.1561V35.0785C67.9175 35.9101 68.1767 36.6229 68.6843 37.1953C69.1919 37.7677 69.8615 38.0593 70.6823 38.0593C71.6435 38.0593 72.3887 37.6813 72.9287 36.9469C73.4687 36.2017 73.7387 35.2297 73.7387 34.0093Z" fill="white"/>
<path d="M89.5608 33.9229C89.5608 35.8777 89.0316 37.4221 87.9624 38.5561C87.012 39.5713 85.824 40.0681 84.42 40.0681C82.8972 40.0681 81.8064 39.5281 81.1368 38.4373V44.4745H78.5772V32.0869C78.5772 30.8557 78.5448 29.6029 78.48 28.3069H80.7264L80.8668 30.1321H80.91C81.7632 28.7605 83.0592 28.0693 84.7872 28.0693C86.148 28.0693 87.2712 28.6093 88.1784 29.6785C89.1072 30.7585 89.5608 32.1625 89.5608 33.9229ZM86.958 34.0093C86.958 32.8861 86.7096 31.9681 86.202 31.2445C85.6512 30.4885 84.906 30.1105 83.9772 30.1105C83.3508 30.1105 82.7784 30.3265 82.26 30.7369C81.7524 31.1581 81.4176 31.6981 81.2556 32.3785C81.18 32.6917 81.1368 32.9509 81.1368 33.1561V35.0785C81.1368 35.9101 81.396 36.6229 81.9036 37.1953C82.4112 37.7677 83.0808 38.0593 83.9016 38.0593C84.8628 38.0593 85.6188 37.6813 86.148 36.9469C86.6988 36.2017 86.958 35.2297 86.958 34.0093Z" fill="white"/>
<path d="M104.357 35.3381C104.357 36.6989 103.882 37.8005 102.942 38.6537C101.905 39.5825 100.458 40.0469 98.6007 40.0469C96.8835 40.0469 95.5119 39.7121 94.4751 39.0533L95.0691 36.9257C96.1923 37.5845 97.4235 37.9193 98.7627 37.9193C99.7239 37.9193 100.48 37.7033 101.009 37.2713C101.549 36.8393 101.819 36.2561 101.819 35.5325C101.819 34.8845 101.592 34.3445 101.16 33.9017C100.717 33.4589 99.9831 33.0485 98.9571 32.6705C96.1383 31.6229 94.7451 30.1001 94.7451 28.1021C94.7451 26.7953 95.2419 25.7261 96.2247 24.8837C97.2075 24.0521 98.5143 23.6309 100.145 23.6309C101.592 23.6309 102.802 23.8793 103.763 24.3869L103.115 26.4605C102.208 25.9745 101.193 25.7261 100.048 25.7261C99.1515 25.7261 98.4387 25.9529 97.9311 26.3849C97.5099 26.7845 97.2939 27.2597 97.2939 27.8321C97.2939 28.4585 97.5423 28.9877 98.0283 29.3873C98.4495 29.7653 99.2271 30.1757 100.35 30.6185C101.722 31.1693 102.726 31.8173 103.374 32.5625C104.033 33.3077 104.357 34.2365 104.357 35.3381Z" fill="white"/>
<path d="M112.824 30.2297H110.005V35.8133C110.005 37.2281 110.502 37.9409 111.495 37.9409C111.949 37.9409 112.327 37.8977 112.629 37.8221L112.705 39.7661C112.197 39.9497 111.538 40.0469 110.718 40.0469C109.702 40.0469 108.925 39.7337 108.352 39.1181C107.78 38.5025 107.499 37.4657 107.499 36.0185V30.2189H105.825V28.3073H107.499V26.2013L110.005 25.4453V28.3073H112.824V30.2297Z" fill="white"/>
<path d="M125.504 33.9661C125.504 35.7373 124.996 37.1845 123.992 38.3185C122.933 39.4849 121.529 40.0681 119.78 40.0681C118.095 40.0681 116.745 39.5065 115.74 38.3941C114.736 37.2817 114.239 35.8669 114.239 34.1605C114.239 32.3785 114.758 30.9205 115.784 29.7865C116.82 28.6525 118.214 28.0801 119.963 28.0801C121.648 28.0801 123.009 28.6417 124.035 29.7649C125.018 30.8449 125.504 32.2489 125.504 33.9661ZM122.858 34.0201C122.858 32.9617 122.631 32.0653 122.177 31.3093C121.637 30.3913 120.87 29.9377 119.877 29.9377C118.851 29.9377 118.062 30.3913 117.533 31.3093C117.069 32.0653 116.853 32.9833 116.853 34.0741C116.853 35.1325 117.08 36.0397 117.533 36.7849C118.084 37.7029 118.862 38.1565 119.855 38.1565C120.827 38.1565 121.594 37.6921 122.156 36.7633C122.62 35.9857 122.858 35.0785 122.858 34.0201Z" fill="white"/>
<path d="M133.82 30.5533C133.571 30.5101 133.301 30.4885 133.01 30.4885C132.113 30.4885 131.411 30.8233 130.925 31.5037C130.504 32.0977 130.288 32.8645 130.288 33.7717V39.8089H127.728V31.9249C127.728 30.5965 127.707 29.3869 127.653 28.3069H129.878L129.975 30.5101H130.05C130.32 29.7541 130.742 29.1385 131.325 28.6849C131.897 28.2745 132.513 28.0693 133.172 28.0693C133.409 28.0693 133.625 28.0909 133.809 28.1125L133.82 30.5533Z" fill="white"/>
<path d="M145.245 33.5127C145.245 33.9663 145.213 34.3551 145.148 34.6683H137.48C137.512 35.8023 137.88 36.6771 138.592 37.2711C139.24 37.8003 140.072 38.0703 141.098 38.0703C142.232 38.0703 143.269 37.8867 144.198 37.5303L144.597 39.3015C143.506 39.7767 142.221 40.0143 140.742 40.0143C138.96 40.0143 137.556 39.4851 136.54 38.4375C135.525 37.3899 135.018 35.9751 135.018 34.2147C135.018 32.4867 135.493 31.0395 136.443 29.8839C137.437 28.6527 138.776 28.0371 140.461 28.0371C142.113 28.0371 143.377 28.6527 144.219 29.8839C144.9 30.8775 145.245 32.0763 145.245 33.5127ZM142.804 32.8539C142.826 32.0979 142.653 31.4391 142.308 30.8883C141.865 30.1755 141.184 29.8191 140.277 29.8191C139.446 29.8191 138.765 30.1647 138.247 30.8559C137.826 31.4067 137.566 32.0763 137.491 32.8431L142.804 32.8539Z" fill="white"/>
<path d="M57.2679 18.1548H55.9287L55.1943 15.8544H52.6455L51.9435 18.1548H50.6475L53.1639 10.314H54.7191L57.2679 18.1548ZM54.9675 14.8824L54.3087 12.8304C54.2439 12.6252 54.1143 12.1284 53.9091 11.3508H53.8875C53.8011 11.6856 53.6931 12.1716 53.5095 12.8304L52.8615 14.8824H54.9675Z" fill="white"/>
<path d="M63.575 12.4956L61.4366 18.1548H60.2162L58.1426 12.4956H59.4926L60.4538 15.4872C60.6158 15.984 60.7562 16.4592 60.8642 16.9128H60.8966C60.9938 16.5024 61.1342 16.0272 61.307 15.4872L62.2574 12.4956H63.575Z" fill="white"/>
<path d="M68.133 18.1543L68.0358 17.5063H68.0034C67.6146 18.0247 67.0638 18.2839 66.351 18.2839C65.3358 18.2839 64.623 17.5711 64.623 16.6207C64.623 15.2275 65.8326 14.5039 67.9278 14.5039V14.3959C67.9278 13.6507 67.5282 13.2835 66.7506 13.2835C66.189 13.2835 65.703 13.4239 65.271 13.7047L65.0118 12.8839C65.5302 12.5599 66.189 12.3979 66.9558 12.3979C68.4354 12.3979 69.1806 13.1755 69.1806 14.7415V16.8259C69.1806 17.3983 69.2022 17.8411 69.267 18.1759L68.133 18.1543ZM67.9602 15.3355C66.567 15.3355 65.865 15.6703 65.865 16.4803C65.865 17.0743 66.2214 17.3659 66.729 17.3659C67.3662 17.3659 67.9602 16.8799 67.9602 16.2103V15.3355Z" fill="white"/>
<path d="M71.9776 11.5671C71.5564 11.5671 71.2324 11.2431 71.2324 10.8111C71.2324 10.3791 71.5672 10.0659 71.9992 10.0659C72.4312 10.0659 72.7768 10.3791 72.766 10.8111C72.766 11.2647 72.442 11.5671 71.9776 11.5671ZM71.3728 12.4959H72.6256V18.1443H71.3728V12.4959Z" fill="white"/>
<path d="M74.8608 9.90332H76.1136V18.1437H74.8608V9.90332Z" fill="white"/>
<path d="M81.449 18.1544L81.3518 17.5064H81.3194C80.9306 18.0248 80.3798 18.284 79.667 18.284C78.6518 18.284 77.939 17.5712 77.939 16.6208C77.939 15.2276 79.1486 14.504 81.2438 14.504V14.396C81.2438 13.6508 80.8442 13.2836 80.0666 13.2836C79.505 13.2836 79.019 13.424 78.587 13.7048L78.3278 12.8732C78.8462 12.5492 79.505 12.3872 80.2718 12.3872C81.7514 12.3872 82.4966 13.1648 82.4966 14.7308V16.8152C82.4966 17.3876 82.5182 17.8304 82.5722 18.1652H81.449V18.1544ZM81.2762 15.3356C79.883 15.3356 79.181 15.6704 79.181 16.4804C79.181 17.0744 79.5374 17.366 80.045 17.366C80.6822 17.366 81.2762 16.88 81.2762 16.2104V15.3356Z" fill="white"/>
<path d="M87.5944 18.2841C86.7952 18.2841 86.2012 17.9493 85.8124 17.2797H85.7908L85.7152 18.1545H84.646C84.6784 17.7009 84.6892 17.1933 84.6892 16.6317V9.90332H85.9528V13.3269H85.9744C86.3524 12.7005 86.9464 12.3873 87.778 12.3873C89.1388 12.3873 90.0892 13.5537 90.0892 15.2493C90.0892 16.9989 89.0308 18.2841 87.5944 18.2841ZM87.3352 13.3701C86.6116 13.3701 85.9528 13.9965 85.9528 14.8713V15.8649C85.9528 16.6425 86.5468 17.2797 87.3136 17.2797C88.2532 17.2797 88.8148 16.5129 88.8148 15.2925C88.8148 14.1477 88.2316 13.3701 87.3352 13.3701Z" fill="white"/>
<path d="M91.9468 9.90332H93.1996V18.1437H91.9468V9.90332Z" fill="white"/>
<path d="M100.036 15.6273H96.2667C96.2883 16.6965 97.0011 17.3013 98.0487 17.3013C98.6103 17.3013 99.1179 17.2041 99.5715 17.0313L99.7659 17.9061C99.2367 18.1437 98.6103 18.2517 97.8759 18.2517C96.1047 18.2517 95.0571 17.1393 95.0571 15.4005C95.0571 13.6725 96.1263 12.3657 97.7355 12.3657C99.1719 12.3657 100.09 13.4349 100.09 15.0549C100.09 15.2817 100.079 15.4761 100.036 15.6273ZM98.8911 14.7309C98.8911 13.8561 98.4483 13.2405 97.6491 13.2405C96.9255 13.2405 96.3639 13.8669 96.2775 14.7309H98.8911Z" fill="white"/>
<path d="M107.65 18.284C105.997 18.284 104.928 17.0528 104.928 15.3788C104.928 13.6292 106.019 12.3872 107.747 12.3872C109.378 12.3872 110.469 13.5644 110.469 15.2816C110.469 17.042 109.345 18.284 107.65 18.284ZM107.704 13.3052C106.797 13.3052 106.213 14.1584 106.213 15.3356C106.213 16.502 106.807 17.3444 107.693 17.3444C108.579 17.3444 109.173 16.4372 109.173 15.3032C109.162 14.1584 108.589 13.3052 107.704 13.3052Z" fill="white"/>
<path d="M117.218 18.1545H115.966V14.9037C115.966 13.8993 115.577 13.4025 114.821 13.4025C114.076 13.4025 113.568 14.0397 113.568 14.7849V18.1437H112.315V14.1153C112.315 13.6185 112.304 13.0785 112.272 12.4953H113.374L113.428 13.3701H113.46C113.795 12.7653 114.486 12.3765 115.253 12.3765C116.441 12.3765 117.218 13.2837 117.218 14.7633V18.1545Z" fill="white"/>
<path d="M125.438 13.4467H124.055V16.1899C124.055 16.8919 124.304 17.2375 124.79 17.2375C125.006 17.2375 125.2 17.2159 125.351 17.1835L125.384 18.1339C125.135 18.2311 124.811 18.2743 124.412 18.2743C123.418 18.2743 122.835 17.7235 122.835 16.2979V13.4467H122.014V12.5071H122.835V11.4703L124.066 11.0923V12.4963H125.449V13.4467" fill="white"/>
<path d="M132.09 18.1545H130.837V14.9253C130.837 13.9101 130.449 13.4025 129.693 13.4025C129.045 13.4025 128.44 13.8453 128.44 14.7417V18.1437H127.187V9.90332H128.44V13.2945H128.461C128.861 12.6789 129.423 12.3765 130.157 12.3765C131.356 12.3765 132.09 13.3053 132.09 14.7849V18.1545Z" fill="white"/>
<path d="M138.505 15.6273H134.736C134.758 16.6965 135.47 17.3013 136.518 17.3013C137.08 17.3013 137.587 17.2041 138.041 17.0313L138.235 17.9061C137.706 18.1437 137.08 18.2517 136.345 18.2517C134.574 18.2517 133.526 17.1393 133.526 15.4005C133.526 13.6725 134.596 12.3657 136.205 12.3657C137.641 12.3657 138.559 13.4349 138.559 15.0549C138.559 15.2817 138.548 15.4761 138.505 15.6273ZM137.36 14.7309C137.36 13.8561 136.918 13.2405 136.118 13.2405C135.395 13.2405 134.822 13.8669 134.747 14.7309H137.36Z" fill="white"/>
</g>
<defs>
<clipPath id="clip0_997_14877">
<rect width="159.574" height="54" fill="white"/>
</clipPath>
</defs>
</svg>
