<svg width="160" height="54" viewBox="0 0 160 54" fill="none" xmlns="http://www.w3.org/2000/svg">
<path d="M6.51027 0H153.066C156.641 0 159.546 2.9052 159.546 6.48V47.52C159.546 51.0948 156.641 54 153.066 54H6.51027C2.93547 54 0.0302734 51.0948 0.0302734 47.52V6.48C0.0302734 2.9052 2.93547 0 6.51027 0Z" fill="#121212"/>
<g clip-path="url(#clip0_997_14911)">
<path d="M22.1289 27.242L7.89017 19.1039C7.71125 19 7.48615 19.0058 7.313 19.1097C7.13408 19.2136 7.02441 19.3983 7.02441 19.606C7.02441 19.606 7.03019 20.3564 7.03596 21.5915L17.4077 31.9632L22.1289 27.242Z" fill="url(#paint0_linear_997_14911)"/>
<path d="M7.03564 21.5913C7.05296 26.0471 7.1049 36.8632 7.12799 42.2482L17.4132 31.963L7.03564 21.5913Z" fill="url(#paint1_linear_997_14911)"/>
<path d="M30.279 31.8999L22.1294 27.2422L17.4023 31.9634L22.7354 37.2965L30.2848 32.8985C30.4637 32.7946 30.5734 32.6041 30.5734 32.4021C30.5734 32.1943 30.4579 32.0038 30.279 31.8999Z" fill="url(#paint2_linear_997_14911)"/>
<path d="M7.12256 42.2486C7.1341 44.1706 7.13987 45.4 7.13987 45.4C7.13987 45.6078 7.24954 45.7982 7.42846 45.8963C7.60738 46.0002 7.82671 46.0002 8.00563 45.8963L22.7408 37.3023L17.4077 31.9692L7.12256 42.2486Z" fill="url(#paint3_linear_997_14911)"/>
</g>
<path d="M109.283 37.6821L108.084 38.8161C107.804 38.9673 107.534 39.1509 107.264 39.2697C106.432 39.6477 105.59 39.7449 104.834 39.7449C104.035 39.7449 102.782 39.6909 101.507 38.7621C99.7361 37.5093 98.9585 35.3385 98.9585 33.4593C98.9585 29.5605 102.112 27.6489 104.693 27.6489C105.59 27.6489 106.519 27.8757 107.264 28.3509C108.517 29.1825 108.84 30.2625 109.013 30.8457L103.138 33.2325L101.216 33.3837C101.842 36.5805 103.991 38.4381 106.367 38.4381C107.555 38.4381 108.43 38.0493 109.24 37.6497C109.24 37.6497 109.402 37.5633 109.283 37.6821ZM105.698 31.2669C106.173 31.0941 106.41 30.9429 106.41 30.5865C106.41 29.5713 105.298 28.4049 103.959 28.4049C102.976 28.4049 101.118 29.1933 101.118 31.9257C101.118 32.3577 101.172 32.8113 101.194 33.2649L105.698 31.2669Z" fill="white"/>
<path d="M97.0124 37.5413C97.0124 38.5133 97.1852 38.6645 98.006 38.7401C98.438 38.7941 98.8592 38.8157 99.2804 38.8589L98.3624 39.4097H93.9668C94.5392 38.6537 94.6472 38.5781 94.6472 38.0813V37.5197L94.6364 22.6157H92.6924L94.5608 21.7085H98.1248C97.3472 22.1621 97.1204 22.4321 97.0232 23.3069L97.0124 37.5413Z" fill="white"/>
<path d="M90.1982 28.8799C90.7706 29.3551 91.9586 30.3595 91.9586 32.2603C91.9586 34.1179 90.9218 34.9927 89.8742 35.8243C89.5502 36.1483 89.1722 36.5047 89.1722 37.0555C89.1722 37.6063 89.5502 37.9087 89.8202 38.1355L90.7166 38.8375C91.8074 39.7663 92.801 40.6195 92.801 42.3475C92.801 44.7019 90.533 47.0887 86.2562 47.0887C82.649 47.0887 80.9102 45.3607 80.9102 43.5031C80.9102 42.5959 81.353 41.3215 82.8326 40.4467C84.377 39.4963 86.4614 39.3667 87.5846 39.2911C87.239 38.8375 86.8394 38.3623 86.8394 37.5847C86.8394 37.1635 86.969 36.9043 87.0878 36.6019C86.8178 36.6235 86.537 36.6559 86.2886 36.6559C83.6534 36.6559 82.163 34.6687 82.163 32.7139C82.163 31.5583 82.6814 30.2839 83.7614 29.3551C85.1762 28.1779 86.8718 27.9727 88.211 27.9727H93.341L91.7426 28.8799H90.1982ZM88.4486 39.9931C88.2434 39.9607 88.1246 39.9607 87.8762 39.9607C87.6494 39.9607 86.2886 40.0147 85.241 40.3711C84.6902 40.5763 83.081 41.1919 83.081 43.0063C83.081 44.8207 84.809 46.1275 87.4982 46.1275C89.9066 46.1275 91.181 44.9503 91.181 43.3735C91.181 42.0559 90.3494 41.3647 88.4486 39.9931ZM89.1506 35.1547C89.723 34.5823 89.777 33.7831 89.777 33.3295C89.777 31.5259 88.7186 28.7287 86.6558 28.7287C86.0186 28.7287 85.3166 29.0527 84.917 29.5603C84.4958 30.0787 84.377 30.7591 84.377 31.4071C84.377 33.0811 85.349 35.8567 87.4766 35.8567C88.0922 35.8567 88.7618 35.5543 89.1506 35.1547Z" fill="white"/>
<path d="M74.6868 39.7449C70.7232 39.7449 68.6064 36.6129 68.6064 33.7833C68.6064 30.4785 71.274 27.6489 75.0648 27.6489C78.726 27.6489 81.0264 30.5541 81.0264 33.6105C81.0264 36.5913 78.7584 39.7449 74.6868 39.7449ZM77.7864 37.7037C78.3912 36.8937 78.5424 35.8785 78.5424 34.8957C78.5424 32.6601 77.4948 28.4049 74.3844 28.4049C73.5636 28.4049 72.732 28.7289 72.1272 29.2689C71.1552 30.1545 70.9716 31.2669 70.9716 32.3577C70.9716 34.8633 72.192 38.9889 75.2268 38.9889C76.2204 38.9889 77.214 38.5137 77.7864 37.7037Z" fill="white"/>
<path d="M61.4066 39.7449C57.443 39.7449 55.3262 36.6129 55.3262 33.7833C55.3262 30.4785 57.9938 27.6489 61.7846 27.6489C65.4458 27.6489 67.7462 30.5541 67.7462 33.6105C67.7462 36.5913 65.4782 39.7449 61.4066 39.7449ZM64.5062 37.7037C65.111 36.8937 65.2622 35.8785 65.2622 34.8957C65.2622 32.6601 64.2038 28.4049 61.1042 28.4049C60.2726 28.4049 59.4518 28.7289 58.847 29.2689C57.8642 30.1545 57.6914 31.2669 57.6914 32.3577C57.6914 34.8633 58.9226 38.9889 61.9466 38.9889C62.9402 38.9889 63.9338 38.5137 64.5062 37.7037Z" fill="white"/>
<path d="M53.6843 38.9989L50.3255 39.7765C48.9647 39.9925 47.7443 40.1869 46.4483 40.1869C39.9683 40.1761 37.5059 35.3809 37.5059 31.6225C37.5059 27.0433 41.0051 22.7881 46.9883 22.7881C48.2519 22.7881 49.4723 22.9717 50.5847 23.2849C52.3451 23.7817 53.1659 24.3973 53.6843 24.7537L51.7295 26.6221L50.9087 26.8057L51.4919 25.8661C50.6927 25.0885 49.2347 23.6413 46.4699 23.6413C42.7655 23.6413 39.9683 26.4709 39.9683 30.6073C39.9683 35.0461 43.1543 39.2257 48.2735 39.2257C49.7747 39.2257 50.5523 38.9233 51.2543 38.6425V34.8301L47.7119 35.0245L49.5911 34.0093H54.5699L53.9651 34.6033C53.8031 34.7437 53.7815 34.7869 53.7275 34.9813C53.7059 35.1973 53.6843 35.8777 53.6843 36.1261V38.9989Z" fill="white"/>
<path d="M116.529 37.7901V44.1729H115.266V27.9405H116.529V29.7873C117.35 28.5885 118.862 27.6489 120.601 27.6489C123.733 27.6489 125.85 30.0357 125.85 33.8049C125.85 37.5525 123.744 39.9825 120.601 39.9825C118.959 39.9825 117.48 39.1293 116.529 37.7901ZM124.554 33.9021C124.554 31.0293 123.074 28.8369 120.439 28.8369C118.808 28.8369 117.242 30.1329 116.562 31.2669V36.5157C117.242 37.6497 118.808 38.9889 120.439 38.9889C123.074 38.9889 124.554 36.7749 124.554 33.9021Z" fill="white"/>
<path d="M127.577 23.436H128.873V39.744H127.577V23.436Z" fill="white"/>
<path d="M142.967 43.0495C143.237 43.1683 143.701 43.2439 143.993 43.2439C144.771 43.2439 145.3 42.9307 145.786 41.8075L146.704 39.7123L141.725 27.8647H143.14L147.406 38.1355L151.64 27.8647H153.065L146.995 42.1963C146.369 43.6759 145.375 44.3887 144.015 44.3887C143.604 44.3887 143.064 44.3131 142.751 44.2159L142.967 43.0495Z" fill="white"/>
<path d="M139.39 39.7341C139.304 39.3237 139.239 38.9673 139.196 38.6649C139.153 38.3625 139.131 38.0601 139.131 37.7469C138.699 38.3841 138.083 38.9241 137.284 39.3453C136.496 39.7665 135.74 39.9717 134.714 39.9717C133.472 39.9717 132.511 39.6693 131.83 39.0429C131.15 38.4273 130.804 37.5849 130.804 36.5265C130.804 35.4681 131.301 34.6041 132.295 33.9453C133.288 33.2865 134.573 32.9517 136.161 32.9517H139.12V31.4829C139.12 30.6405 138.829 29.9709 138.256 29.4957C137.684 29.0097 136.874 28.7721 135.826 28.7721C134.865 28.7721 134.087 28.9989 133.493 29.4309C132.91 29.8737 132.608 30.4245 132.608 31.0833H131.312L131.29 31.0185C131.247 30.1221 131.647 29.3445 132.521 28.6641C133.385 27.9837 134.509 27.6489 135.902 27.6489C137.284 27.6489 138.407 27.9837 139.25 28.6533C140.092 29.3121 140.513 30.2733 140.513 31.5153V37.3473C140.513 37.7685 140.535 38.1681 140.589 38.5677C140.643 38.9673 140.729 39.3561 140.837 39.7341H139.39ZM134.876 38.8809C135.956 38.8809 136.733 38.6325 137.522 38.1573C138.31 37.6821 138.839 37.0557 139.12 36.2997V34.0209H136.139C135.005 34.0209 134.066 34.2693 133.321 34.7877C132.575 35.2953 132.208 35.9109 132.208 36.6345C132.208 37.3149 132.446 37.8549 132.921 38.2653C133.407 38.6757 134.055 38.8809 134.876 38.8809Z" fill="white"/>
<path d="M37.0737 12.4526C37.0737 10.1306 38.9313 8.62939 41.2425 8.62939C42.7869 8.62939 43.8021 9.32059 44.4393 10.163L43.3053 10.7678C42.8733 10.217 42.1281 9.78499 41.2425 9.78499C39.6765 9.78499 38.4993 10.8974 38.4993 12.4526C38.5101 13.997 39.6765 15.1202 41.2425 15.1202C42.0525 15.1202 42.7653 14.7746 43.1217 14.4506V13.3166H40.7457V12.1718H44.5041V14.9258C43.7265 15.7358 42.6141 16.2758 41.2425 16.2758C38.9313 16.2866 37.0737 14.7746 37.0737 12.4526Z" fill="white"/>
<path d="M46.3096 16.1789V8.74854H51.8284V9.89334H47.7244V11.8049H51.742V12.9605H47.7244V15.0341H51.8284V16.1789H46.3096Z" fill="white"/>
<path d="M55.5758 16.1789V9.89334H53.1782V8.74854H59.3666V9.89334H56.969V16.1789H55.5758Z" fill="white"/>
<path d="M64.3223 8.74854H65.6723V16.1789H64.3223V8.74854Z" fill="white"/>
<path d="M69.5363 16.1789V9.89334H67.1387V8.74854H73.3271V9.89334H70.9295V16.1789H69.5363Z" fill="white"/>
<path d="M77.9536 12.4633C77.9536 10.2601 79.6492 8.64014 82.0684 8.64014C84.466 8.64014 86.1724 10.2601 86.1724 12.4633C86.1724 14.6665 84.4552 16.2865 82.0684 16.2865C79.6492 16.2865 77.9536 14.6665 77.9536 12.4633ZM84.7036 12.3985C84.7036 10.8865 83.6668 9.75254 82.0576 9.75254C80.4376 9.75254 79.4116 10.8865 79.4116 12.3985C79.4116 13.8997 80.4376 15.0445 82.0576 15.0445C83.6668 15.0445 84.7036 13.9105 84.7036 12.3985Z" fill="white"/>
<path d="M93.2654 16.1789L89.129 10.8653V16.1789H87.7358V8.74854H89.1614L93.2114 13.9001V8.74854H94.6046V16.1789H93.2654Z" fill="white"/>
<defs>
<linearGradient id="paint0_linear_997_14911" x1="7.02441" y1="25.4986" x2="22.1316" y2="25.4986" gradientUnits="userSpaceOnUse">
<stop stop-color="#63BE6B"/>
<stop offset="0.506" stop-color="#5BBC6A"/>
<stop offset="1" stop-color="#4AB96A"/>
</linearGradient>
<linearGradient id="paint1_linear_997_14911" x1="7.03287" y1="31.9222" x2="17.4072" y2="31.9222" gradientUnits="userSpaceOnUse">
<stop stop-color="#3EC6F2"/>
<stop offset="1" stop-color="#45AFE3"/>
</linearGradient>
<linearGradient id="paint2_linear_997_14911" x1="17.4079" y1="32.273" x2="30.572" y2="32.273" gradientUnits="userSpaceOnUse">
<stop stop-color="#FAA51A"/>
<stop offset="0.387" stop-color="#FAB716"/>
<stop offset="0.741" stop-color="#FAC412"/>
<stop offset="1" stop-color="#FAC80F"/>
</linearGradient>
<linearGradient id="paint3_linear_997_14911" x1="7.1251" y1="38.9715" x2="22.7405" y2="38.9715" gradientUnits="userSpaceOnUse">
<stop stop-color="#EC3B50"/>
<stop offset="1" stop-color="#E7515B"/>
</linearGradient>
<clipPath id="clip0_997_14911">
<rect width="23.598" height="27" fill="white" transform="translate(7 19)"/>
</clipPath>
</defs>
</svg>
