<svg width="320" height="295" viewBox="0 0 320 295" fill="none" xmlns="http://www.w3.org/2000/svg">
<g clip-path="url(#clip0_1036_1452)">
<path d="M307.209 67.2905H34.3788C27.6962 67.2905 22.2788 72.7079 22.2788 79.3905V265.125C22.2788 271.808 27.6962 277.225 34.3788 277.225H307.209C313.891 277.225 319.309 271.808 319.309 265.125V79.3905C319.309 72.7079 313.891 67.2905 307.209 67.2905Z" fill="#97B5FF"/>
<path d="M310.295 89.0951V255.458C310.295 262.495 304.591 268.212 297.541 268.212H278.292V87.1195H38.6753C35.6996 87.1195 33.292 84.7119 33.292 81.7363C33.292 78.7607 35.6996 76.353 38.6753 76.353H297.553C304.591 76.353 310.308 82.0573 310.308 89.1074L310.295 89.0951Z" fill="#004DA7"/>
<path d="M237.51 70.0312C237.77 70.3522 238.041 70.6732 238.288 71.0066C245.721 80.6248 248.968 92.5767 247.425 104.652C245.882 116.715 239.745 127.457 230.115 134.902C210.248 150.261 181.591 146.594 166.232 126.716C158.799 117.098 155.539 105.158 157.083 93.0829C158.577 81.4397 164.355 71.0189 173.405 63.6231C173.739 63.3515 174.06 63.1045 174.405 62.8329C193.951 47.7203 221.978 51.0292 237.523 70.0312H237.51Z" fill="#F49B51"/>
<path d="M199.396 134.297V125.729C194.469 125.642 189.382 124.111 186.419 122L188.456 116.32C191.506 118.358 195.926 119.963 200.68 119.963C206.705 119.963 210.779 116.481 210.779 111.653C210.779 106.826 207.47 104.097 201.186 101.553C192.531 98.158 187.184 94.2564 187.184 86.8729C187.184 79.4894 192.185 74.4889 200.001 73.2172V64.6484H205.26V72.8838C210.347 73.0567 213.829 74.4149 216.286 75.8594L214.162 81.465C212.385 80.4525 208.903 78.5758 203.47 78.5758C196.939 78.5758 194.481 82.4774 194.481 85.8728C194.481 90.2807 197.618 92.4908 205.001 95.5404C213.743 99.1087 218.151 103.517 218.151 111.073C218.151 117.777 213.483 124.05 204.742 125.494V134.322H199.396V134.297Z" fill="#FCC659"/>
<path d="M216.583 44.1156C186.357 36.2012 155.428 54.2894 147.514 84.5271C139.6 114.752 157.688 145.681 187.925 153.596C218.151 161.51 249.08 143.422 256.994 113.184C264.909 82.959 246.82 52.0299 216.583 44.1156ZM246.326 110.394C243.24 122.16 235.77 132.026 225.263 138.162C214.768 144.311 202.507 146.002 190.728 142.916C166.442 136.557 151.848 111.616 158.206 87.3175C161.293 75.5508 168.751 65.6856 179.258 59.5369C189.382 53.6104 201.161 51.8324 212.558 54.4746C212.977 54.5734 213.373 54.6722 213.792 54.7833C237.696 61.0309 252.191 85.2555 246.623 109.159C246.524 109.567 246.438 109.962 246.326 110.369V110.394Z" fill="#FCC659"/>
<path d="M119.325 0.024379C88.0876 -0.827559 62.085 23.8046 61.2207 55.0546C60.3687 86.2924 85.0008 112.307 116.251 113.159C147.489 114.011 173.504 89.3791 174.356 58.129C175.207 26.8789 150.575 0.876317 119.325 0.024379ZM163.317 57.8327C162.984 69.9944 157.934 81.2919 149.094 89.6631C140.266 98.0343 128.709 102.467 116.547 102.133C91.4459 101.442 71.5797 80.4769 72.2588 55.3633C72.5922 43.2016 77.6297 31.9041 86.4701 23.5329C94.9895 15.458 106.052 11.0502 117.757 11.0502C118.189 11.0502 118.597 11.0502 119.029 11.0749C143.723 11.7416 163.33 32.0523 163.33 56.5856C163.33 57.0054 163.33 57.4129 163.33 57.8327H163.317Z" fill="#FCC659"/>
<path d="M153.045 27.7431C153.304 28.0641 153.576 28.3851 153.823 28.7185C161.256 38.3367 164.503 50.2886 162.96 62.3639C161.416 74.4268 155.28 85.1686 145.649 92.6138C125.783 107.973 97.1259 104.306 81.7664 84.4278C74.3335 74.8096 71.0739 62.8701 72.6173 50.7948C74.1113 39.1516 79.8896 28.7308 88.9399 21.335C89.2733 21.0634 89.5943 20.8165 89.94 20.5448C109.485 5.43218 137.513 8.74116 153.058 27.7431H153.045Z" fill="#F49B51"/>
<path d="M114.906 91.4166V82.8478C109.979 82.7614 104.892 81.2304 101.929 79.1191L103.966 73.4395C107.016 75.4767 111.436 77.0818 116.19 77.0818C122.215 77.0818 126.29 73.6 126.29 68.7723C126.29 63.9447 122.981 61.216 116.696 58.6725C108.041 55.2771 102.695 51.3755 102.695 43.992C102.695 36.6086 107.695 31.6081 115.511 30.3363V21.7676H120.771V30.003C125.858 30.1758 129.339 31.534 131.796 32.9786L129.673 38.5841C127.895 37.5716 124.413 35.6949 118.98 35.6949C112.449 35.6949 109.992 39.5965 109.992 42.9919C109.992 47.3998 113.128 49.6099 120.511 52.6596C129.253 56.2279 133.661 60.6357 133.661 68.192C133.661 74.8964 128.994 81.1687 120.252 82.6132V91.4413H114.906V91.4166Z" fill="#FCC659"/>
<path d="M288.219 87.3296H34.0084C27.5303 87.3296 22.2788 92.5811 22.2788 99.0592V282.88C22.2788 289.358 27.5303 294.61 34.0084 294.61H288.219C294.697 294.61 299.949 289.358 299.949 282.88V99.0592C299.949 92.5811 294.697 87.3296 288.219 87.3296Z" fill="#306BFF"/>
<path d="M288.862 129.025H287.541V106.863C287.541 101.306 283.022 96.7874 277.466 96.7874H168.417V95.4663H277.466C283.75 95.4663 288.862 100.578 288.862 106.863V129.025Z" fill="#2E4882"/>
<path d="M148.798 95.4785H124.203V96.7996H148.798V95.4785Z" fill="#2E4882"/>
<path d="M34.7 210.12H33.3789V241.407H34.7V210.12Z" fill="#2E4882"/>
<path d="M318.975 148.397V206.971C318.975 214.33 313.024 220.294 305.653 220.294H254.981C238.782 220.294 225.645 207.156 225.645 190.957C225.645 182.858 228.929 175.524 234.238 170.214C239.548 164.905 246.882 161.621 254.981 161.621H305.653C306.024 161.621 306.394 161.633 306.764 161.67C313.605 161.102 318.963 155.373 318.963 148.397H318.975Z" fill="#2659D7"/>
<path d="M261.982 200.65C267.33 195.302 267.33 186.632 261.982 181.285C256.635 175.938 247.965 175.938 242.618 181.285C237.27 186.632 237.27 195.302 242.618 200.65C247.965 205.997 256.635 205.997 261.982 200.65Z" fill="white"/>
<path d="M252.302 205.317V203.996C259.488 203.996 265.328 198.156 265.328 190.97C265.328 183.784 259.488 177.944 252.302 177.944V176.623C260.217 176.623 266.649 183.055 266.649 190.97C266.649 198.884 260.217 205.317 252.302 205.317Z" fill="#2E4882"/>
<path d="M239.276 190.969H237.955C237.955 187.142 239.449 183.537 242.153 180.82L243.091 181.759C240.634 184.216 239.276 187.488 239.276 190.969Z" fill="#2E4882"/>
<path d="M43.0711 182.573C12.8335 190.438 -5.3165 221.33 2.5485 251.58C10.4135 281.818 41.3055 299.98 71.5555 292.103C101.793 284.238 119.955 253.346 112.078 223.096C104.213 192.858 73.3211 174.708 43.0711 182.573ZM101.398 225.874C104.46 237.641 102.744 249.914 96.5827 260.396C90.4216 270.891 80.5564 278.349 68.7774 281.411C44.4787 287.72 19.5626 273.101 13.2409 248.79C10.1789 237.023 11.8828 224.763 18.0439 214.268C23.9828 204.143 33.3911 196.834 44.6268 193.587C45.0343 193.463 45.4417 193.365 45.8492 193.253C69.7528 187.031 94.2368 201.094 101.052 224.664C101.163 225.059 101.287 225.467 101.386 225.862L101.398 225.874Z" fill="#FCC659"/>
<path d="M101.064 224.677C101.176 225.072 101.299 225.479 101.398 225.874C104.46 237.641 102.744 249.914 96.5825 260.396C90.4214 270.891 80.5562 278.349 68.7772 281.411C44.4785 287.72 19.5624 273.101 13.2408 248.79C10.1787 237.024 11.8826 224.763 18.0437 214.268C23.9826 204.144 33.391 196.835 44.6267 193.587C45.0341 193.464 45.4416 193.365 45.849 193.254C69.7526 187.031 94.2366 201.094 101.052 224.665L101.064 224.677Z" fill="#F49B51"/>
<path d="M64.2342 271.607L61.8512 263.372C57.0976 264.656 51.7885 264.606 48.3437 263.396L48.7264 257.371C52.2206 258.482 56.9124 258.803 61.4808 257.482C67.2715 255.803 70.2101 251.333 68.8643 246.691C67.5678 242.209 63.5921 240.357 56.8507 239.653C47.5905 238.801 41.38 236.53 39.3181 229.442C37.3673 222.676 40.6886 216.157 47.8251 212.762L45.4422 204.526L50.492 203.069L52.7762 210.971C57.715 209.724 61.4314 210.058 64.1971 210.761L63.7156 216.725C61.7154 216.244 57.8632 215.416 52.6404 216.923C46.3682 218.738 45.0841 223.17 46.0225 226.43C47.2448 230.665 50.8748 231.912 58.8139 232.801C68.1975 233.801 73.6672 236.813 75.7662 244.061C77.6306 250.506 74.8896 257.828 66.9011 261.643L69.3581 270.125L64.2218 271.607H64.2342Z" fill="#FCC659"/>
<path d="M16.9946 205.712C21.1802 207.836 24.0571 211.095 26.0202 215.182C27.9834 211.095 30.8726 207.823 35.0582 205.7C30.8726 203.576 27.9834 200.316 26.0202 196.229C24.0571 200.316 21.1802 203.588 16.9946 205.712Z" fill="#FFE6A6"/>
<path d="M35.478 220.417C37.9104 221.652 39.5772 223.541 40.7255 225.924C41.8737 223.553 43.5406 221.652 45.9729 220.417C43.5406 219.182 41.8614 217.293 40.7255 214.91C39.5772 217.281 37.9104 219.182 35.478 220.417Z" fill="#FFE6A6"/>
<path d="M76.9141 24.9409C81.0997 27.0646 83.9765 30.3242 85.9397 34.411C87.9028 30.3242 90.792 27.0523 94.9776 24.9286C90.792 22.8049 87.9028 19.5453 85.9397 15.4585C83.9765 19.5453 81.0997 22.8173 76.9141 24.9409Z" fill="#FFE6A6"/>
<path d="M137.858 76.8471C140.291 78.0818 141.958 79.9708 143.106 82.3538C144.254 79.9832 145.921 78.0818 148.353 76.8471C145.921 75.6124 144.242 73.7233 143.106 71.3403C141.958 73.7109 140.291 75.6124 137.858 76.8471Z" fill="#FFE6A6"/>
</g>
<defs>
<clipPath id="clip0_1036_1452">
<rect width="318.588" height="294.61" fill="white" transform="translate(0.721191)"/>
</clipPath>
</defs>
</svg>
