<svg width="330" height="307" viewBox="0 0 330 307" fill="none" xmlns="http://www.w3.org/2000/svg">
<g clip-path="url(#clip0_1037_2571)">
<path d="M96.1995 138.153H64.169L64.0131 137.988L35.5955 107.864C35.3966 107.653 35.4055 107.319 35.617 107.12C35.8285 106.921 36.1618 106.93 36.3607 107.142L64.6224 137.101H96.1995C96.4898 137.101 96.7263 137.335 96.7263 137.628C96.7263 137.92 96.4916 138.154 96.1995 138.154V138.153Z" fill="#FEC20C"/>
<path d="M265.891 138.153H233.861C233.571 138.153 233.334 137.918 233.334 137.626C233.334 137.334 233.569 137.099 233.861 137.099H265.438L293.7 107.14C293.898 106.929 294.232 106.92 294.443 107.119C294.655 107.318 294.664 107.651 294.465 107.863L265.891 138.151V138.153Z" fill="#FEC20C"/>
<path d="M100.701 222.129H59.0254C58.7351 222.129 58.4985 221.894 58.4985 221.602C58.4985 221.31 58.7333 221.075 59.0254 221.075H100.251L121.237 199.04C121.438 198.828 121.771 198.821 121.981 199.022C122.19 199.222 122.199 199.556 121.999 199.765L100.701 222.127V222.129Z" fill="#FEC20C"/>
<path d="M265.281 222.129H223.605L223.449 221.966L202.308 199.767C202.107 199.558 202.116 199.224 202.326 199.024C202.535 198.823 202.869 198.832 203.069 199.041L224.055 221.077H265.281C265.571 221.077 265.808 221.312 265.808 221.604C265.808 221.896 265.573 222.131 265.281 222.131V222.129Z" fill="#FEC20C"/>
<path d="M203.164 87.6452C203.03 87.6452 202.895 87.5932 202.791 87.4911C202.585 87.285 202.585 86.9534 202.791 86.7474L226.956 62.5825V39.4785C226.956 39.1882 227.191 38.9517 227.483 38.9517C227.775 38.9517 228.01 39.1864 228.01 39.4785V63.018L227.856 63.1721L203.537 87.4911C203.435 87.5932 203.3 87.6452 203.164 87.6452Z" fill="#FEC20C"/>
<path d="M127.228 87.6452C127.094 87.6452 126.959 87.5932 126.855 87.4911L102.382 63.018V39.4785C102.382 39.1882 102.617 38.9517 102.909 38.9517C103.201 38.9517 103.436 39.1864 103.436 39.4785V62.5825L127.601 86.7474C127.807 86.9534 127.807 87.285 127.601 87.4911C127.499 87.5932 127.364 87.6452 127.228 87.6452Z" fill="#FEC20C"/>
<path d="M147.313 212.649L97.6333 183.969V106.391L164.818 67.6021L195.327 85.2167L211.766 94.7078L232.001 106.391V183.969L164.818 222.756L147.313 212.649Z" fill="#FFC32E"/>
<path d="M164.818 70.0321L172.314 74.36L194.277 87.0375L210.716 96.5303L221.676 102.858L229.898 107.606V182.754L164.82 220.328L148.366 210.828L137.406 204.5L118.054 193.328L99.7408 182.754V107.606L164.82 70.0321H164.818ZM164.818 65.1719L95.5293 105.174V185.183L115.947 196.971L135.298 208.143L146.259 214.471L164.816 225.186L234.105 185.184V105.175L223.778 99.2149L212.818 92.8869L196.379 83.3941L174.416 70.7149L164.816 65.1719H164.818Z" fill="#FFB000"/>
<path d="M208.019 170.122V120.238L164.818 95.2954L121.617 120.238V170.122L164.818 195.064L208.019 170.122Z" fill="#FFBC12"/>
<path d="M164.818 196.278L120.565 170.728V119.629L164.818 94.0791L209.071 119.629V170.728L164.818 196.278ZM122.669 169.515L164.818 193.85L206.967 169.515V120.846L164.818 96.511L122.669 120.846V169.515Z" fill="#FFE091"/>
<path d="M139.728 133.226C139.866 133.244 139.99 133.278 140.099 133.33C140.208 133.382 140.314 133.457 140.418 133.554C140.522 133.651 140.637 133.782 140.762 133.941L153.832 150.594C153.785 150.192 153.755 149.798 153.737 149.414C153.719 149.029 153.712 148.671 153.712 148.337V133.201H157.793V158.101H155.398C155.031 158.101 154.726 158.043 154.486 157.929C154.244 157.814 154.01 157.608 153.78 157.309L140.762 140.726C140.796 141.094 140.823 141.457 140.839 141.819C140.857 142.181 140.864 142.511 140.864 142.809V158.101H136.784V133.201H139.212C139.418 133.201 139.59 133.21 139.728 133.226Z" fill="#F79800"/>
<path d="M178.526 133.199V136.883H167.488V144.254H176.804V147.957H167.488V158.1H162.822V133.201H178.526V133.199Z" fill="#F79800"/>
<path d="M199.706 133.199V137.005H192.215V158.1H187.583V137.005H180.058V133.199H199.706Z" fill="#F79800"/>
<path d="M137.343 132.032C137.481 132.05 137.605 132.084 137.714 132.136C137.823 132.188 137.929 132.263 138.033 132.36C138.137 132.457 138.251 132.587 138.377 132.747L151.447 149.399C151.4 148.998 151.37 148.604 151.352 148.22C151.334 147.835 151.327 147.476 151.327 147.143V132.007H155.407V156.906H153.013C152.646 156.906 152.341 156.849 152.101 156.734C151.861 156.62 151.624 156.414 151.395 156.114L138.377 139.532C138.411 139.899 138.438 140.263 138.454 140.625C138.472 140.987 138.479 141.317 138.479 141.614V156.906H134.398V132.007H136.827C137.033 132.007 137.205 132.016 137.343 132.032Z" fill="#FFE091"/>
<path d="M176.14 132.007V135.691H165.103V143.062H174.418V146.765H165.103V156.908H160.436V132.009H176.14V132.007Z" fill="#FFE091"/>
<path d="M197.32 132.007V135.813H189.829V156.908H185.196V135.813H177.671V132.007H197.32Z" fill="#FFE091"/>
<path d="M164.817 267.41C164.527 267.41 164.291 267.176 164.291 266.884V225.185C164.291 224.894 164.525 224.658 164.817 224.658C165.11 224.658 165.344 224.892 165.344 225.185V266.884C165.344 267.174 165.11 267.41 164.817 267.41Z" fill="#FEC20C"/>
<path d="M53.0529 196.57H17.7465C13.6697 196.57 10.3647 199.875 10.3647 203.952V239.258C10.3647 243.335 13.6697 246.64 17.7465 246.64H53.0529C57.1297 246.64 60.4346 243.335 60.4346 239.258V203.952C60.4346 199.875 57.1297 196.57 53.0529 196.57Z" fill="#3766F5"/>
<path d="M51.2874 207.043H19.5132V236.163H51.2874V207.043Z" fill="white"/>
<path d="M45.2045 225.08C45.1615 225.086 45.1167 225.093 45.0736 225.1C43.4267 225.374 41.9966 226.815 40.2349 226.319C39.7063 226.17 39.4106 225.785 39.0898 225.362C38.1722 224.148 36.7081 223.079 35.1149 223C33.5647 222.923 32.7116 224.36 31.441 224.971C29.5468 221.018 27.0719 217.464 24.4733 218.1C23.6955 218.29 22.993 218.799 22.3586 219.532C21.2385 220.828 20.6597 222.505 20.6597 224.217V234.652H50.1382V230.76C50.1382 228.181 48.1722 224.699 45.2045 225.08Z" fill="#71B2FF"/>
<path d="M42.0401 219.657C44.1118 218.785 45.0842 216.398 44.2121 214.327C43.34 212.255 40.9536 211.283 38.8819 212.155C36.8103 213.027 35.8378 215.413 36.71 217.485C37.5821 219.557 39.9685 220.529 42.0401 219.657Z" fill="#FFC32E"/>
<path d="M42.7477 72.4985H7.44129C3.36448 72.4985 0.0595703 75.8034 0.0595703 79.8803V115.187C0.0595703 119.264 3.36448 122.568 7.44129 122.568H42.7477C46.8246 122.568 50.1295 119.264 50.1295 115.187V79.8803C50.1295 75.8034 46.8246 72.4985 42.7477 72.4985Z" fill="#3766F5"/>
<path d="M42.8517 94.1417C42.8123 95.9177 42.832 97.7582 42.7388 99.5575C42.6904 100.455 42.728 101.541 42.461 102.405C42.2477 103.099 41.6151 103.179 40.9628 103.244C40.5793 103.281 40.09 103.317 39.5094 103.341C38.6958 103.38 37.7047 103.411 36.5775 103.428C29.8535 103.541 18.3804 103.316 11.8517 102.979C10.5757 102.914 9.54523 102.597 8.79254 102.074C8.72981 102.032 8.67067 101.984 8.61153 101.936C8.49863 101.848 8.39469 101.753 8.29612 101.651C8.18322 101.532 8.07569 101.411 7.98071 101.28C7.83734 101.077 7.71369 100.864 7.62229 100.626C7.59541 100.57 7.5739 100.518 7.55777 100.464C7.55419 100.454 7.54881 100.445 7.54881 100.436C7.54523 100.427 7.54164 100.421 7.53985 100.412C7.52014 100.367 7.51118 100.323 7.50042 100.273C7.32659 99.6829 7.28537 99.0073 7.40365 98.251C7.59003 97.0843 9.00222 96.2904 10.9431 95.7098C11.0255 95.6865 11.1097 95.6632 11.194 95.6399L11.2191 95.6309C12.1725 95.3639 13.2388 95.1435 14.3445 94.9553C14.608 94.9105 14.8732 94.8675 15.151 94.8263C15.4019 94.7869 15.6492 94.751 15.9001 94.7152C16.1689 94.6757 16.4359 94.6399 16.7101 94.6041C16.9305 94.5718 17.1492 94.5449 17.3714 94.5145C17.6528 94.4786 17.9269 94.4446 18.2083 94.4087C18.4825 94.38 18.7495 94.3442 19.0148 94.3084C19.3015 94.2797 19.5829 94.2438 19.8571 94.208C20.1384 94.1739 20.4054 94.1435 20.6689 94.1076C22.4735 93.8711 24.1492 93.8155 25.961 93.6955C28.5936 93.5288 30.9377 93.26 33.1958 92.9177C34.6653 92.6919 36.0954 92.4356 37.5416 92.1542C38.3176 92.0019 39.1026 91.8442 39.8983 91.6793C41.5667 91.3334 42.8929 92.4446 42.8553 94.1453L42.8517 94.1417Z" fill="#9281DA"/>
<g style="mix-blend-mode:multiply">
<path d="M7.40381 98.2528C7.52388 97.5037 8.15471 96.9087 9.10274 96.4248C8.14037 98.1201 8.90202 100.217 9.98087 101.726C10.2622 102.169 10.6422 102.561 11.0794 102.902C10.1565 102.767 9.38589 102.491 8.79091 102.077C8.72818 102.034 8.66904 101.988 8.6099 101.939C8.497 101.85 8.39306 101.755 8.29449 101.656C8.18159 101.538 8.07406 101.416 7.98087 101.285C7.8375 101.083 7.71385 100.869 7.62245 100.636V100.631C7.59557 100.575 7.57406 100.523 7.55793 100.468C7.55435 100.459 7.54897 100.45 7.54897 100.439C7.52747 100.387 7.51492 100.332 7.497 100.276H7.50238C7.32675 99.6865 7.28732 99.0126 7.4056 98.2546L7.40381 98.2528Z" fill="#F9F9F9"/>
</g>
<path d="M40.9377 92.168C40.9377 92.168 42.2011 96.1303 24.4126 96.3203L24.461 94.2504C24.461 94.2504 28.7334 94.4655 40.9377 92.168Z" fill="#685FC1"/>
<g style="mix-blend-mode:multiply" opacity="0.5">
<path d="M40.7104 92.211C40.7857 92.1966 40.861 92.1841 40.9363 92.168C40.9363 92.168 41.5635 94.1375 35.6997 95.3651C35.6495 95.3687 35.5993 95.3705 35.5474 95.3741C37.6083 94.7199 39.6656 93.8992 40.7104 92.2092V92.211Z" fill="#666BA1"/>
</g>
<g style="mix-blend-mode:multiply" opacity="0.5">
<path d="M24.461 94.2507C24.461 94.2507 26.013 94.3277 29.9072 93.8887C31.547 95.8295 33.6563 95.4783 35.7011 95.3672C33.2477 95.8815 29.6599 96.265 24.4126 96.3206L24.461 94.2507Z" fill="#666BA1"/>
</g>
<path d="M24.413 95.9517L24.404 96.3029C21.0294 96.3782 15.7893 96.6452 10.775 97.5359L10.7158 97.1954C15.7176 96.3065 20.9864 96.0323 24.413 95.9517Z" fill="#71B2FF"/>
<path d="M15.2622 94.552C15.0059 94.5897 14.8554 94.8549 14.945 95.0968C14.945 95.0968 14.945 95.1004 14.9468 95.1022C15.1027 95.5502 15.1851 95.9983 15.2012 96.5036C15.2138 96.966 16.1134 97.1434 16.0973 96.6112C16.0758 95.9857 15.9432 95.3692 15.7156 94.8065C15.6439 94.6291 15.4629 94.5234 15.2747 94.552C15.2711 94.552 15.2658 94.552 15.2622 94.5538V94.552Z" fill="#FEC20C"/>
<path d="M15.7406 96.7903C15.8983 96.7724 16.0148 96.6882 16.0972 96.5717C16.108 96.8494 15.9395 97.0287 15.7245 97.0537C15.4664 97.0824 15.2496 96.8423 15.2012 96.5107C15.3248 96.6971 15.5148 96.8172 15.7406 96.7903Z" fill="#FFB000"/>
<path d="M16.6333 94.344C16.377 94.3817 16.2265 94.6469 16.3161 94.8888C16.3161 94.8888 16.3161 94.8924 16.3179 94.8942C16.4738 95.3422 16.5562 95.7903 16.5723 96.2956C16.5849 96.758 17.4845 96.9354 17.4684 96.4032C17.4469 95.7777 17.3143 95.1612 17.0867 94.5985C17.015 94.4211 16.834 94.3153 16.6458 94.344C16.6422 94.344 16.6369 94.344 16.6333 94.3458V94.344Z" fill="#FEC20C"/>
<path d="M17.1102 96.5828C17.2679 96.5649 17.3844 96.4806 17.4669 96.3642C17.4776 96.6419 17.3092 96.8211 17.0941 96.8462C16.836 96.8749 16.6192 96.6348 16.5708 96.3032C16.6945 96.4896 16.8844 96.6097 17.1102 96.5828Z" fill="#FFB000"/>
<path d="M17.9829 94.1609C17.7266 94.1986 17.5761 94.4638 17.6657 94.7057C17.6657 94.7057 17.6657 94.7093 17.6675 94.7111C17.8234 95.1591 17.9058 95.6072 17.9219 96.1125C17.9345 96.5749 18.8341 96.7523 18.818 96.2201C18.7965 95.5946 18.6639 94.9781 18.4363 94.4154C18.3646 94.238 18.1836 94.1322 17.9954 94.1609C17.9918 94.1609 17.9865 94.1609 17.9829 94.1627V94.1609Z" fill="#FEC20C"/>
<path d="M18.4613 96.3997C18.619 96.3818 18.7355 96.2975 18.8179 96.1811C18.8287 96.4588 18.6602 96.638 18.4452 96.6631C18.1871 96.6918 17.9703 96.4517 17.9219 96.1201C18.0455 96.3065 18.2355 96.4266 18.4613 96.3997Z" fill="#FFB000"/>
<path d="M19.4184 94.0071C19.1622 94.0447 19.0116 94.31 19.1012 94.5519C19.1012 94.5519 19.1012 94.5555 19.103 94.5573C19.2589 95.0053 19.3414 95.4533 19.3575 95.9587C19.37 96.4211 20.2697 96.5985 20.2536 96.0662C20.232 95.4408 20.0994 94.8243 19.8718 94.2616C19.8001 94.0842 19.6191 93.9784 19.431 94.0071C19.4274 94.0071 19.422 94.0071 19.4184 94.0089V94.0071Z" fill="#FEC20C"/>
<path d="M19.8949 96.2459C20.0526 96.228 20.1691 96.1437 20.2515 96.0272C20.2623 96.305 20.0938 96.4842 19.8788 96.5093C19.6207 96.538 19.4039 96.2978 19.3555 95.9663C19.4791 96.1527 19.6691 96.2728 19.8949 96.2459Z" fill="#FFB000"/>
<path d="M11.2732 100.855C11.257 100.864 11.2337 100.868 11.214 100.868C11.137 100.866 11.0671 100.812 11.042 100.739C11.0258 100.69 11.0133 100.644 10.9972 100.597L7.54018 100.412C7.52046 100.368 7.5115 100.323 7.49537 100.273H7.49896C7.32512 99.683 7.28391 99.0074 7.40218 98.2511C7.58856 97.0844 9.00075 96.2905 10.9416 95.7099V95.717L11.1925 95.6418L11.2176 95.6328C10.9506 96.4626 10.5939 98.2618 11.3896 100.624C11.4237 100.721 11.3699 100.821 11.2714 100.855H11.2732Z" fill="#FEC20C"/>
<path d="M7.49496 100.274C7.51288 100.33 7.52542 100.385 7.54693 100.437C7.54693 100.446 7.55051 100.455 7.55589 100.466C7.57381 100.522 7.59531 100.574 7.6222 100.629V100.635C7.95374 100.665 8.29782 100.696 8.65266 100.722C10.3928 100.85 12.3659 100.937 14.4573 100.986C24.6222 101.221 37.6562 100.588 41.4197 100.394C41.7799 100.371 42.3157 100.35 42.7082 100.332L42.7154 99.9858C42.3552 99.9966 41.8749 100.018 41.5559 100.032C37.262 100.271 18.7369 101.176 8.47345 100.364C8.13653 100.337 7.81037 100.307 7.49316 100.276L7.49496 100.274Z" fill="#71B2FF"/>
<path d="M42.8518 94.1414C42.8124 95.9174 42.8321 97.7579 42.7389 99.5572C42.6905 100.455 42.7282 101.541 42.4612 102.405C42.2479 103.098 41.6153 103.179 40.9629 103.244C40.5794 103.281 40.0902 103.317 39.5095 103.34C38.6959 103.38 37.7049 103.41 36.5776 103.428V103.389C36.6296 100.681 38.5741 100.183 40.083 99.1397C41.5902 98.0984 42.8518 94.1396 42.8518 94.1396V94.1414Z" fill="#FA9BAE"/>
<path d="M8.60986 101.937C8.669 101.986 8.72814 102.032 8.79087 102.075C9.54356 102.6 10.574 102.914 11.8518 102.98C20.2496 103.414 36.8428 103.663 40.9629 103.246C41.4575 103.197 41.9163 103.129 42.2174 102.869C42.2263 102.866 42.2353 102.857 42.2461 102.848C42.3679 102.735 42.4539 102.443 42.5113 102.12C42.5382 101.988 42.5597 101.853 42.5704 101.729C40.7048 103.271 16.2909 103.079 8.60986 101.939V101.937Z" fill="#6591DB"/>
<path d="M30.8299 93.1882C30.8299 93.2384 30.8281 93.2886 30.8227 93.337C30.8209 93.371 30.8155 93.4051 30.8102 93.4373C30.8102 93.4445 30.8102 93.4499 30.8084 93.4588C30.8066 93.4821 30.8012 93.5072 30.7958 93.5305C30.7887 93.5682 30.7815 93.604 30.7725 93.6398C30.7636 93.6739 30.7528 93.7044 30.7439 93.7384C30.7295 93.785 30.7098 93.8316 30.6919 93.8746C30.6829 93.8961 30.6758 93.9158 30.6632 93.9355C30.6525 93.9624 30.6399 93.9911 30.6256 94.0162C30.6112 94.0484 30.5915 94.0771 30.5754 94.1058C30.5413 94.1614 30.5055 94.2151 30.4661 94.2671C30.441 94.3011 30.4141 94.337 30.3854 94.371C30.3532 94.4087 30.3209 94.4445 30.2869 94.4804C30.1417 94.6345 29.9715 94.7743 29.7797 94.9051C29.7456 94.9284 29.7098 94.9517 29.674 94.975C29.4589 95.113 29.2224 95.2384 28.9661 95.3495C26.441 96.466 22.2492 96.4517 22.2492 96.4517L22.0431 95.1201L21.8657 93.9642C21.8657 93.9642 23.3603 93.6739 25.4517 92.9624C26.156 92.7223 27.0682 92.2904 27.9302 91.9803C28.441 91.7958 28.9356 91.6524 29.3639 91.6148C29.3854 91.613 29.4087 91.6112 29.4284 91.6076C29.4804 91.6058 29.5324 91.604 29.5808 91.604C29.9284 91.604 30.2188 91.69 30.4177 91.9069C30.4679 91.9588 30.5127 92.0234 30.5521 92.0915C30.5646 92.1148 30.5772 92.1399 30.5879 92.1649C30.7546 92.5359 30.8299 92.8764 30.8299 93.1846V93.1882Z" fill="#FEC20C"/>
<path d="M30.8302 93.1879C30.8302 93.2381 30.8284 93.2883 30.823 93.3367C30.8212 93.3707 30.8159 93.4048 30.8105 93.437C30.8105 93.4442 30.8105 93.4496 30.8087 93.4585C30.8069 93.4818 30.8015 93.5069 30.7961 93.5302C30.789 93.5678 30.7818 93.6037 30.7728 93.6395C30.7639 93.6736 30.7531 93.704 30.7442 93.7381C30.7298 93.7847 30.7101 93.8313 30.6922 93.8743C30.6832 93.8958 30.6761 93.9155 30.6635 93.9352C30.6528 93.9621 30.6402 93.9908 30.6259 94.0159C30.6116 94.0481 30.5918 94.0768 30.5757 94.1055C30.5417 94.161 30.5058 94.2148 30.4664 94.2668C30.4413 94.3008 30.4144 94.3367 30.3857 94.3707C30.3535 94.4083 30.3212 94.4442 30.2872 94.48C30.142 94.6341 29.9718 94.7739 29.78 94.9048C29.746 94.928 29.7101 94.9513 29.6743 94.9746C29.4592 95.1126 29.2227 95.2381 28.9664 95.3492C26.4413 96.4657 22.2496 96.4513 22.2496 96.4513L22.0435 95.1198L22.0578 95.1037C22.0703 95.1915 24.6868 96.6736 28.703 95.1037C29.8033 94.5141 30.418 93.6413 29.8284 92.3474C29.547 91.7273 28.8033 91.7399 27.9306 91.9818C28.4413 91.7972 28.9359 91.6539 29.3642 91.6162C29.3858 91.6144 29.409 91.6126 29.4288 91.6091C29.4807 91.6073 29.5327 91.6055 29.5811 91.6055C29.9288 91.6055 30.2191 91.6915 30.418 91.9083C30.4682 91.9603 30.513 92.0212 30.5524 92.0929C30.565 92.1162 30.5775 92.1413 30.5883 92.1664C30.7549 92.5374 30.8302 92.8779 30.8302 93.1861V93.1879Z" fill="#FFB000"/>
<path d="M120.563 0H85.2567C81.1799 0 77.875 3.30491 77.875 7.38172V42.6882C77.875 46.765 81.1799 50.0699 85.2567 50.0699H120.563C124.64 50.0699 127.945 46.765 127.945 42.6882V7.38172C127.945 3.30491 124.64 0 120.563 0Z" fill="#3766F5"/>
<path d="M114.307 36.4303C120.601 30.1364 120.601 19.932 114.307 13.6381C108.013 7.34422 97.8091 7.34423 91.5152 13.6381C85.2213 19.932 85.2213 30.1364 91.5152 36.4303C97.8091 42.7241 108.013 42.7241 114.307 36.4303Z" fill="white"/>
<path d="M108.97 29.3604C108.97 29.3604 108.97 29.346 108.97 29.3389C108.936 28.3048 108.933 27.2833 108.933 26.2475V19.8353H108.943L108.929 15.8442L97.3717 17.4249V21.4159V29.5557C96.8609 29.4482 96.2552 29.4733 95.6441 29.6579C94.2462 30.0826 93.343 31.1812 93.6261 32.1131C93.9093 33.045 95.2713 33.4553 96.6692 33.0324C97.2516 32.855 97.8179 32.545 98.2247 32.0862C98.6674 31.5844 98.7713 30.9607 98.7498 30.3084C98.7498 30.3012 98.7498 30.2941 98.7498 30.2869C98.7158 29.2528 98.7122 28.2313 98.7122 27.1955V21.2313L107.594 20.0163V28.6041C107.083 28.4966 106.477 28.5217 105.866 28.7062C104.468 29.131 103.565 30.2295 103.848 31.1614C104.132 32.0933 105.494 32.5037 106.891 32.0808C107.474 31.9034 108.04 31.5933 108.447 31.1346C108.89 30.6328 108.994 30.0091 108.972 29.3568L108.97 29.3604Z" fill="#FA9BAE"/>
<path d="M245.135 0H209.829C205.752 0 202.447 3.30491 202.447 7.38172V42.6882C202.447 46.765 205.752 50.0699 209.829 50.0699H245.135C249.212 50.0699 252.517 46.765 252.517 42.6882V7.38172C252.517 3.30491 249.212 0 245.135 0Z" fill="#3766F5"/>
<path d="M235.901 18.6108H233.266V13.6108L235.901 15.4746V18.6108Z" fill="#FFBF1F"/>
<path d="M227.556 11.8105L211.764 23.488L216.292 23.3804L227.556 14.9718L238.819 23.3804L243.199 23.488L227.556 11.8105Z" fill="#FA9BAE"/>
<path d="M227.556 14.9712L216.293 23.3798V38.2579H227.992V30.6271H233.266V38.2579H238.82V23.3798L227.556 14.9712Z" fill="#9281DA"/>
<path d="M322.399 72.4946H287.092C283.015 72.4946 279.71 75.7995 279.71 79.8763V115.183C279.71 119.26 283.015 122.565 287.092 122.565H322.399C326.475 122.565 329.78 119.26 329.78 115.183V79.8763C329.78 75.7995 326.475 72.4946 322.399 72.4946Z" fill="#3766F5"/>
<path d="M321.986 102.566C321.837 104.287 321.246 105.678 320.119 106.319C317.563 107.771 313.111 104.877 310.423 101.129C310.255 100.894 309.979 100.76 309.692 100.76H299.801C299.513 100.76 299.237 100.894 299.068 101.131C296.382 104.877 291.932 107.771 289.377 106.319C289.341 106.299 289.305 106.276 289.271 106.255C288.429 105.726 287.904 104.762 287.649 103.556C287.568 103.178 287.516 102.778 287.49 102.359C287.382 100.722 287.66 98.812 288.24 96.9805C288.339 96.6704 288.448 96.3604 288.565 96.0557C288.706 95.6812 288.86 95.3138 289.027 94.9572C289.201 94.5826 289.387 94.2188 289.585 93.8676C290.491 92.2726 291.715 90.8246 293.226 89.7708C293.574 89.5289 293.929 89.3264 294.292 89.1543C294.941 88.8479 295.613 88.6489 296.312 88.5271C296.961 88.4142 297.633 88.3694 298.33 88.3694H308.744C309.215 88.3694 309.685 88.3622 310.153 88.3604C310.739 88.355 311.319 88.3586 311.893 88.3945C313.185 88.4715 314.443 88.7099 315.64 89.3873C317.149 90.2421 318.389 91.5253 319.35 92.9679C319.436 93.0934 319.515 93.2188 319.595 93.3497C319.705 93.5199 319.805 93.6937 319.905 93.8658C320.042 94.1059 320.171 94.3514 320.296 94.6023C321.545 97.1238 322.196 100.161 321.984 102.563L321.986 102.566Z" fill="#FFC32E"/>
<g style="mix-blend-mode:overlay" opacity="0.5">
<path d="M320.296 94.6056C320.171 94.3529 320.042 94.1074 319.905 93.8672C319.807 93.6934 319.705 93.5196 319.597 93.3511C319.559 93.2902 319.52 93.231 319.481 93.1701C320.357 95.4658 320.791 98.0447 320.622 100.14C320.486 101.86 319.941 103.251 318.902 103.891C316.549 105.342 312.448 102.448 309.973 98.7006C309.818 98.4658 309.565 98.3314 309.3 98.3314H300.192C299.925 98.3314 299.672 98.4658 299.516 98.7024C297.043 102.448 292.945 105.342 290.592 103.891C289.758 103.378 289.244 102.385 289 101.127C288.642 99.2758 288.873 96.8511 289.545 94.5518C289.637 94.24 289.735 93.93 289.844 93.6253C289.9 93.4676 289.957 93.3117 290.018 93.1558C289.868 93.3887 289.723 93.6253 289.585 93.8672C289.386 94.2167 289.199 94.5805 289.027 94.955C288.861 95.3135 288.706 95.6808 288.565 96.0536C288.448 96.3583 288.339 96.6683 288.24 96.9801C287.509 99.2794 287.258 101.704 287.649 103.555C287.913 104.812 288.472 105.806 289.377 106.319C291.93 107.77 296.382 104.876 299.068 101.131C299.237 100.896 299.513 100.76 299.801 100.76H309.692C309.981 100.76 310.255 100.894 310.423 101.129C313.111 104.876 317.563 107.77 320.119 106.319C321.246 105.679 321.839 104.287 321.986 102.568C322.197 100.167 321.547 97.1271 320.298 94.6074L320.296 94.6056Z" fill="#1D1D1B"/>
</g>
<path d="M300.124 95.1694C300.604 93.1358 299.344 91.0983 297.311 90.6183C295.277 90.1384 293.24 91.3978 292.76 93.4313C292.28 95.4648 293.539 97.5024 295.573 97.9823C297.606 98.4623 299.644 97.2029 300.124 95.1694Z" fill="#FF9700"/>
<path d="M299.94 94.9624C300.398 93.0195 299.195 91.0726 297.252 90.6141C295.309 90.1555 293.362 91.3588 292.904 93.3018C292.445 95.2447 293.648 97.1916 295.591 97.6502C297.534 98.1087 299.481 96.9054 299.94 94.9624Z" fill="#FFB000"/>
<path d="M297.191 92.5364C297.191 92.9432 296.861 93.2729 296.454 93.2729C296.048 93.2729 295.718 92.9432 295.718 92.5364C295.718 92.1296 296.048 91.7998 296.454 91.7998C296.861 91.7998 297.191 92.1296 297.191 92.5364Z" fill="white"/>
<path d="M297.191 95.7419C297.191 96.1487 296.861 96.4785 296.454 96.4785C296.048 96.4785 295.718 96.1487 295.718 95.7419C295.718 95.3351 296.048 95.0054 296.454 95.0054C296.861 95.0054 297.191 95.3351 297.191 95.7419Z" fill="white"/>
<path d="M298.891 94.0071C298.891 94.4139 298.561 94.7436 298.155 94.7436C297.748 94.7436 297.418 94.4139 297.418 94.0071C297.418 93.6003 297.748 93.2705 298.155 93.2705C298.561 93.2705 298.891 93.6003 298.891 94.0071Z" fill="white"/>
<path d="M295.445 94.0071C295.445 94.4139 295.116 94.7436 294.709 94.7436C294.302 94.7436 293.972 94.4139 293.972 94.0071C293.972 93.6003 294.302 93.2705 294.709 93.2705C295.116 93.2705 295.445 93.6003 295.445 94.0071Z" fill="white"/>
<path d="M316.292 94.3902C316.498 92.311 314.979 90.4584 312.9 90.2524C310.821 90.0463 308.968 91.5648 308.762 93.644C308.556 95.7232 310.075 97.5757 312.154 97.7818C314.233 97.9879 316.086 96.4694 316.292 94.3902Z" fill="#FF9700"/>
<path d="M315.034 96.3963C316.446 94.9847 316.446 92.696 315.034 91.2844C313.623 89.8727 311.334 89.8727 309.922 91.2844C308.511 92.696 308.511 94.9847 309.922 96.3963C311.334 97.8079 313.623 97.8079 315.034 96.3963Z" fill="#FFB000"/>
<path d="M312.479 96.4913C312.216 96.4913 312.001 96.2781 312.001 96.0129V91.667C312.001 91.4035 312.214 91.1885 312.479 91.1885C312.745 91.1885 312.958 91.4017 312.958 91.667V96.0129C312.958 96.2763 312.745 96.4913 312.479 96.4913Z" fill="white"/>
<path d="M314.653 94.3173H310.307C310.044 94.3173 309.829 94.1041 309.829 93.8388C309.829 93.5736 310.042 93.3604 310.307 93.3604H314.653C314.916 93.3604 315.131 93.5736 315.131 93.8388C315.131 94.1041 314.918 94.3173 314.653 94.3173Z" fill="white"/>
<path d="M267.28 196.57H302.587C306.66 196.57 309.968 199.879 309.968 203.952V239.258C309.968 243.332 306.66 246.64 302.587 246.64H267.28C263.207 246.64 259.898 243.332 259.898 239.258V203.952C259.898 199.879 263.207 196.57 267.28 196.57Z" fill="#3766F5"/>
<path d="M297.186 232.867C303.48 226.573 303.48 216.369 297.186 210.075C290.892 203.781 280.688 203.781 274.394 210.075C268.1 216.369 268.1 226.573 274.394 232.867C280.688 239.161 290.892 239.161 297.186 232.867Z" fill="white"/>
<path d="M295.85 221.471L281.654 229.197V213.746L295.85 221.471Z" fill="#FF7D9C"/>
<path d="M293.974 221.422L280.384 229.126V213.717L293.974 221.422Z" fill="#FA9BAE"/>
<path d="M182.47 256.93H147.163C143.087 256.93 139.782 260.235 139.782 264.312V299.618C139.782 303.695 143.087 307 147.163 307H182.47C186.547 307 189.852 303.695 189.852 299.618V264.312C189.852 260.235 186.547 256.93 182.47 256.93Z" fill="#3766F5"/>
<path d="M180.08 273.525H174.34L173.263 271.754C173.03 271.371 172.614 271.138 172.166 271.138H157.469C157.021 271.138 156.605 271.372 156.372 271.754L155.295 273.525H149.555C148.845 273.525 148.271 274.1 148.271 274.808V291.509C148.271 292.218 148.847 292.792 149.555 292.792H180.078C180.788 292.792 181.361 292.217 181.361 291.509V274.808C181.361 274.098 180.786 273.525 180.078 273.525H180.08Z" fill="white"/>
<path d="M169.146 286.293C171.537 283.902 171.537 280.024 169.146 277.633C166.755 275.241 162.877 275.241 160.486 277.633C158.094 280.024 158.094 283.902 160.486 286.293C162.877 288.684 166.755 288.684 169.146 286.293Z" fill="#B6AFEC"/>
<path d="M164.817 287.264C167.744 287.264 170.117 284.891 170.117 281.964C170.117 279.038 167.744 276.665 164.817 276.665C161.891 276.665 159.518 279.038 159.518 281.964C159.518 284.891 161.891 287.264 164.817 287.264Z" fill="#E8E8FF"/>
<path d="M164.818 285.95C167.019 285.95 168.803 284.165 168.803 281.964C168.803 279.763 167.019 277.979 164.818 277.979C162.616 277.979 160.832 279.763 160.832 281.964C160.832 284.165 162.616 285.95 164.818 285.95Z" fill="white"/>
<path d="M176.844 278.475C177.609 278.159 177.972 277.282 177.655 276.518C177.338 275.753 176.462 275.39 175.698 275.707C174.933 276.024 174.57 276.9 174.887 277.664C175.203 278.429 176.08 278.792 176.844 278.475Z" fill="#B6AFEC"/>
<path d="M177.158 277.091C177.158 277.58 176.761 277.978 176.271 277.978C175.782 277.978 175.384 277.58 175.384 277.091C175.384 276.602 175.782 276.204 176.271 276.204C176.761 276.204 177.158 276.602 177.158 277.091Z" fill="white"/>
<path d="M153.224 33.6751L165.109 39.4314L177.167 33.3794L165.109 46.969L153.224 33.6751Z" fill="#A599D6"/>
<path d="M165.11 39.4314V46.969L177.167 33.3794L165.11 39.4314Z" fill="#7261BD"/>
<path d="M165.128 10.4834L153.09 31.4529L165.037 37.4941L177.167 31.4529L165.128 10.4834Z" fill="#A599D6"/>
<path d="M165.128 10.4834L165.036 37.4941L177.167 31.4529L165.128 10.4834Z" fill="#9182D1"/>
<path d="M153.092 31.4531L165.072 27.0068L177.077 31.4531L165.036 37.4943L153.092 31.4531Z" fill="#7968C4"/>
<path d="M165.072 27.0068L165.036 37.4943L177.167 31.4531L165.072 27.0068Z" fill="#6B59BD"/>
<path d="M252.133 167.411L257.447 175.108L266.99 175.592L254.814 179.753L252.133 167.411Z" fill="#A599D6"/>
<path d="M257.447 175.108L254.814 179.753L266.99 175.592L257.447 175.108Z" fill="#7261BD"/>
<path d="M267.569 157.278L252.827 165.993L258.078 173.889L267.662 174.405L267.569 157.278Z" fill="#A599D6"/>
<path d="M267.569 157.278L258.078 173.889L267.662 174.405L267.569 157.278Z" fill="#9182D1"/>
<path d="M252.828 165.995L261.764 167.439L267.608 174.373L258.077 173.889L252.828 165.995Z" fill="#7968C4"/>
<path d="M261.764 167.439L258.078 173.889L267.662 174.405L261.764 167.439Z" fill="#6B59BD"/>
<path d="M61.9399 176.536L71.2804 177.043L77.5009 169.79L73.3432 181.967L61.9399 176.536Z" fill="#A599D6"/>
<path d="M71.2803 177.043L73.343 181.967L77.5007 169.79L71.2803 177.043Z" fill="#7261BD"/>
<path d="M63.3694 158.127L61.2422 175.122L70.701 175.797L76.9734 168.532L63.3694 158.127Z" fill="#A599D6"/>
<path d="M63.3696 158.127L70.7012 175.797L76.9736 168.532L63.3696 158.127Z" fill="#9182D1"/>
<path d="M61.2441 175.12L67.8535 168.937L76.9144 168.556L70.7011 175.798L61.2441 175.12Z" fill="#7968C4"/>
<path d="M67.8535 168.937L70.7012 175.797L76.9736 168.532L67.8535 168.937Z" fill="#6B59BD"/>
<path d="M75.6097 85.9556C71.2495 84.9574 68.0254 81.1366 67.771 76.6653C67.4538 71.0936 71.728 66.3033 77.2979 65.9861C78.2566 65.9323 79.2118 66.0111 80.1384 66.2244C84.4986 67.2226 87.7226 71.0434 87.9771 75.5147C88.2943 81.0864 84.0201 85.8767 78.4502 86.1939C77.4914 86.2477 76.5362 86.1689 75.6097 85.9556Z" fill="#FFC32E"/>
<path d="M88.7708 75.4693C88.6131 72.7005 87.4375 70.2292 85.6257 68.4048C85.1149 67.8887 84.5522 67.4245 83.9483 67.0195C83.2404 66.5446 82.4769 66.1503 81.6687 65.8511C81.2314 65.6898 80.778 65.5518 80.3174 65.4478C79.9267 65.3582 79.5271 65.2901 79.1221 65.2435C78.511 65.1754 77.8891 65.1575 77.2529 65.1933C71.2368 65.5356 66.6364 70.6916 66.9805 76.7095C67.1275 79.2847 68.1561 81.602 69.7601 83.3815C70.3425 84.0338 71.0056 84.6127 71.7296 85.1055C72.4321 85.5876 73.192 85.9855 73.9984 86.2919C74.4626 86.4693 74.9411 86.6145 75.4339 86.7274C75.6526 86.7776 75.8766 86.8224 76.1006 86.8564C76.8748 86.9855 77.6794 87.0285 78.4966 86.9819C84.5128 86.6396 89.1131 81.4837 88.769 75.4675L88.7708 75.4693ZM78.407 85.3994C77.8945 85.4281 77.3801 85.4156 76.873 85.3618C76.5074 85.3242 76.1454 85.2632 75.787 85.1808C75.4285 85.0984 75.0773 84.9962 74.7332 84.8708C73.9285 84.5804 73.1651 84.1808 72.4662 83.6826C71.8479 83.2453 71.2834 82.7292 70.787 82.1503C70.7045 82.0536 70.6257 81.9568 70.5468 81.8582C69.3586 80.3564 68.6759 78.5518 68.5647 76.6199C68.4232 74.1324 69.2565 71.7382 70.9178 69.8797C72.5755 68.0213 74.8586 66.9192 77.3443 66.7776C77.6741 66.7579 78.0038 66.7561 78.3318 66.7758C78.8837 66.7991 79.4303 66.8744 79.9644 66.9962C80.2923 67.0715 80.6149 67.1647 80.9321 67.2758C81.7404 67.5571 82.5074 67.9514 83.2117 68.4442C83.8138 68.8636 84.3676 69.3528 84.8533 69.903C84.8927 69.9442 84.9285 69.9855 84.9644 70.0267C86.3013 71.5858 87.0683 73.498 87.1866 75.5571C87.33 78.0446 86.4948 80.4389 84.8336 82.2973C83.1759 84.1557 80.8945 85.2579 78.407 85.3994Z" fill="#FFB000"/>
<path d="M78.8057 75.7906L78.9043 75.624C79.5315 75.5971 80.071 75.6526 80.5226 75.787C80.9742 75.9232 81.329 76.149 81.5853 76.468C81.8416 76.7852 81.9849 77.2046 82.0136 77.7225C82.0441 78.2602 81.9401 78.7297 81.7036 79.1347C81.4652 79.5379 81.0889 79.8605 80.5728 80.1007C80.0566 80.3408 79.4007 80.4842 78.6032 80.529L74.0978 80.7852L74.0513 79.9537L75.8935 79.5128L75.6839 79.8623L75.2448 72.1437L75.5477 72.4895L73.614 72.2637L73.5674 71.4322L76.7806 71.1813L78.2573 71.0971C78.9097 71.0594 79.4652 71.1132 79.924 71.2584C80.381 71.4035 80.7358 71.6419 80.9885 71.9716C81.2412 72.3032 81.381 72.7279 81.4115 73.2476C81.4509 73.9555 81.2591 74.52 80.8344 74.9429C80.4097 75.3677 79.734 75.6508 78.8093 75.7924L78.8057 75.7906ZM77.9993 72.2817L76.6426 72.3587L76.8971 72.0881L77.0889 75.4573L76.8057 75.2315L77.8523 75.1723C78.2555 75.149 78.6014 75.0809 78.8918 74.9645C79.1821 74.8498 79.4025 74.6777 79.5566 74.4483C79.709 74.2189 79.7753 73.9268 79.7556 73.5684C79.7358 73.2279 79.6516 72.9609 79.5011 72.7673C79.3505 72.5738 79.148 72.4394 78.8918 72.3641C78.6355 72.2888 78.338 72.2602 77.9975 72.2799L77.9993 72.2817ZM78.4025 79.3569C78.8057 79.3336 79.1552 79.2619 79.4545 79.1419C79.752 79.0218 79.9778 78.8444 80.1319 78.6114C80.2842 78.3784 80.3505 78.0792 80.329 77.7118C80.3093 77.3533 80.2179 77.0666 80.0584 76.8515C79.8989 76.6365 79.6892 76.486 79.433 76.4017C79.1767 76.3175 78.8882 76.2852 78.5656 76.3032L76.8738 76.3999L77.1247 76.0899L77.329 79.6885L77.0459 79.4358L78.4025 79.3587V79.3569Z" fill="white"/>
<path d="M76.7549 69.6321L75.5508 69.7007L75.6419 71.3002L76.846 71.2317L76.7549 69.6321Z" fill="white"/>
<path d="M78.8101 69.5154L77.606 69.584L77.6971 71.1835L78.9012 71.115L78.8101 69.5154Z" fill="white"/>
<path d="M77.377 80.513L76.1729 80.5815L76.264 82.1811L77.4681 82.1125L77.377 80.513Z" fill="white"/>
<path d="M79.4297 80.3967L78.2256 80.4653L78.3167 82.0649L79.5208 81.9963L79.4297 80.3967Z" fill="white"/>
<path d="M204.899 248.704C200.488 247.955 197.053 244.324 196.544 239.875C195.909 234.331 199.904 229.305 205.449 228.67C206.402 228.561 207.361 228.586 208.298 228.745C212.709 229.495 216.144 233.125 216.653 237.575C217.287 243.118 213.293 248.145 207.748 248.78C206.795 248.889 205.836 248.864 204.899 248.704Z" fill="#FFC32E"/>
<path d="M217.44 237.488C217.124 234.732 215.809 232.332 213.897 230.613C213.357 230.128 212.77 229.696 212.144 229.327C211.411 228.893 210.626 228.543 209.802 228.291C209.356 228.155 208.897 228.043 208.431 227.965C208.035 227.896 207.632 227.852 207.227 227.828C206.614 227.796 205.99 227.812 205.357 227.884C199.37 228.569 195.071 233.977 195.755 239.966C196.049 242.529 197.209 244.784 198.909 246.47C199.528 247.088 200.223 247.628 200.974 248.079C201.703 248.52 202.485 248.875 203.305 249.135C203.78 249.285 204.264 249.402 204.762 249.488C204.985 249.526 205.209 249.558 205.436 249.577C206.216 249.662 207.022 249.66 207.836 249.567C213.823 248.882 218.123 243.474 217.438 237.486L217.44 237.488ZM207.658 247.991C207.148 248.051 206.633 248.067 206.124 248.042C205.757 248.025 205.391 247.984 205.029 247.923C204.667 247.862 204.311 247.778 203.96 247.674C203.141 247.431 202.356 247.074 201.63 246.617C200.986 246.215 200.395 245.733 199.866 245.183C199.779 245.092 199.694 244.999 199.61 244.905C198.338 243.474 197.555 241.712 197.332 239.789C197.049 237.314 197.746 234.875 199.298 232.925C200.848 230.975 203.065 229.744 205.538 229.463C205.866 229.425 206.194 229.404 206.524 229.404C207.076 229.395 207.626 229.439 208.167 229.531C208.499 229.588 208.827 229.662 209.149 229.755C209.972 229.99 210.761 230.339 211.492 230.791C212.117 231.174 212.696 231.633 213.214 232.153C213.257 232.192 213.295 232.23 213.332 232.271C214.755 233.751 215.632 235.617 215.865 237.665C216.149 240.14 215.451 242.579 213.899 244.529C212.348 246.479 210.133 247.708 207.658 247.991Z" fill="#FFB000"/>
<path d="M207.51 238.377L207.598 238.204C208.221 238.142 208.764 238.165 209.223 238.276C209.682 238.385 210.049 238.592 210.322 238.894C210.596 239.197 210.762 239.606 210.822 240.124C210.883 240.658 210.805 241.135 210.592 241.55C210.379 241.968 210.021 242.31 209.519 242.579C209.017 242.848 208.37 243.029 207.578 243.118L203.094 243.631L202.999 242.803L204.813 242.256L204.624 242.617L203.746 234.936L204.069 235.264L202.126 235.147L202.031 234.319L205.225 233.887L206.694 233.719C207.345 233.645 207.902 233.667 208.366 233.785C208.831 233.903 209.198 234.12 209.47 234.437C209.741 234.755 209.906 235.17 209.965 235.687C210.046 236.391 209.886 236.966 209.486 237.412C209.087 237.86 208.429 238.181 207.512 238.377H207.51ZM206.506 234.918L205.157 235.072L205.395 234.787L205.779 238.14L205.485 237.93L206.526 237.812C206.927 237.765 207.268 237.678 207.551 237.547C207.834 237.416 208.046 237.231 208.185 236.993C208.325 236.756 208.375 236.459 208.334 236.102C208.295 235.764 208.196 235.502 208.035 235.317C207.874 235.133 207.664 235.011 207.404 234.95C207.144 234.889 206.845 234.878 206.506 234.918ZM207.311 241.959C207.712 241.912 208.058 241.821 208.348 241.685C208.639 241.549 208.854 241.359 208.994 241.117C209.133 240.875 209.182 240.572 209.141 240.206C209.099 239.85 208.994 239.568 208.822 239.364C208.65 239.158 208.433 239.02 208.173 238.952C207.913 238.882 207.621 238.866 207.302 238.903L205.619 239.095L205.852 238.771L206.261 242.351L205.963 242.115L207.313 241.961L207.311 241.959Z" fill="white"/>
<path d="M205.106 232.352L203.908 232.489L204.09 234.081L205.288 233.944L205.106 232.352Z" fill="white"/>
<path d="M207.148 232.119L205.949 232.256L206.131 233.848L207.329 233.711L207.148 232.119Z" fill="white"/>
<path d="M206.344 243.181L205.146 243.318L205.328 244.91L206.526 244.773L206.344 243.181Z" fill="white"/>
<path d="M208.385 242.948L207.187 243.084L207.368 244.676L208.567 244.539L208.385 242.948Z" fill="white"/>
<path d="M270.954 56.7098C268.117 54.3944 267.14 50.4213 268.578 47.0485C270.368 42.846 275.243 40.8837 279.445 42.674C280.169 42.9822 280.841 43.3873 281.443 43.8801C284.28 46.1955 285.257 50.1686 283.82 53.5414C282.029 57.7439 277.155 59.7063 272.952 57.9159C272.228 57.6077 271.556 57.2027 270.954 56.7098Z" fill="#FFC32E"/>
<path d="M284.416 53.7972C285.307 51.7076 285.341 49.4692 284.674 47.4728C284.486 46.9083 284.242 46.3635 283.947 45.8473C283.601 45.2416 283.183 44.6753 282.699 44.1628C282.438 43.885 282.154 43.6197 281.855 43.376C281.601 43.1681 281.332 42.9728 281.052 42.7918C280.629 42.5212 280.18 42.281 279.699 42.0767C275.162 40.143 269.914 42.2559 267.981 46.7954C267.153 48.738 267.067 50.8115 267.597 52.7004C267.787 53.3904 268.063 54.0552 268.416 54.6807C268.757 55.29 269.169 55.8563 269.649 56.376C269.927 56.6753 270.224 56.9549 270.543 57.2165C270.685 57.333 270.834 57.4459 270.986 57.5534C271.508 57.928 272.081 58.2524 272.699 58.5158C277.237 60.4495 282.484 58.3366 284.418 53.799L284.416 53.7972ZM273.206 57.3187C272.819 57.1538 272.447 56.9585 272.095 56.7344C271.841 56.5731 271.597 56.3975 271.364 56.2076C271.131 56.0176 270.911 55.8133 270.703 55.5982C270.219 55.0929 269.803 54.523 269.472 53.9029C269.176 53.3563 268.95 52.7739 268.796 52.1699C268.771 52.0696 268.748 51.9692 268.726 51.8689C268.4 50.3348 268.554 48.7649 269.174 47.3061C269.973 45.4298 271.456 43.9764 273.348 43.2165C275.239 42.4549 277.314 42.4764 279.189 43.2757C279.438 43.3814 279.68 43.4997 279.913 43.6323C280.309 43.8491 280.683 44.1036 281.031 44.3868C281.244 44.5624 281.447 44.747 281.64 44.9441C282.131 45.4441 282.551 46.0122 282.887 46.6287C283.178 47.1538 283.405 47.7147 283.561 48.2954C283.576 48.3402 283.586 48.3832 283.597 48.4262C284.011 50.0552 283.88 51.738 283.219 53.29C282.421 55.1663 280.938 56.6197 279.045 57.3796C277.154 58.1413 275.079 58.1215 273.205 57.3205L273.206 57.3187Z" fill="#FFB000"/>
<path d="M276.988 50.4145L277.121 50.3267C277.59 50.5346 277.967 50.7711 278.25 51.0346C278.533 51.298 278.71 51.5937 278.782 51.9199C278.854 52.246 278.807 52.6045 278.641 52.9969C278.469 53.4019 278.221 53.7102 277.9 53.9199C277.58 54.1295 277.185 54.2299 276.719 54.2192C276.253 54.2084 275.719 54.074 275.119 53.8177L271.721 52.3697L271.988 51.7424L273.499 52.0865L273.219 52.2657L275.7 46.4432L275.796 46.807L274.46 45.9378L274.727 45.3105L277.175 46.2944L278.289 46.7693C278.782 46.979 279.169 47.2209 279.452 47.4916C279.736 47.764 279.909 48.0668 279.974 48.4019C280.038 48.7371 279.988 49.0991 279.822 49.4916C279.594 50.0256 279.248 50.3697 278.782 50.5256C278.316 50.6815 277.718 50.6457 276.988 50.4127V50.4145ZM277.671 47.5471L276.648 47.1116L276.933 47.0059L275.85 49.5471L275.725 49.2783L276.515 49.6152C276.82 49.7442 277.098 49.8195 277.352 49.841C277.607 49.8625 277.831 49.8159 278.028 49.703C278.223 49.5901 278.379 49.4002 278.494 49.1295C278.603 48.8733 278.637 48.6457 278.598 48.4503C278.558 48.2532 278.458 48.0812 278.296 47.9342C278.137 47.7855 277.927 47.6582 277.671 47.5489V47.5471ZM275.397 52.884C275.701 53.0131 275.985 53.0883 276.246 53.108C276.508 53.1277 276.739 53.0812 276.936 52.9647C277.133 52.85 277.291 52.6528 277.408 52.3769C277.522 52.1062 277.56 51.8643 277.52 51.6475C277.481 51.4306 277.382 51.246 277.225 51.0901C277.067 50.936 276.866 50.807 276.624 50.703L275.348 50.16L275.646 50.0238L274.49 52.7371L274.374 52.4485L275.397 52.884Z" fill="white"/>
<path d="M277.736 45.1316L276.827 44.7446L276.313 45.9515L277.222 46.3385L277.736 45.1316Z" fill="white"/>
<path d="M279.283 45.7912L278.375 45.4043L277.861 46.6112L278.769 46.9982L279.283 45.7912Z" fill="white"/>
<path d="M274.216 53.3744L273.308 52.9873L272.793 54.1941L273.702 54.5812L274.216 53.3744Z" fill="white"/>
<path d="M275.762 54.0385L274.854 53.6514L274.339 54.8582L275.248 55.2453L275.762 54.0385Z" fill="white"/>
<path d="M316.491 172.122C310.963 173.079 305.382 170.222 302.922 165.174C299.855 158.884 302.477 151.269 308.767 148.203C309.85 147.674 310.995 147.305 312.169 147.1C317.698 146.143 323.276 149 325.739 154.048C328.807 160.339 326.183 167.953 319.893 171.02C318.81 171.548 317.665 171.918 316.491 172.122Z" fill="#FFC32E"/>
<path d="M312.339 148.081C314.783 147.658 317.359 148.042 319.592 149.163C321.894 150.321 323.712 152.162 324.844 154.484C326.213 157.292 326.407 160.466 325.389 163.42C324.371 166.373 322.264 168.755 319.455 170.124C318.457 170.611 317.402 170.952 316.321 171.14C313.876 171.563 311.299 171.18 309.068 170.058C306.765 168.9 304.948 167.059 303.816 164.735C302.446 161.927 302.253 158.753 303.271 155.8C304.289 152.846 306.396 150.465 309.204 149.095C310.203 148.608 311.258 148.267 312.339 148.079V148.081ZM311.998 146.119C310.755 146.334 309.522 146.726 308.33 147.307C301.534 150.62 298.712 158.814 302.025 165.61C304.758 171.214 310.81 174.117 316.66 173.103C317.903 172.887 319.136 172.495 320.328 171.914C327.124 168.601 329.946 160.407 326.633 153.611C323.9 148.008 317.848 145.104 311.998 146.119Z" fill="#FFB000"/>
<path d="M315.262 158.815L315.294 158.573C316.006 158.238 316.658 158.039 317.246 157.978C317.836 157.915 318.355 158.007 318.805 158.251C319.255 158.494 319.624 158.908 319.909 159.494C320.205 160.1 320.312 160.695 320.235 161.277C320.156 161.86 319.877 162.415 319.397 162.944C318.916 163.473 318.226 163.957 317.327 164.394L312.239 166.874L311.78 165.935L313.696 164.532L313.622 165.037L309.372 156.32L309.889 156.575L307.542 157.251L307.083 156.31L310.678 154.462L312.346 153.648C313.085 153.288 313.753 153.082 314.352 153.027C314.95 152.973 315.477 153.075 315.929 153.337C316.381 153.598 316.751 154.021 317.036 154.607C317.425 155.407 317.477 156.154 317.191 156.849C316.904 157.546 316.26 158.2 315.259 158.813L315.262 158.815ZM312.628 155.145L311.097 155.892L311.26 155.457L313.115 159.261L312.68 159.136L313.863 158.559C314.318 158.337 314.685 158.089 314.963 157.815C315.243 157.541 315.415 157.234 315.481 156.896C315.547 156.557 315.481 156.186 315.284 155.781C315.097 155.398 314.87 155.129 314.601 154.978C314.334 154.828 314.033 154.77 313.701 154.806C313.37 154.844 313.011 154.955 312.626 155.143L312.628 155.145ZM316.524 163.134C316.979 162.912 317.35 162.659 317.637 162.376C317.924 162.093 318.099 161.779 318.164 161.435C318.228 161.091 318.158 160.713 317.956 160.297C317.759 159.892 317.515 159.605 317.225 159.433C316.934 159.261 316.621 159.19 316.284 159.217C315.947 159.243 315.596 159.346 315.232 159.523L313.321 160.455L313.461 159.973L315.441 164.036L314.99 163.88L316.52 163.132L316.524 163.134Z" fill="white"/>
<path d="M309.906 152.697L308.546 153.359L309.428 155.167L310.787 154.504L309.906 152.697Z" fill="white"/>
<path d="M312.224 151.567L310.864 152.229L311.745 154.037L313.105 153.374L312.224 151.567Z" fill="white"/>
<path d="M315.896 164.981L314.537 165.644L315.418 167.451L316.777 166.789L315.896 164.981Z" fill="white"/>
<path d="M318.216 163.852L316.856 164.515L317.737 166.323L319.097 165.66L318.216 163.852Z" fill="white"/>
<path d="M249.177 99.2097C244.112 99.2097 239.659 95.6111 238.587 90.6541C237.974 87.8226 238.501 84.9211 240.071 82.4856C241.641 80.0502 244.064 78.371 246.895 77.7581C247.655 77.5932 248.431 77.5107 249.2 77.5107C254.264 77.5107 258.718 81.1093 259.79 86.0663C260.402 88.8978 259.876 91.7993 258.306 94.2348C256.736 96.6702 254.313 98.3495 251.481 98.9624C250.721 99.1272 249.945 99.2097 249.177 99.2097Z" fill="#ABD5FF"/>
<path d="M260.71 85.8652C260.515 84.9566 260.217 84.0946 259.836 83.2899C259.64 82.8777 259.422 82.4799 259.18 82.1018C259.081 81.9405 258.975 81.7828 258.868 81.6268C258.771 81.4889 258.674 81.3527 258.569 81.22C258.158 80.677 257.701 80.177 257.207 79.7182C256.255 78.8383 255.165 78.1197 253.982 77.591C252.504 76.9297 250.877 76.5713 249.201 76.5713H249.199C248.375 76.5713 247.534 76.6591 246.696 76.8401C240.334 78.2165 236.293 84.4906 237.669 90.8544C237.825 91.5695 238.04 92.2541 238.312 92.9064C238.819 94.125 239.518 95.2254 240.366 96.1788C240.918 96.8043 241.534 97.3634 242.201 97.8562C242.49 98.0659 242.785 98.2648 243.092 98.4494C244.895 99.539 246.993 100.152 249.18 100.152C250.004 100.152 250.845 100.066 251.683 99.8831C258.045 98.5068 262.086 92.2326 260.71 85.8688V85.8652ZM249.178 98.2684C247.531 98.2684 245.902 97.8473 244.456 97.0605C244.14 96.8903 243.836 96.7021 243.538 96.4942C243.357 96.3706 243.178 96.2397 243.006 96.1C242.536 95.7254 242.103 95.3096 241.714 94.8562C240.853 93.867 240.196 92.7147 239.782 91.4656C239.672 91.1358 239.579 90.7971 239.506 90.453C238.35 85.1143 241.755 79.8311 247.094 78.6752C247.785 78.5265 248.495 78.4476 249.199 78.4476C250.33 78.4476 251.45 78.6448 252.509 79.0265C253.538 79.3903 254.504 79.9279 255.37 80.6161C255.536 80.7487 255.698 80.8867 255.855 81.0354C256.366 81.4996 256.827 82.0175 257.228 82.5785C257.328 82.7165 257.423 82.858 257.517 83.0014C257.62 83.1609 257.719 83.324 257.809 83.4889C258.031 83.8777 258.226 84.2828 258.389 84.6985C258.592 85.2039 258.753 85.7272 258.87 86.2648C259.429 88.8509 258.947 91.4996 257.515 93.7254C256.081 95.9494 253.868 97.4817 251.282 98.0408C250.588 98.1896 249.88 98.2684 249.178 98.2684Z" fill="#8AC0FF"/>
<path d="M245.703 91.1544L245.196 89.3569L250.633 85.3569L251.156 87.2064L245.703 91.1544Z" fill="white"/>
<path d="M255.92 92.4102L249.146 93.8779L247.176 94.3027L247.137 93.5858L246.945 90.2561L246.825 88.1593L246.447 81.5374L249.14 81.3833L249.42 86.2507L249.542 88.3761L249.692 90.9819V90.998L252.581 90.3725L255.35 89.774L255.92 92.4102Z" fill="white"/>
<path d="M124.185 250.641C124.439 242.858 118.336 236.342 110.553 236.088C102.769 235.834 96.2538 241.937 95.9997 249.721C95.7456 257.504 101.849 264.019 109.632 264.274C117.416 264.528 123.931 258.424 124.185 250.641Z" fill="#ABD5FF"/>
<path d="M110.088 237.05C117.321 237.05 123.205 242.934 123.205 250.167C123.205 257.4 117.321 263.283 110.088 263.283C102.855 263.283 96.9717 257.4 96.9717 250.167C96.9717 242.934 102.855 237.05 110.088 237.05ZM110.088 235.083C101.758 235.083 95.0039 241.835 95.0039 250.167C95.0039 258.498 101.757 265.251 110.088 265.251C118.42 265.251 125.172 258.498 125.172 250.167C125.172 241.835 118.42 235.083 110.088 235.083Z" fill="#8AC0FF"/>
<path d="M106.556 250.577C106.746 250.826 106.843 251.135 106.843 251.498C106.843 252.014 106.642 252.412 106.241 252.688C105.839 252.966 105.255 253.106 104.486 253.106H101.439V247.213H104.318C105.036 247.213 105.586 247.351 105.972 247.626C106.355 247.9 106.549 248.274 106.549 248.746C106.549 249.032 106.481 249.287 106.343 249.511C106.205 249.735 106.013 249.912 105.766 250.041C106.103 250.149 106.366 250.326 106.558 250.575L106.556 250.577ZM102.794 248.242V249.631H104.149C104.486 249.631 104.741 249.572 104.914 249.454C105.088 249.335 105.176 249.161 105.176 248.932C105.176 248.703 105.088 248.529 104.914 248.414C104.741 248.299 104.484 248.242 104.149 248.242H102.794ZM105.198 251.903C105.38 251.785 105.472 251.602 105.472 251.357C105.472 250.869 105.11 250.624 104.386 250.624H102.794V252.081H104.386C104.744 252.081 105.015 252.022 105.198 251.903Z" fill="white"/>
<path d="M108.529 252.509C108.061 252.043 107.827 251.378 107.827 250.514V247.215H109.19V250.464C109.19 251.52 109.628 252.046 110.504 252.046C110.931 252.046 111.257 251.919 111.481 251.663C111.705 251.408 111.818 251.009 111.818 250.464V247.215H113.164V250.514C113.164 251.378 112.929 252.043 112.461 252.509C111.993 252.975 111.337 253.208 110.495 253.208C109.653 253.208 108.999 252.975 108.529 252.509Z" fill="white"/>
<path d="M117.253 251.02V253.107H115.889V251.003L113.608 247.215H115.056L116.629 249.833L118.203 247.215H119.542L117.251 251.02H117.253Z" fill="white"/>
<path d="M26.9647 165.353C22.1206 165.353 17.859 161.91 16.8339 157.169C16.2479 154.459 16.7515 151.685 18.2533 149.353C19.755 147.023 22.074 145.418 24.7819 144.83C25.5095 144.672 26.2515 144.593 26.988 144.593C31.8321 144.593 36.0938 148.036 37.1206 152.778C37.7067 155.488 37.2031 158.262 35.7013 160.593C34.1995 162.923 31.8805 164.529 29.1726 165.117C28.445 165.274 27.7031 165.353 26.9665 165.353H26.9647Z" fill="#ABD5FF"/>
<path d="M37.9987 152.588C37.8123 151.719 37.5273 150.894 37.1618 150.124C36.9754 149.73 36.7657 149.35 36.5345 148.986C36.4395 148.832 36.3392 148.679 36.237 148.531C36.1438 148.398 36.0524 148.269 35.9503 148.142C35.5578 147.622 35.1205 147.144 34.6474 146.704C33.737 145.862 32.694 145.174 31.5632 144.669C30.1474 144.036 28.5919 143.692 26.9897 143.692H26.9879C26.1994 143.692 25.3947 143.776 24.5919 143.95C18.5058 145.267 14.6385 151.271 15.9557 157.359C16.1044 158.043 16.3105 158.697 16.5722 159.321C17.0578 160.486 17.7263 161.54 18.5363 162.452C19.0632 163.05 19.6528 163.584 20.2926 164.056C20.5686 164.256 20.8517 164.446 21.1438 164.624C22.8696 165.667 24.8768 166.253 26.9682 166.253C27.7567 166.253 28.5614 166.17 29.3643 165.995C35.4503 164.678 39.3177 158.674 38.0005 152.586L37.9987 152.588ZM26.9664 164.454C25.3894 164.454 23.832 164.05 22.4485 163.298C22.1456 163.135 21.8553 162.955 21.5704 162.756C21.3965 162.638 21.2263 162.513 21.0614 162.38C20.6116 162.022 20.1976 161.624 19.8248 161.19C19.0023 160.244 18.3732 159.14 17.9772 157.946C17.8732 157.631 17.7836 157.307 17.7137 156.979C16.608 151.871 19.8661 146.816 24.9736 145.71C25.6367 145.566 26.3141 145.493 26.9879 145.493C28.0686 145.493 29.142 145.683 30.1546 146.047C31.1385 146.394 32.0632 146.909 32.8911 147.566C33.0506 147.694 33.2048 147.826 33.3553 147.968C33.8446 148.412 34.2854 148.909 34.6671 149.443C34.7639 149.575 34.8535 149.71 34.9431 149.848C35.0417 150 35.1367 150.156 35.2227 150.316C35.436 150.688 35.6205 151.075 35.7782 151.473C35.9718 151.957 36.1259 152.457 36.237 152.971C36.7729 155.446 36.3123 157.98 34.9413 160.108C33.5704 162.235 31.4521 163.701 28.979 164.237C28.3141 164.38 27.6385 164.454 26.9664 164.454Z" fill="#8AC0FF"/>
<path d="M23.6424 157.647L23.1567 155.926L28.3592 152.1L28.8592 153.869L23.6424 157.647Z" fill="white"/>
<path d="M33.4162 158.848L26.936 160.251L25.0524 160.658L25.013 159.973L24.8302 156.787L24.7155 154.781L24.3535 148.446L26.9306 148.299L27.1976 152.955L27.3141 154.989L27.4575 157.482V157.498L30.2227 156.9L32.8714 156.326L33.4162 158.848Z" fill="white"/>
</g>
<defs>
<clipPath id="clip0_1037_2571">
<rect width="329.72" height="307" fill="white" transform="translate(0.0595703)"/>
</clipPath>
</defs>
</svg>
