<svg width="332" height="260" viewBox="0 0 332 260" fill="none" xmlns="http://www.w3.org/2000/svg">
<path d="M294.59 172.21H167.61C164.32 172.21 161.65 169.13 161.65 165.33V91.6002C161.65 87.8002 164.32 84.7202 167.61 84.7202H294.59C297.88 84.7202 300.55 87.8002 300.55 91.6002V165.33C300.55 169.13 297.88 172.21 294.59 172.21Z" fill="#3766F5"/>
<path d="M174.82 99.7002H202.65" stroke="#0540F2" stroke-width="5.09" stroke-miterlimit="10" stroke-linecap="round"/>
<path d="M174.58 146.03H194.31" stroke="#0540F2" stroke-width="4.64" stroke-miterlimit="10" stroke-linecap="round"/>
<path d="M205.65 146.03H225.37" stroke="#0540F2" stroke-width="4.64" stroke-miterlimit="10" stroke-linecap="round"/>
<path d="M236.71 146.03H256.44" stroke="#0540F2" stroke-width="4.64" stroke-miterlimit="10" stroke-linecap="round"/>
<path d="M267.77 146.03H287.5" stroke="#0540F2" stroke-width="4.64" stroke-miterlimit="10" stroke-linecap="round"/>
<path d="M174.82 158.9H223.28" stroke="#0540F2" stroke-width="4.51" stroke-miterlimit="10" stroke-linecap="round"/>
<path d="M234.21 158.9H253.34" stroke="#0540F2" stroke-width="4.51" stroke-miterlimit="10" stroke-linecap="round"/>
<path d="M276.45 158.9H287.39" stroke="#0540F2" stroke-width="4.51" stroke-miterlimit="10" stroke-linecap="round"/>
<path d="M202.67 133.31H174.31C172.95 133.31 171.84 132.03 171.84 130.46V116.97C171.84 115.4 172.94 114.12 174.31 114.12H202.67C204.03 114.12 205.14 115.4 205.14 116.97V130.46C205.14 132.03 204.04 133.31 202.67 133.31Z" fill="#9BB3FA"/>
<path d="M288.656 107.9C291.222 103.362 289.622 97.6024 285.084 95.0367C280.545 92.471 274.786 94.0703 272.22 98.6089C269.655 103.147 271.254 108.907 275.792 111.472C280.331 114.038 286.09 112.439 288.656 107.9Z" fill="#9BB3FA"/>
<path d="M206.88 167.36H19.3298C16.1597 167.36 13.5898 169.93 13.5898 173.1V249.94C13.5898 253.11 16.1597 255.68 19.3298 255.68H206.88C210.05 255.68 212.62 253.11 212.62 249.94V173.1C212.62 169.93 210.05 167.36 206.88 167.36Z" fill="#0540F2"/>
<path d="M206.4 249.47V173.59H19.8099V249.47H206.4Z" fill="#9BB3FA"/>
<path d="M39.0898 167.36C39.0898 181.44 27.6698 192.86 13.5898 192.86V177.43C13.5898 171.87 18.0998 167.36 23.6598 167.36H39.0898Z" fill="#0540F2"/>
<path d="M39.0898 255.69H23.6598C18.0998 255.69 13.5898 251.18 13.5898 245.62V230.19C27.6698 230.19 39.0898 241.61 39.0898 255.69Z" fill="#0540F2"/>
<path d="M212.62 177.44V192.87C198.54 192.87 187.12 181.45 187.12 167.37H202.55C208.11 167.37 212.62 171.88 212.62 177.44Z" fill="#999999"/>
<path d="M212.62 230.18V245.61C212.62 251.17 208.11 255.68 202.55 255.68H187.12C187.12 241.6 198.54 230.18 212.62 230.18Z" fill="#999999"/>
<path d="M53.3996 222.3C59.3533 222.3 64.1796 217.474 64.1796 211.52C64.1796 205.567 59.3533 200.74 53.3996 200.74C47.446 200.74 42.6196 205.567 42.6196 211.52C42.6196 217.474 47.446 222.3 53.3996 222.3Z" fill="#0540F2"/>
<path d="M169.29 222.3C175.243 222.3 180.07 217.474 180.07 211.52C180.07 205.567 175.243 200.74 169.29 200.74C163.336 200.74 158.51 205.567 158.51 211.52C158.51 217.474 163.336 222.3 169.29 222.3Z" fill="#999999"/>
<path d="M144.52 166.74H81.6997V256.31H144.52V166.74Z" fill="#CDD9FC"/>
<path d="M138.35 0H68.2698C65.8011 0 63.7998 2.00129 63.7998 4.47V144.15C63.7998 146.619 65.8011 148.62 68.2698 148.62H138.35C140.819 148.62 142.82 146.619 142.82 144.15V4.47C142.82 2.00129 140.819 0 138.35 0Z" fill="#F9A63A"/>
<path d="M131.99 13.6802H74.6299C73.5299 13.6802 72.6299 12.7902 72.6299 11.6802C72.6299 10.5802 73.5199 9.68018 74.6299 9.68018H131.99C133.09 9.68018 133.99 10.5702 133.99 11.6802C133.99 12.7802 133.1 13.6802 131.99 13.6802Z" fill="#FCC781"/>
<path d="M131.99 20.2803H74.6299C73.5299 20.2803 72.6299 19.3903 72.6299 18.2803C72.6299 17.1803 73.5199 16.2803 74.6299 16.2803H131.99C133.09 16.2803 133.99 17.1703 133.99 18.2803C133.99 19.3803 133.1 20.2803 131.99 20.2803Z" fill="#FCC781"/>
<path d="M100.05 26.8701H74.6299C73.5299 26.8701 72.6299 25.9701 72.6299 24.8701C72.6299 23.7701 73.5199 22.8701 74.6299 22.8701H100.05C101.15 22.8701 102.05 23.7601 102.05 24.8701C102.05 25.9701 101.16 26.8701 100.05 26.8701Z" fill="#FCC781"/>
<path d="M131.99 38.3701H74.6299C73.5299 38.3701 72.6299 37.4801 72.6299 36.3701C72.6299 35.2701 73.5199 34.3701 74.6299 34.3701H131.99C133.09 34.3701 133.99 35.2701 133.99 36.3701C133.99 37.4701 133.1 38.3701 131.99 38.3701Z" fill="#FCC781"/>
<path d="M131.99 44.96H74.6299C73.5299 44.96 72.6299 44.07 72.6299 42.96C72.6299 41.86 73.5199 40.96 74.6299 40.96H131.99C133.09 40.96 133.99 41.85 133.99 42.96C133.99 44.06 133.1 44.96 131.99 44.96Z" fill="#FCC781"/>
<path d="M100.05 51.5503H74.6299C73.5299 51.5503 72.6299 50.6603 72.6299 49.5503C72.6299 48.4503 73.5199 47.5503 74.6299 47.5503H100.05C101.15 47.5503 102.05 48.4403 102.05 49.5503C102.05 50.6503 101.16 51.5503 100.05 51.5503Z" fill="#FCC781"/>
<path d="M131.99 63.0601H74.6299C73.5299 63.0601 72.6299 62.1601 72.6299 61.0601C72.6299 59.9601 73.5199 59.0601 74.6299 59.0601H131.99C133.09 59.0601 133.99 59.9501 133.99 61.0601C133.99 62.1601 133.1 63.0601 131.99 63.0601Z" fill="#FCC781"/>
<path d="M131.99 69.6499H74.6299C73.5299 69.6499 72.6299 68.7599 72.6299 67.6499C72.6299 66.5499 73.5199 65.6499 74.6299 65.6499H131.99C133.09 65.6499 133.99 66.5499 133.99 67.6499C133.99 68.7499 133.1 69.6499 131.99 69.6499Z" fill="#FCC781"/>
<path d="M100.05 76.2402H74.6299C73.5299 76.2402 72.6299 75.3502 72.6299 74.2402C72.6299 73.1402 73.5199 72.2402 74.6299 72.2402H100.05C101.15 72.2402 102.05 73.1302 102.05 74.2402C102.05 75.3402 101.16 76.2402 100.05 76.2402Z" fill="#FCC781"/>
<path d="M131.99 87.7402H74.6299C73.5299 87.7402 72.6299 86.8402 72.6299 85.7402C72.6299 84.6402 73.5199 83.7402 74.6299 83.7402H131.99C133.09 83.7402 133.99 84.6302 133.99 85.7402C133.99 86.8402 133.1 87.7402 131.99 87.7402Z" fill="#FCC781"/>
<path d="M131.99 94.3301H74.6299C73.5299 94.3301 72.6299 93.4401 72.6299 92.3301C72.6299 91.2301 73.5199 90.3301 74.6299 90.3301H131.99C133.09 90.3301 133.99 91.2301 133.99 92.3301C133.99 93.4301 133.1 94.3301 131.99 94.3301Z" fill="#FCC781"/>
<path d="M100.05 100.92H74.6299C73.5299 100.92 72.6299 100.03 72.6299 98.9204C72.6299 97.8204 73.5199 96.9204 74.6299 96.9204H100.05C101.15 96.9204 102.05 97.8104 102.05 98.9204C102.05 100.02 101.16 100.92 100.05 100.92Z" fill="#FCC781"/>
<path d="M131.99 112.43H74.6299C73.5299 112.43 72.6299 111.54 72.6299 110.43C72.6299 109.33 73.5199 108.43 74.6299 108.43H131.99C133.09 108.43 133.99 109.32 133.99 110.43C133.99 111.53 133.1 112.43 131.99 112.43Z" fill="#FCC781"/>
<path d="M131.99 119.02H74.6299C73.5299 119.02 72.6299 118.13 72.6299 117.02C72.6299 115.92 73.5199 115.02 74.6299 115.02H131.99C133.09 115.02 133.99 115.92 133.99 117.02C133.99 118.12 133.1 119.02 131.99 119.02Z" fill="#FCC781"/>
<path d="M100.05 125.61H74.6299C73.5299 125.61 72.6299 124.72 72.6299 123.61C72.6299 122.51 73.5199 121.61 74.6299 121.61H100.05C101.15 121.61 102.05 122.5 102.05 123.61C102.05 124.71 101.16 125.61 100.05 125.61Z" fill="#FCC781"/>
<path d="M264.3 244.62H207.77C207.102 244.62 206.56 245.162 206.56 245.83V255.01C206.56 255.678 207.102 256.22 207.77 256.22H264.3C264.968 256.22 265.51 255.678 265.51 255.01V245.83C265.51 245.162 264.968 244.62 264.3 244.62Z" fill="#F89516"/>
<path d="M264.23 255.28C264.55 255.28 264.82 255.02 264.82 254.69V246.46C264.82 246.14 264.56 245.87 264.23 245.87C263.91 245.87 263.64 246.13 263.64 246.46V254.69C263.64 255.01 263.9 255.28 264.23 255.28Z" fill="#FAB65D"/>
<path d="M262.08 255.28C262.4 255.28 262.67 255.02 262.67 254.69V246.46C262.67 246.14 262.41 245.87 262.08 245.87C261.76 245.87 261.49 246.13 261.49 246.46V254.69C261.49 255.01 261.75 255.28 262.08 255.28Z" fill="#FAB65D"/>
<path d="M259.92 255.28C260.24 255.28 260.51 255.02 260.51 254.69V246.46C260.51 246.14 260.25 245.87 259.92 245.87C259.6 245.87 259.33 246.13 259.33 246.46V254.69C259.33 255.01 259.59 255.28 259.92 255.28Z" fill="#FDD7A4"/>
<path d="M257.76 255.28C258.08 255.28 258.35 255.02 258.35 254.69V246.46C258.35 246.14 258.09 245.87 257.76 245.87C257.44 245.87 257.17 246.13 257.17 246.46V254.69C257.17 255.01 257.43 255.28 257.76 255.28Z" fill="#FAB65D"/>
<path d="M255.61 255.28C255.93 255.28 256.2 255.02 256.2 254.69V246.46C256.2 246.14 255.94 245.87 255.61 245.87C255.29 245.87 255.02 246.13 255.02 246.46V254.69C255.02 255.01 255.28 255.28 255.61 255.28Z" fill="#FAB65D"/>
<path d="M253.45 255.28C253.77 255.28 254.04 255.02 254.04 254.69V246.46C254.04 246.14 253.78 245.87 253.45 245.87C253.13 245.87 252.86 246.13 252.86 246.46V254.69C252.86 255.01 253.12 255.28 253.45 255.28Z" fill="#FAB65D"/>
<path d="M251.3 255.28C251.62 255.28 251.89 255.02 251.89 254.69V246.46C251.89 246.14 251.63 245.87 251.3 245.87C250.98 245.87 250.71 246.13 250.71 246.46V254.69C250.71 255.01 250.97 255.28 251.3 255.28Z" fill="#FAB65D"/>
<path d="M249.14 255.28C249.46 255.28 249.73 255.02 249.73 254.69V246.46C249.73 246.14 249.47 245.87 249.14 245.87C248.82 245.87 248.55 246.13 248.55 246.46V254.69C248.55 255.01 248.81 255.28 249.14 255.28Z" fill="#FAB65D"/>
<path d="M246.99 255.28C247.31 255.28 247.58 255.02 247.58 254.69V246.46C247.58 246.14 247.32 245.87 246.99 245.87C246.67 245.87 246.4 246.13 246.4 246.46V254.69C246.4 255.01 246.66 255.28 246.99 255.28Z" fill="#FAB65D"/>
<path d="M244.83 255.28C245.15 255.28 245.42 255.02 245.42 254.69V246.46C245.42 246.14 245.16 245.87 244.83 245.87C244.51 245.87 244.24 246.13 244.24 246.46V254.69C244.24 255.01 244.5 255.28 244.83 255.28Z" fill="#FAB65D"/>
<path d="M242.68 255.28C243 255.28 243.27 255.02 243.27 254.69V246.46C243.27 246.14 243.01 245.87 242.68 245.87C242.36 245.87 242.09 246.13 242.09 246.46V254.69C242.09 255.01 242.35 255.28 242.68 255.28Z" fill="#FAB65D"/>
<path d="M240.52 255.28C240.84 255.28 241.11 255.02 241.11 254.69V246.46C241.11 246.14 240.85 245.87 240.52 245.87C240.2 245.87 239.93 246.13 239.93 246.46V254.69C239.93 255.01 240.19 255.28 240.52 255.28Z" fill="#FAB65D"/>
<path d="M238.36 255.28C238.68 255.28 238.95 255.02 238.95 254.69V246.46C238.95 246.14 238.69 245.87 238.36 245.87C238.04 245.87 237.77 246.13 237.77 246.46V254.69C237.77 255.01 238.03 255.28 238.36 255.28Z" fill="#FAB65D"/>
<path d="M236.21 255.28C236.53 255.28 236.8 255.02 236.8 254.69V246.46C236.8 246.14 236.54 245.87 236.21 245.87C235.89 245.87 235.62 246.13 235.62 246.46V254.69C235.62 255.01 235.88 255.28 236.21 255.28Z" fill="#FAB65D"/>
<path d="M234.05 255.28C234.37 255.28 234.64 255.02 234.64 254.69V246.46C234.64 246.14 234.38 245.87 234.05 245.87C233.73 245.87 233.46 246.13 233.46 246.46V254.69C233.46 255.01 233.72 255.28 234.05 255.28Z" fill="#DB7709"/>
<path d="M231.9 255.28C232.22 255.28 232.49 255.02 232.49 254.69V246.46C232.49 246.14 232.23 245.87 231.9 245.87C231.58 245.87 231.31 246.13 231.31 246.46V254.69C231.31 255.01 231.57 255.28 231.9 255.28Z" fill="#DB7709"/>
<path d="M229.74 255.28C230.06 255.28 230.33 255.02 230.33 254.69V246.46C230.33 246.14 230.07 245.87 229.74 245.87C229.42 245.87 229.15 246.13 229.15 246.46V254.69C229.15 255.01 229.41 255.28 229.74 255.28Z" fill="#DB7709"/>
<path d="M227.59 255.28C227.91 255.28 228.18 255.02 228.18 254.69V246.46C228.18 246.14 227.92 245.87 227.59 245.87C227.27 245.87 227 246.13 227 246.46V254.69C227 255.01 227.26 255.28 227.59 255.28Z" fill="#FAB65D"/>
<path d="M225.43 255.28C225.75 255.28 226.02 255.02 226.02 254.69V246.46C226.02 246.14 225.76 245.87 225.43 245.87C225.11 245.87 224.84 246.13 224.84 246.46V254.69C224.84 255.01 225.1 255.28 225.43 255.28Z" fill="#FAB65D"/>
<path d="M223.27 255.28C223.59 255.28 223.86 255.02 223.86 254.69V246.46C223.86 246.14 223.6 245.87 223.27 245.87C222.95 245.87 222.68 246.13 222.68 246.46V254.69C222.68 255.01 222.94 255.28 223.27 255.28Z" fill="#FAB65D"/>
<path d="M221.12 255.28C221.44 255.28 221.71 255.02 221.71 254.69V246.46C221.71 246.14 221.45 245.87 221.12 245.87C220.8 245.87 220.53 246.13 220.53 246.46V254.69C220.53 255.01 220.79 255.28 221.12 255.28Z" fill="#FAB65D"/>
<path d="M218.96 255.28C219.28 255.28 219.55 255.02 219.55 254.69V246.46C219.55 246.14 219.29 245.87 218.96 245.87C218.64 245.87 218.37 246.13 218.37 246.46V254.69C218.37 255.01 218.63 255.28 218.96 255.28Z" fill="#FAB65D"/>
<path d="M216.81 255.28C217.13 255.28 217.4 255.02 217.4 254.69V246.46C217.4 246.14 217.14 245.87 216.81 245.87C216.49 245.87 216.22 246.13 216.22 246.46V254.69C216.22 255.01 216.48 255.28 216.81 255.28Z" fill="#FAB65D"/>
<path d="M214.65 255.28C214.97 255.28 215.24 255.02 215.24 254.69V246.46C215.24 246.14 214.98 245.87 214.65 245.87C214.33 245.87 214.06 246.13 214.06 246.46V254.69C214.06 255.01 214.32 255.28 214.65 255.28Z" fill="#FAB65D"/>
<path d="M212.5 255.28C212.82 255.28 213.09 255.02 213.09 254.69V246.46C213.09 246.14 212.83 245.87 212.5 245.87C212.18 245.87 211.91 246.13 211.91 246.46V254.69C211.91 255.01 212.17 255.28 212.5 255.28Z" fill="#FAB65D"/>
<path d="M210.34 255.28C210.66 255.28 210.93 255.02 210.93 254.69V246.46C210.93 246.14 210.67 245.87 210.34 245.87C210.02 245.87 209.75 246.13 209.75 246.46V254.69C209.75 255.01 210.01 255.28 210.34 255.28Z" fill="#FAB65D"/>
<path d="M208.18 255.28C208.5 255.28 208.77 255.02 208.77 254.69V246.46C208.77 246.14 208.51 245.87 208.18 245.87C207.86 245.87 207.59 246.13 207.59 246.46V254.69C207.59 255.01 207.85 255.28 208.18 255.28Z" fill="#FAB65D"/>
<path d="M206.03 255.28C206.35 255.28 206.62 255.02 206.62 254.69V246.46C206.62 246.14 206.36 245.87 206.03 245.87C205.71 245.87 205.44 246.13 205.44 246.46V254.69C205.44 255.01 205.7 255.28 206.03 255.28Z" fill="#FAB65D"/>
<path d="M275.22 233.02H218.69C218.022 233.02 217.48 233.562 217.48 234.23V243.41C217.48 244.078 218.022 244.62 218.69 244.62H275.22C275.888 244.62 276.43 244.078 276.43 243.41V234.23C276.43 233.562 275.888 233.02 275.22 233.02Z" fill="#F9A63A"/>
<path d="M275.16 243.68C275.48 243.68 275.75 243.42 275.75 243.09V234.86C275.75 234.54 275.49 234.27 275.16 234.27C274.84 234.27 274.57 234.53 274.57 234.86V243.09C274.57 243.41 274.83 243.68 275.16 243.68Z" fill="#FAB65D"/>
<path d="M273 243.68C273.32 243.68 273.59 243.42 273.59 243.09V234.86C273.59 234.54 273.33 234.27 273 234.27C272.68 234.27 272.41 234.53 272.41 234.86V243.09C272.41 243.41 272.67 243.68 273 243.68Z" fill="#FAB65D"/>
<path d="M270.85 243.68C271.17 243.68 271.44 243.42 271.44 243.09V234.86C271.44 234.54 271.18 234.27 270.85 234.27C270.53 234.27 270.26 234.53 270.26 234.86V243.09C270.26 243.41 270.52 243.68 270.85 243.68Z" fill="#FDD7A4"/>
<path d="M268.69 243.68C269.01 243.68 269.28 243.42 269.28 243.09V234.86C269.28 234.54 269.02 234.27 268.69 234.27C268.37 234.27 268.1 234.53 268.1 234.86V243.09C268.1 243.41 268.36 243.68 268.69 243.68Z" fill="#FAB65D"/>
<path d="M266.53 243.68C266.85 243.68 267.12 243.42 267.12 243.09V234.86C267.12 234.54 266.86 234.27 266.53 234.27C266.21 234.27 265.94 234.53 265.94 234.86V243.09C265.94 243.41 266.2 243.68 266.53 243.68Z" fill="#FAB65D"/>
<path d="M264.38 243.68C264.7 243.68 264.97 243.42 264.97 243.09V234.86C264.97 234.54 264.71 234.27 264.38 234.27C264.06 234.27 263.79 234.53 263.79 234.86V243.09C263.79 243.41 264.05 243.68 264.38 243.68Z" fill="#FAB65D"/>
<path d="M262.22 243.68C262.54 243.68 262.81 243.42 262.81 243.09V234.86C262.81 234.54 262.55 234.27 262.22 234.27C261.9 234.27 261.63 234.53 261.63 234.86V243.09C261.63 243.41 261.89 243.68 262.22 243.68Z" fill="#FAB65D"/>
<path d="M260.07 243.68C260.39 243.68 260.66 243.42 260.66 243.09V234.86C260.66 234.54 260.4 234.27 260.07 234.27C259.75 234.27 259.48 234.53 259.48 234.86V243.09C259.48 243.41 259.74 243.68 260.07 243.68Z" fill="#FAB65D"/>
<path d="M257.91 243.68C258.23 243.68 258.5 243.42 258.5 243.09V234.86C258.5 234.54 258.24 234.27 257.91 234.27C257.59 234.27 257.32 234.53 257.32 234.86V243.09C257.32 243.41 257.58 243.68 257.91 243.68Z" fill="#FAB65D"/>
<path d="M255.76 243.68C256.08 243.68 256.35 243.42 256.35 243.09V234.86C256.35 234.54 256.09 234.27 255.76 234.27C255.44 234.27 255.17 234.53 255.17 234.86V243.09C255.17 243.41 255.43 243.68 255.76 243.68Z" fill="#FAB65D"/>
<path d="M253.6 243.68C253.92 243.68 254.19 243.42 254.19 243.09V234.86C254.19 234.54 253.93 234.27 253.6 234.27C253.28 234.27 253.01 234.53 253.01 234.86V243.09C253.01 243.41 253.27 243.68 253.6 243.68Z" fill="#FAB65D"/>
<path d="M251.44 243.68C251.76 243.68 252.03 243.42 252.03 243.09V234.86C252.03 234.54 251.77 234.27 251.44 234.27C251.12 234.27 250.85 234.53 250.85 234.86V243.09C250.85 243.41 251.11 243.68 251.44 243.68Z" fill="#FAB65D"/>
<path d="M249.29 243.68C249.61 243.68 249.88 243.42 249.88 243.09V234.86C249.88 234.54 249.62 234.27 249.29 234.27C248.97 234.27 248.7 234.53 248.7 234.86V243.09C248.7 243.41 248.96 243.68 249.29 243.68Z" fill="#FAB65D"/>
<path d="M247.13 243.68C247.45 243.68 247.72 243.42 247.72 243.09V234.86C247.72 234.54 247.46 234.27 247.13 234.27C246.81 234.27 246.54 234.53 246.54 234.86V243.09C246.54 243.41 246.8 243.68 247.13 243.68Z" fill="#FAB65D"/>
<path d="M244.98 243.68C245.3 243.68 245.57 243.42 245.57 243.09V234.86C245.57 234.54 245.31 234.27 244.98 234.27C244.66 234.27 244.39 234.53 244.39 234.86V243.09C244.39 243.41 244.65 243.68 244.98 243.68Z" fill="#DB7709"/>
<path d="M242.82 243.68C243.14 243.68 243.41 243.42 243.41 243.09V234.86C243.41 234.54 243.15 234.27 242.82 234.27C242.5 234.27 242.23 234.53 242.23 234.86V243.09C242.23 243.41 242.49 243.68 242.82 243.68Z" fill="#DB7709"/>
<path d="M240.67 243.68C240.99 243.68 241.26 243.42 241.26 243.09V234.86C241.26 234.54 241 234.27 240.67 234.27C240.35 234.27 240.08 234.53 240.08 234.86V243.09C240.08 243.41 240.34 243.68 240.67 243.68Z" fill="#DB7709"/>
<path d="M238.51 243.68C238.83 243.68 239.1 243.42 239.1 243.09V234.86C239.1 234.54 238.84 234.27 238.51 234.27C238.19 234.27 237.92 234.53 237.92 234.86V243.09C237.92 243.41 238.18 243.68 238.51 243.68Z" fill="#FAB65D"/>
<path d="M236.35 243.68C236.67 243.68 236.94 243.42 236.94 243.09V234.86C236.94 234.54 236.68 234.27 236.35 234.27C236.03 234.27 235.76 234.53 235.76 234.86V243.09C235.76 243.41 236.02 243.68 236.35 243.68Z" fill="#FAB65D"/>
<path d="M234.2 243.68C234.52 243.68 234.79 243.42 234.79 243.09V234.86C234.79 234.54 234.53 234.27 234.2 234.27C233.88 234.27 233.61 234.53 233.61 234.86V243.09C233.61 243.41 233.87 243.68 234.2 243.68Z" fill="#FAB65D"/>
<path d="M232.04 243.68C232.36 243.68 232.63 243.42 232.63 243.09V234.86C232.63 234.54 232.37 234.27 232.04 234.27C231.72 234.27 231.45 234.53 231.45 234.86V243.09C231.45 243.41 231.71 243.68 232.04 243.68Z" fill="#FAB65D"/>
<path d="M229.89 243.68C230.21 243.68 230.48 243.42 230.48 243.09V234.86C230.48 234.54 230.22 234.27 229.89 234.27C229.57 234.27 229.3 234.53 229.3 234.86V243.09C229.3 243.41 229.56 243.68 229.89 243.68Z" fill="#FAB65D"/>
<path d="M227.73 243.68C228.05 243.68 228.32 243.42 228.32 243.09V234.86C228.32 234.54 228.06 234.27 227.73 234.27C227.41 234.27 227.14 234.53 227.14 234.86V243.09C227.14 243.41 227.4 243.68 227.73 243.68Z" fill="#FAB65D"/>
<path d="M225.58 243.68C225.9 243.68 226.17 243.42 226.17 243.09V234.86C226.17 234.54 225.91 234.27 225.58 234.27C225.26 234.27 224.99 234.53 224.99 234.86V243.09C224.99 243.41 225.25 243.68 225.58 243.68Z" fill="#FAB65D"/>
<path d="M223.42 243.68C223.74 243.68 224.01 243.42 224.01 243.09V234.86C224.01 234.54 223.75 234.27 223.42 234.27C223.1 234.27 222.83 234.53 222.83 234.86V243.09C222.83 243.41 223.09 243.68 223.42 243.68Z" fill="#FAB65D"/>
<path d="M221.27 243.68C221.59 243.68 221.86 243.42 221.86 243.09V234.86C221.86 234.54 221.6 234.27 221.27 234.27C220.95 234.27 220.68 234.53 220.68 234.86V243.09C220.68 243.41 220.94 243.68 221.27 243.68Z" fill="#FAB65D"/>
<path d="M219.11 243.68C219.43 243.68 219.7 243.42 219.7 243.09V234.86C219.7 234.54 219.44 234.27 219.11 234.27C218.79 234.27 218.52 234.53 218.52 234.86V243.09C218.52 243.41 218.78 243.68 219.11 243.68Z" fill="#FAB65D"/>
<path d="M216.95 243.68C217.27 243.68 217.54 243.42 217.54 243.09V234.86C217.54 234.54 217.28 234.27 216.95 234.27C216.63 234.27 216.36 234.53 216.36 234.86V243.09C216.36 243.41 216.62 243.68 216.95 243.68Z" fill="#FAB65D"/>
<path d="M268.9 221.41H212.37C211.702 221.41 211.16 221.952 211.16 222.62V231.8C211.16 232.468 211.702 233.01 212.37 233.01H268.9C269.568 233.01 270.11 232.468 270.11 231.8V222.62C270.11 221.952 269.568 221.41 268.9 221.41Z" fill="#F89516"/>
<path d="M268.84 232.08C269.16 232.08 269.43 231.82 269.43 231.49V223.26C269.43 222.94 269.17 222.67 268.84 222.67C268.52 222.67 268.25 222.93 268.25 223.26V231.49C268.25 231.81 268.51 232.08 268.84 232.08Z" fill="#FAB65D"/>
<path d="M266.68 232.08C267 232.08 267.27 231.82 267.27 231.49V223.26C267.27 222.94 267.01 222.67 266.68 222.67C266.36 222.67 266.09 222.93 266.09 223.26V231.49C266.09 231.81 266.35 232.08 266.68 232.08Z" fill="#FAB65D"/>
<path d="M264.53 232.08C264.85 232.08 265.12 231.82 265.12 231.49V223.26C265.12 222.94 264.86 222.67 264.53 222.67C264.21 222.67 263.94 222.93 263.94 223.26V231.49C263.94 231.81 264.2 232.08 264.53 232.08Z" fill="#FDD7A4"/>
<path d="M262.37 232.08C262.69 232.08 262.96 231.82 262.96 231.49V223.26C262.96 222.94 262.7 222.67 262.37 222.67C262.05 222.67 261.78 222.93 261.78 223.26V231.49C261.78 231.81 262.04 232.08 262.37 232.08Z" fill="#FAB65D"/>
<path d="M260.21 232.08C260.53 232.08 260.8 231.82 260.8 231.49V223.26C260.8 222.94 260.54 222.67 260.21 222.67C259.89 222.67 259.62 222.93 259.62 223.26V231.49C259.62 231.81 259.88 232.08 260.21 232.08Z" fill="#FAB65D"/>
<path d="M258.06 232.08C258.38 232.08 258.65 231.82 258.65 231.49V223.26C258.65 222.94 258.39 222.67 258.06 222.67C257.74 222.67 257.47 222.93 257.47 223.26V231.49C257.47 231.81 257.73 232.08 258.06 232.08Z" fill="#FAB65D"/>
<path d="M255.9 232.08C256.22 232.08 256.49 231.82 256.49 231.49V223.26C256.49 222.94 256.23 222.67 255.9 222.67C255.58 222.67 255.31 222.93 255.31 223.26V231.49C255.31 231.81 255.57 232.08 255.9 232.08Z" fill="#FAB65D"/>
<path d="M253.75 232.08C254.07 232.08 254.34 231.82 254.34 231.49V223.26C254.34 222.94 254.08 222.67 253.75 222.67C253.43 222.67 253.16 222.93 253.16 223.26V231.49C253.16 231.81 253.42 232.08 253.75 232.08Z" fill="#FAB65D"/>
<path d="M251.59 232.08C251.91 232.08 252.18 231.82 252.18 231.49V223.26C252.18 222.94 251.92 222.67 251.59 222.67C251.27 222.67 251 222.93 251 223.26V231.49C251 231.81 251.26 232.08 251.59 232.08Z" fill="#FAB65D"/>
<path d="M249.44 232.08C249.76 232.08 250.03 231.82 250.03 231.49V223.26C250.03 222.94 249.77 222.67 249.44 222.67C249.12 222.67 248.85 222.93 248.85 223.26V231.49C248.85 231.81 249.11 232.08 249.44 232.08Z" fill="#FAB65D"/>
<path d="M247.28 232.08C247.6 232.08 247.87 231.82 247.87 231.49V223.26C247.87 222.94 247.61 222.67 247.28 222.67C246.96 222.67 246.69 222.93 246.69 223.26V231.49C246.69 231.81 246.95 232.08 247.28 232.08Z" fill="#FAB65D"/>
<path d="M245.12 232.08C245.44 232.08 245.71 231.82 245.71 231.49V223.26C245.71 222.94 245.45 222.67 245.12 222.67C244.8 222.67 244.53 222.93 244.53 223.26V231.49C244.53 231.81 244.79 232.08 245.12 232.08Z" fill="#FAB65D"/>
<path d="M242.97 232.08C243.29 232.08 243.56 231.82 243.56 231.49V223.26C243.56 222.94 243.3 222.67 242.97 222.67C242.65 222.67 242.38 222.93 242.38 223.26V231.49C242.38 231.81 242.64 232.08 242.97 232.08Z" fill="#FAB65D"/>
<path d="M240.81 232.08C241.13 232.08 241.4 231.82 241.4 231.49V223.26C241.4 222.94 241.14 222.67 240.81 222.67C240.49 222.67 240.22 222.93 240.22 223.26V231.49C240.22 231.81 240.48 232.08 240.81 232.08Z" fill="#FAB65D"/>
<path d="M238.66 232.08C238.98 232.08 239.25 231.82 239.25 231.49V223.26C239.25 222.94 238.99 222.67 238.66 222.67C238.34 222.67 238.07 222.93 238.07 223.26V231.49C238.07 231.81 238.33 232.08 238.66 232.08Z" fill="#DB7709"/>
<path d="M236.5 232.08C236.82 232.08 237.09 231.82 237.09 231.49V223.26C237.09 222.94 236.83 222.67 236.5 222.67C236.18 222.67 235.91 222.93 235.91 223.26V231.49C235.91 231.81 236.17 232.08 236.5 232.08Z" fill="#DB7709"/>
<path d="M234.35 232.08C234.67 232.08 234.94 231.82 234.94 231.49V223.26C234.94 222.94 234.68 222.67 234.35 222.67C234.03 222.67 233.76 222.93 233.76 223.26V231.49C233.76 231.81 234.02 232.08 234.35 232.08Z" fill="#DB7709"/>
<path d="M232.19 232.08C232.51 232.08 232.78 231.82 232.78 231.49V223.26C232.78 222.94 232.52 222.67 232.19 222.67C231.87 222.67 231.6 222.93 231.6 223.26V231.49C231.6 231.81 231.86 232.08 232.19 232.08Z" fill="#FAB65D"/>
<path d="M230.03 232.08C230.35 232.08 230.62 231.82 230.62 231.49V223.26C230.62 222.94 230.36 222.67 230.03 222.67C229.71 222.67 229.44 222.93 229.44 223.26V231.49C229.44 231.81 229.7 232.08 230.03 232.08Z" fill="#FAB65D"/>
<path d="M227.88 232.08C228.2 232.08 228.47 231.82 228.47 231.49V223.26C228.47 222.94 228.21 222.67 227.88 222.67C227.56 222.67 227.29 222.93 227.29 223.26V231.49C227.29 231.81 227.55 232.08 227.88 232.08Z" fill="#FAB65D"/>
<path d="M225.72 232.08C226.04 232.08 226.31 231.82 226.31 231.49V223.26C226.31 222.94 226.05 222.67 225.72 222.67C225.4 222.67 225.13 222.93 225.13 223.26V231.49C225.13 231.81 225.39 232.08 225.72 232.08Z" fill="#FAB65D"/>
<path d="M223.57 232.08C223.89 232.08 224.16 231.82 224.16 231.49V223.26C224.16 222.94 223.9 222.67 223.57 222.67C223.25 222.67 222.98 222.93 222.98 223.26V231.49C222.98 231.81 223.24 232.08 223.57 232.08Z" fill="#FAB65D"/>
<path d="M221.41 232.08C221.73 232.08 222 231.82 222 231.49V223.26C222 222.94 221.74 222.67 221.41 222.67C221.09 222.67 220.82 222.93 220.82 223.26V231.49C220.82 231.81 221.08 232.08 221.41 232.08Z" fill="#FAB65D"/>
<path d="M219.26 232.08C219.58 232.08 219.85 231.82 219.85 231.49V223.26C219.85 222.94 219.59 222.67 219.26 222.67C218.94 222.67 218.67 222.93 218.67 223.26V231.49C218.67 231.81 218.93 232.08 219.26 232.08Z" fill="#FAB65D"/>
<path d="M217.69 223.26C217.69 222.934 217.426 222.67 217.1 222.67C216.774 222.67 216.51 222.934 216.51 223.26V231.49C216.51 231.816 216.774 232.08 217.1 232.08C217.426 232.08 217.69 231.816 217.69 231.49V223.26Z" fill="#FAB65D"/>
<path d="M214.95 232.08C215.27 232.08 215.54 231.82 215.54 231.49V223.26C215.54 222.94 215.28 222.67 214.95 222.67C214.63 222.67 214.36 222.93 214.36 223.26V231.49C214.36 231.81 214.62 232.08 214.95 232.08Z" fill="#FAB65D"/>
<path d="M212.79 232.08C213.11 232.08 213.38 231.82 213.38 231.49V223.26C213.38 222.94 213.12 222.67 212.79 222.67C212.47 222.67 212.2 222.93 212.2 223.26V231.49C212.2 231.81 212.46 232.08 212.79 232.08Z" fill="#FAB65D"/>
<path d="M210.63 232.08C210.95 232.08 211.22 231.82 211.22 231.49V223.26C211.22 222.94 210.96 222.67 210.63 222.67C210.31 222.67 210.04 222.93 210.04 223.26V231.49C210.04 231.81 210.3 232.08 210.63 232.08Z" fill="#FAB65D"/>
<path d="M134.59 244.62H78.0601C77.3918 244.62 76.8501 245.162 76.8501 245.83V255.01C76.8501 255.678 77.3918 256.22 78.0601 256.22H134.59C135.258 256.22 135.8 255.678 135.8 255.01V245.83C135.8 245.162 135.258 244.62 134.59 244.62Z" fill="#F89516"/>
<path d="M134.52 255.28C134.84 255.28 135.11 255.02 135.11 254.69V246.46C135.11 246.14 134.85 245.87 134.52 245.87C134.2 245.87 133.93 246.13 133.93 246.46V254.69C133.93 255.01 134.19 255.28 134.52 255.28Z" fill="#FAB65D"/>
<path d="M132.37 255.28C132.69 255.28 132.96 255.02 132.96 254.69V246.46C132.96 246.14 132.7 245.87 132.37 245.87C132.05 245.87 131.78 246.13 131.78 246.46V254.69C131.78 255.01 132.04 255.28 132.37 255.28Z" fill="#FAB65D"/>
<path d="M130.21 255.28C130.53 255.28 130.8 255.02 130.8 254.69V246.46C130.8 246.14 130.54 245.87 130.21 245.87C129.89 245.87 129.62 246.13 129.62 246.46V254.69C129.62 255.01 129.88 255.28 130.21 255.28Z" fill="#FDD7A4"/>
<path d="M128.06 255.28C128.38 255.28 128.65 255.02 128.65 254.69V246.46C128.65 246.14 128.39 245.87 128.06 245.87C127.74 245.87 127.47 246.13 127.47 246.46V254.69C127.47 255.01 127.73 255.28 128.06 255.28Z" fill="#FAB65D"/>
<path d="M125.9 255.28C126.22 255.28 126.49 255.02 126.49 254.69V246.46C126.49 246.14 126.23 245.87 125.9 245.87C125.58 245.87 125.31 246.13 125.31 246.46V254.69C125.31 255.01 125.57 255.28 125.9 255.28Z" fill="#FAB65D"/>
<path d="M123.75 255.28C124.07 255.28 124.34 255.02 124.34 254.69V246.46C124.34 246.14 124.08 245.87 123.75 245.87C123.43 245.87 123.16 246.13 123.16 246.46V254.69C123.16 255.01 123.42 255.28 123.75 255.28Z" fill="#FAB65D"/>
<path d="M121.59 255.28C121.91 255.28 122.18 255.02 122.18 254.69V246.46C122.18 246.14 121.92 245.87 121.59 245.87C121.27 245.87 121 246.13 121 246.46V254.69C121 255.01 121.26 255.28 121.59 255.28Z" fill="#FAB65D"/>
<path d="M119.43 255.28C119.75 255.28 120.02 255.02 120.02 254.69V246.46C120.02 246.14 119.76 245.87 119.43 245.87C119.11 245.87 118.84 246.13 118.84 246.46V254.69C118.84 255.01 119.1 255.28 119.43 255.28Z" fill="#FAB65D"/>
<path d="M117.28 255.28C117.6 255.28 117.87 255.02 117.87 254.69V246.46C117.87 246.14 117.61 245.87 117.28 245.87C116.96 245.87 116.69 246.13 116.69 246.46V254.69C116.69 255.01 116.95 255.28 117.28 255.28Z" fill="#FAB65D"/>
<path d="M115.12 255.28C115.44 255.28 115.71 255.02 115.71 254.69V246.46C115.71 246.14 115.45 245.87 115.12 245.87C114.8 245.87 114.53 246.13 114.53 246.46V254.69C114.53 255.01 114.79 255.28 115.12 255.28Z" fill="#FAB65D"/>
<path d="M112.97 255.28C113.29 255.28 113.56 255.02 113.56 254.69V246.46C113.56 246.14 113.3 245.87 112.97 245.87C112.65 245.87 112.38 246.13 112.38 246.46V254.69C112.38 255.01 112.64 255.28 112.97 255.28Z" fill="#FAB65D"/>
<path d="M110.81 255.28C111.13 255.28 111.4 255.02 111.4 254.69V246.46C111.4 246.14 111.14 245.87 110.81 245.87C110.49 245.87 110.22 246.13 110.22 246.46V254.69C110.22 255.01 110.48 255.28 110.81 255.28Z" fill="#FAB65D"/>
<path d="M108.66 255.28C108.98 255.28 109.25 255.02 109.25 254.69V246.46C109.25 246.14 108.99 245.87 108.66 245.87C108.34 245.87 108.07 246.13 108.07 246.46V254.69C108.07 255.01 108.33 255.28 108.66 255.28Z" fill="#FAB65D"/>
<path d="M106.5 255.28C106.82 255.28 107.09 255.02 107.09 254.69V246.46C107.09 246.14 106.83 245.87 106.5 245.87C106.18 245.87 105.91 246.13 105.91 246.46V254.69C105.91 255.01 106.17 255.28 106.5 255.28Z" fill="#FAB65D"/>
<path d="M104.34 255.28C104.66 255.28 104.93 255.02 104.93 254.69V246.46C104.93 246.14 104.67 245.87 104.34 245.87C104.02 245.87 103.75 246.13 103.75 246.46V254.69C103.75 255.01 104.01 255.28 104.34 255.28Z" fill="#DB7709"/>
<path d="M102.19 255.28C102.51 255.28 102.78 255.02 102.78 254.69V246.46C102.78 246.14 102.52 245.87 102.19 245.87C101.87 245.87 101.6 246.13 101.6 246.46V254.69C101.6 255.01 101.86 255.28 102.19 255.28Z" fill="#DB7709"/>
<path d="M100.03 255.28C100.35 255.28 100.62 255.02 100.62 254.69V246.46C100.62 246.14 100.36 245.87 100.03 245.87C99.7099 245.87 99.4399 246.13 99.4399 246.46V254.69C99.4399 255.01 99.6999 255.28 100.03 255.28Z" fill="#DB7709"/>
<path d="M97.88 255.28C98.2 255.28 98.47 255.02 98.47 254.69V246.46C98.47 246.14 98.21 245.87 97.88 245.87C97.56 245.87 97.29 246.13 97.29 246.46V254.69C97.29 255.01 97.55 255.28 97.88 255.28Z" fill="#FAB65D"/>
<path d="M95.7199 255.28C96.0399 255.28 96.3099 255.02 96.3099 254.69V246.46C96.3099 246.14 96.0499 245.87 95.7199 245.87C95.3999 245.87 95.1299 246.13 95.1299 246.46V254.69C95.1299 255.01 95.3899 255.28 95.7199 255.28Z" fill="#FAB65D"/>
<path d="M94.16 246.46C94.16 246.134 93.8958 245.87 93.57 245.87C93.2441 245.87 92.98 246.134 92.98 246.46V254.69C92.98 255.016 93.2441 255.28 93.57 255.28C93.8958 255.28 94.16 255.016 94.16 254.69V246.46Z" fill="#FAB65D"/>
<path d="M91.4098 255.28C91.7298 255.28 91.9998 255.02 91.9998 254.69V246.46C91.9998 246.14 91.7398 245.87 91.4098 245.87C91.0898 245.87 90.8198 246.13 90.8198 246.46V254.69C90.8198 255.01 91.0798 255.28 91.4098 255.28Z" fill="#FAB65D"/>
<path d="M89.2599 255.28C89.5799 255.28 89.8499 255.02 89.8499 254.69V246.46C89.8499 246.14 89.5899 245.87 89.2599 245.87C88.9399 245.87 88.6699 246.13 88.6699 246.46V254.69C88.6699 255.01 88.9299 255.28 89.2599 255.28Z" fill="#FAB65D"/>
<path d="M87.0998 255.28C87.4198 255.28 87.6898 255.02 87.6898 254.69V246.46C87.6898 246.14 87.4298 245.87 87.0998 245.87C86.7798 245.87 86.5098 246.13 86.5098 246.46V254.69C86.5098 255.01 86.7698 255.28 87.0998 255.28Z" fill="#FAB65D"/>
<path d="M84.9401 255.28C85.2601 255.28 85.5301 255.02 85.5301 254.69V246.46C85.5301 246.14 85.2701 245.87 84.9401 245.87C84.6201 245.87 84.3501 246.13 84.3501 246.46V254.69C84.3501 255.01 84.6101 255.28 84.9401 255.28Z" fill="#FAB65D"/>
<path d="M82.7902 255.28C83.1102 255.28 83.3802 255.02 83.3802 254.69V246.46C83.3802 246.14 83.1202 245.87 82.7902 245.87C82.4702 245.87 82.2002 246.13 82.2002 246.46V254.69C82.2002 255.01 82.4602 255.28 82.7902 255.28Z" fill="#FAB65D"/>
<path d="M80.63 255.28C80.95 255.28 81.22 255.02 81.22 254.69V246.46C81.22 246.14 80.96 245.87 80.63 245.87C80.31 245.87 80.04 246.13 80.04 246.46V254.69C80.04 255.01 80.3 255.28 80.63 255.28Z" fill="#FAB65D"/>
<path d="M78.4801 255.28C78.8001 255.28 79.0701 255.02 79.0701 254.69V246.46C79.0701 246.14 78.8101 245.87 78.4801 245.87C78.1601 245.87 77.8901 246.13 77.8901 246.46V254.69C77.8901 255.01 78.1501 255.28 78.4801 255.28Z" fill="#FAB65D"/>
<path d="M76.32 255.28C76.64 255.28 76.91 255.02 76.91 254.69V246.46C76.91 246.14 76.65 245.87 76.32 245.87C76 245.87 75.73 246.13 75.73 246.46V254.69C75.73 255.01 75.99 255.28 76.32 255.28Z" fill="#FAB65D"/>
<path d="M145.52 233.02H88.9903C88.322 233.02 87.7803 233.562 87.7803 234.23V243.41C87.7803 244.078 88.322 244.62 88.9903 244.62H145.52C146.189 244.62 146.73 244.078 146.73 243.41V234.23C146.73 233.562 146.189 233.02 145.52 233.02Z" fill="#F9A63A"/>
<path d="M145.45 243.68C145.77 243.68 146.04 243.42 146.04 243.09V234.86C146.04 234.54 145.78 234.27 145.45 234.27C145.13 234.27 144.86 234.53 144.86 234.86V243.09C144.86 243.41 145.12 243.68 145.45 243.68Z" fill="#FAB65D"/>
<path d="M143.29 243.68C143.61 243.68 143.88 243.42 143.88 243.09V234.86C143.88 234.54 143.62 234.27 143.29 234.27C142.97 234.27 142.7 234.53 142.7 234.86V243.09C142.7 243.41 142.96 243.68 143.29 243.68Z" fill="#FAB65D"/>
<path d="M141.14 243.68C141.46 243.68 141.73 243.42 141.73 243.09V234.86C141.73 234.54 141.47 234.27 141.14 234.27C140.82 234.27 140.55 234.53 140.55 234.86V243.09C140.55 243.41 140.81 243.68 141.14 243.68Z" fill="#FDD7A4"/>
<path d="M138.98 243.68C139.3 243.68 139.57 243.42 139.57 243.09V234.86C139.57 234.54 139.31 234.27 138.98 234.27C138.66 234.27 138.39 234.53 138.39 234.86V243.09C138.39 243.41 138.65 243.68 138.98 243.68Z" fill="#FAB65D"/>
<path d="M136.83 243.68C137.15 243.68 137.42 243.42 137.42 243.09V234.86C137.42 234.54 137.16 234.27 136.83 234.27C136.51 234.27 136.24 234.53 136.24 234.86V243.09C136.24 243.41 136.5 243.68 136.83 243.68Z" fill="#FAB65D"/>
<path d="M134.67 243.68C134.99 243.68 135.26 243.42 135.26 243.09V234.86C135.26 234.54 135 234.27 134.67 234.27C134.35 234.27 134.08 234.53 134.08 234.86V243.09C134.08 243.41 134.34 243.68 134.67 243.68Z" fill="#FAB65D"/>
<path d="M132.52 243.68C132.84 243.68 133.11 243.42 133.11 243.09V234.86C133.11 234.54 132.85 234.27 132.52 234.27C132.2 234.27 131.93 234.53 131.93 234.86V243.09C131.93 243.41 132.19 243.68 132.52 243.68Z" fill="#FAB65D"/>
<path d="M130.36 243.68C130.68 243.68 130.95 243.42 130.95 243.09V234.86C130.95 234.54 130.69 234.27 130.36 234.27C130.04 234.27 129.77 234.53 129.77 234.86V243.09C129.77 243.41 130.03 243.68 130.36 243.68Z" fill="#FAB65D"/>
<path d="M128.2 243.68C128.52 243.68 128.79 243.42 128.79 243.09V234.86C128.79 234.54 128.53 234.27 128.2 234.27C127.88 234.27 127.61 234.53 127.61 234.86V243.09C127.61 243.41 127.87 243.68 128.2 243.68Z" fill="#FAB65D"/>
<path d="M126.05 243.68C126.37 243.68 126.64 243.42 126.64 243.09V234.86C126.64 234.54 126.38 234.27 126.05 234.27C125.73 234.27 125.46 234.53 125.46 234.86V243.09C125.46 243.41 125.72 243.68 126.05 243.68Z" fill="#FAB65D"/>
<path d="M123.89 243.68C124.21 243.68 124.48 243.42 124.48 243.09V234.86C124.48 234.54 124.22 234.27 123.89 234.27C123.57 234.27 123.3 234.53 123.3 234.86V243.09C123.3 243.41 123.56 243.68 123.89 243.68Z" fill="#FAB65D"/>
<path d="M121.74 243.68C122.06 243.68 122.33 243.42 122.33 243.09V234.86C122.33 234.54 122.07 234.27 121.74 234.27C121.42 234.27 121.15 234.53 121.15 234.86V243.09C121.15 243.41 121.41 243.68 121.74 243.68Z" fill="#FAB65D"/>
<path d="M119.58 243.68C119.9 243.68 120.17 243.42 120.17 243.09V234.86C120.17 234.54 119.91 234.27 119.58 234.27C119.26 234.27 118.99 234.53 118.99 234.86V243.09C118.99 243.41 119.25 243.68 119.58 243.68Z" fill="#FAB65D"/>
<path d="M117.43 243.68C117.75 243.68 118.02 243.42 118.02 243.09V234.86C118.02 234.54 117.76 234.27 117.43 234.27C117.11 234.27 116.84 234.53 116.84 234.86V243.09C116.84 243.41 117.1 243.68 117.43 243.68Z" fill="#FAB65D"/>
<path d="M115.27 243.68C115.59 243.68 115.86 243.42 115.86 243.09V234.86C115.86 234.54 115.6 234.27 115.27 234.27C114.95 234.27 114.68 234.53 114.68 234.86V243.09C114.68 243.41 114.94 243.68 115.27 243.68Z" fill="#DB7709"/>
<path d="M113.11 243.68C113.43 243.68 113.7 243.42 113.7 243.09V234.86C113.7 234.54 113.44 234.27 113.11 234.27C112.79 234.27 112.52 234.53 112.52 234.86V243.09C112.52 243.41 112.78 243.68 113.11 243.68Z" fill="#DB7709"/>
<path d="M110.96 243.68C111.28 243.68 111.55 243.42 111.55 243.09V234.86C111.55 234.54 111.29 234.27 110.96 234.27C110.64 234.27 110.37 234.53 110.37 234.86V243.09C110.37 243.41 110.63 243.68 110.96 243.68Z" fill="#DB7709"/>
<path d="M108.8 243.68C109.12 243.68 109.39 243.42 109.39 243.09V234.86C109.39 234.54 109.13 234.27 108.8 234.27C108.48 234.27 108.21 234.53 108.21 234.86V243.09C108.21 243.41 108.47 243.68 108.8 243.68Z" fill="#FAB65D"/>
<path d="M106.65 243.68C106.97 243.68 107.24 243.42 107.24 243.09V234.86C107.24 234.54 106.98 234.27 106.65 234.27C106.33 234.27 106.06 234.53 106.06 234.86V243.09C106.06 243.41 106.32 243.68 106.65 243.68Z" fill="#FAB65D"/>
<path d="M104.49 243.68C104.81 243.68 105.08 243.42 105.08 243.09V234.86C105.08 234.54 104.82 234.27 104.49 234.27C104.17 234.27 103.9 234.53 103.9 234.86V243.09C103.9 243.41 104.16 243.68 104.49 243.68Z" fill="#FAB65D"/>
<path d="M102.34 243.68C102.66 243.68 102.93 243.42 102.93 243.09V234.86C102.93 234.54 102.67 234.27 102.34 234.27C102.02 234.27 101.75 234.53 101.75 234.86V243.09C101.75 243.41 102.01 243.68 102.34 243.68Z" fill="#FAB65D"/>
<path d="M100.18 243.68C100.5 243.68 100.77 243.42 100.77 243.09V234.86C100.77 234.54 100.51 234.27 100.18 234.27C99.8603 234.27 99.5903 234.53 99.5903 234.86V243.09C99.5903 243.41 99.8503 243.68 100.18 243.68Z" fill="#FAB65D"/>
<path d="M98.0202 243.68C98.3402 243.68 98.6102 243.42 98.6102 243.09V234.86C98.6102 234.54 98.3502 234.27 98.0202 234.27C97.7002 234.27 97.4302 234.53 97.4302 234.86V243.09C97.4302 243.41 97.6902 243.68 98.0202 243.68Z" fill="#FAB65D"/>
<path d="M95.8703 243.68C96.1903 243.68 96.4603 243.42 96.4603 243.09V234.86C96.4603 234.54 96.2003 234.27 95.8703 234.27C95.5503 234.27 95.2803 234.53 95.2803 234.86V243.09C95.2803 243.41 95.5403 243.68 95.8703 243.68Z" fill="#FAB65D"/>
<path d="M93.7101 243.68C94.0301 243.68 94.3001 243.42 94.3001 243.09V234.86C94.3001 234.54 94.0401 234.27 93.7101 234.27C93.3901 234.27 93.1201 234.53 93.1201 234.86V243.09C93.1201 243.41 93.3801 243.68 93.7101 243.68Z" fill="#FAB65D"/>
<path d="M91.5602 243.68C91.8802 243.68 92.1502 243.42 92.1502 243.09V234.86C92.1502 234.54 91.8902 234.27 91.5602 234.27C91.2402 234.27 90.9702 234.53 90.9702 234.86V243.09C90.9702 243.41 91.2302 243.68 91.5602 243.68Z" fill="#FAB65D"/>
<path d="M89.4001 243.68C89.7201 243.68 89.9901 243.42 89.9901 243.09V234.86C89.9901 234.54 89.7301 234.27 89.4001 234.27C89.0801 234.27 88.8101 234.53 88.8101 234.86V243.09C88.8101 243.41 89.0701 243.68 89.4001 243.68Z" fill="#FAB65D"/>
<path d="M87.2502 243.68C87.5702 243.68 87.8401 243.42 87.8401 243.09V234.86C87.8401 234.54 87.5802 234.27 87.2502 234.27C86.9302 234.27 86.6602 234.53 86.6602 234.86V243.09C86.6602 243.41 86.9202 243.68 87.2502 243.68Z" fill="#FAB65D"/>
<path d="M139.2 221.41H82.67C82.0017 221.41 81.46 221.952 81.46 222.62V231.8C81.46 232.468 82.0017 233.01 82.67 233.01H139.2C139.868 233.01 140.41 232.468 140.41 231.8V222.62C140.41 221.952 139.868 221.41 139.2 221.41Z" fill="#F89516"/>
<path d="M139.13 232.08C139.45 232.08 139.72 231.82 139.72 231.49V223.26C139.72 222.94 139.46 222.67 139.13 222.67C138.81 222.67 138.54 222.93 138.54 223.26V231.49C138.54 231.81 138.8 232.08 139.13 232.08Z" fill="#FAB65D"/>
<path d="M136.97 232.08C137.29 232.08 137.56 231.82 137.56 231.49V223.26C137.56 222.94 137.3 222.67 136.97 222.67C136.65 222.67 136.38 222.93 136.38 223.26V231.49C136.38 231.81 136.64 232.08 136.97 232.08Z" fill="#FAB65D"/>
<path d="M134.82 232.08C135.14 232.08 135.41 231.82 135.41 231.49V223.26C135.41 222.94 135.15 222.67 134.82 222.67C134.5 222.67 134.23 222.93 134.23 223.26V231.49C134.23 231.81 134.49 232.08 134.82 232.08Z" fill="#FDD7A4"/>
<path d="M133.25 223.26C133.25 222.934 132.986 222.67 132.66 222.67C132.334 222.67 132.07 222.934 132.07 223.26V231.49C132.07 231.816 132.334 232.08 132.66 232.08C132.986 232.08 133.25 231.816 133.25 231.49V223.26Z" fill="#FAB65D"/>
<path d="M130.51 232.08C130.83 232.08 131.1 231.82 131.1 231.49V223.26C131.1 222.94 130.84 222.67 130.51 222.67C130.19 222.67 129.92 222.93 129.92 223.26V231.49C129.92 231.81 130.18 232.08 130.51 232.08Z" fill="#FAB65D"/>
<path d="M128.35 232.08C128.67 232.08 128.94 231.82 128.94 231.49V223.26C128.94 222.94 128.68 222.67 128.35 222.67C128.03 222.67 127.76 222.93 127.76 223.26V231.49C127.76 231.81 128.02 232.08 128.35 232.08Z" fill="#FAB65D"/>
<path d="M126.2 232.08C126.52 232.08 126.79 231.82 126.79 231.49V223.26C126.79 222.94 126.53 222.67 126.2 222.67C125.88 222.67 125.61 222.93 125.61 223.26V231.49C125.61 231.81 125.87 232.08 126.2 232.08Z" fill="#FAB65D"/>
<path d="M124.04 232.08C124.36 232.08 124.63 231.82 124.63 231.49V223.26C124.63 222.94 124.37 222.67 124.04 222.67C123.72 222.67 123.45 222.93 123.45 223.26V231.49C123.45 231.81 123.71 232.08 124.04 232.08Z" fill="#FAB65D"/>
<path d="M121.88 232.08C122.2 232.08 122.47 231.82 122.47 231.49V223.26C122.47 222.94 122.21 222.67 121.88 222.67C121.56 222.67 121.29 222.93 121.29 223.26V231.49C121.29 231.81 121.55 232.08 121.88 232.08Z" fill="#FAB65D"/>
<path d="M119.73 232.08C120.05 232.08 120.32 231.82 120.32 231.49V223.26C120.32 222.94 120.06 222.67 119.73 222.67C119.41 222.67 119.14 222.93 119.14 223.26V231.49C119.14 231.81 119.4 232.08 119.73 232.08Z" fill="#FAB65D"/>
<path d="M117.57 232.08C117.89 232.08 118.16 231.82 118.16 231.49V223.26C118.16 222.94 117.9 222.67 117.57 222.67C117.25 222.67 116.98 222.93 116.98 223.26V231.49C116.98 231.81 117.24 232.08 117.57 232.08Z" fill="#FAB65D"/>
<path d="M115.42 232.08C115.74 232.08 116.01 231.82 116.01 231.49V223.26C116.01 222.94 115.75 222.67 115.42 222.67C115.1 222.67 114.83 222.93 114.83 223.26V231.49C114.83 231.81 115.09 232.08 115.42 232.08Z" fill="#FAB65D"/>
<path d="M113.26 232.08C113.58 232.08 113.85 231.82 113.85 231.49V223.26C113.85 222.94 113.59 222.67 113.26 222.67C112.94 222.67 112.67 222.93 112.67 223.26V231.49C112.67 231.81 112.93 232.08 113.26 232.08Z" fill="#FAB65D"/>
<path d="M111.11 232.08C111.43 232.08 111.7 231.82 111.7 231.49V223.26C111.7 222.94 111.44 222.67 111.11 222.67C110.79 222.67 110.52 222.93 110.52 223.26V231.49C110.52 231.81 110.78 232.08 111.11 232.08Z" fill="#FAB65D"/>
<path d="M108.95 232.08C109.27 232.08 109.54 231.82 109.54 231.49V223.26C109.54 222.94 109.28 222.67 108.95 222.67C108.63 222.67 108.36 222.93 108.36 223.26V231.49C108.36 231.81 108.62 232.08 108.95 232.08Z" fill="#DB7709"/>
<path d="M106.79 232.08C107.11 232.08 107.38 231.82 107.38 231.49V223.26C107.38 222.94 107.12 222.67 106.79 222.67C106.47 222.67 106.2 222.93 106.2 223.26V231.49C106.2 231.81 106.46 232.08 106.79 232.08Z" fill="#DB7709"/>
<path d="M104.64 232.08C104.96 232.08 105.23 231.82 105.23 231.49V223.26C105.23 222.94 104.97 222.67 104.64 222.67C104.32 222.67 104.05 222.93 104.05 223.26V231.49C104.05 231.81 104.31 232.08 104.64 232.08Z" fill="#DB7709"/>
<path d="M102.48 232.08C102.8 232.08 103.07 231.82 103.07 231.49V223.26C103.07 222.94 102.81 222.67 102.48 222.67C102.16 222.67 101.89 222.93 101.89 223.26V231.49C101.89 231.81 102.15 232.08 102.48 232.08Z" fill="#FAB65D"/>
<path d="M100.33 232.08C100.65 232.08 100.92 231.82 100.92 231.49V223.26C100.92 222.94 100.66 222.67 100.33 222.67C100.01 222.67 99.7397 222.93 99.7397 223.26V231.49C99.7397 231.81 99.9998 232.08 100.33 232.08Z" fill="#FAB65D"/>
<path d="M98.1701 232.08C98.4901 232.08 98.7601 231.82 98.7601 231.49V223.26C98.7601 222.94 98.5001 222.67 98.1701 222.67C97.8501 222.67 97.5801 222.93 97.5801 223.26V231.49C97.5801 231.81 97.8401 232.08 98.1701 232.08Z" fill="#FAB65D"/>
<path d="M96.0197 232.08C96.3397 232.08 96.6097 231.82 96.6097 231.49V223.26C96.6097 222.94 96.3497 222.67 96.0197 222.67C95.6997 222.67 95.4297 222.93 95.4297 223.26V231.49C95.4297 231.81 95.6897 232.08 96.0197 232.08Z" fill="#FAB65D"/>
<path d="M93.86 232.08C94.18 232.08 94.45 231.82 94.45 231.49V223.26C94.45 222.94 94.19 222.67 93.86 222.67C93.54 222.67 93.27 222.93 93.27 223.26V231.49C93.27 231.81 93.53 232.08 93.86 232.08Z" fill="#FAB65D"/>
<path d="M91.6999 232.08C92.0199 232.08 92.2899 231.82 92.2899 231.49V223.26C92.2899 222.94 92.0299 222.67 91.6999 222.67C91.3799 222.67 91.1099 222.93 91.1099 223.26V231.49C91.1099 231.81 91.3699 232.08 91.6999 232.08Z" fill="#FAB65D"/>
<path d="M89.55 232.08C89.87 232.08 90.14 231.82 90.14 231.49V223.26C90.14 222.94 89.88 222.67 89.55 222.67C89.23 222.67 88.96 222.93 88.96 223.26V231.49C88.96 231.81 89.22 232.08 89.55 232.08Z" fill="#FAB65D"/>
<path d="M87.3898 232.08C87.7098 232.08 87.9798 231.82 87.9798 231.49V223.26C87.9798 222.94 87.7198 222.67 87.3898 222.67C87.0698 222.67 86.7998 222.93 86.7998 223.26V231.49C86.7998 231.81 87.0598 232.08 87.3898 232.08Z" fill="#FAB65D"/>
<path d="M85.2399 232.08C85.5599 232.08 85.8299 231.82 85.8299 231.49V223.26C85.8299 222.94 85.5699 222.67 85.2399 222.67C84.9199 222.67 84.6499 222.93 84.6499 223.26V231.49C84.6499 231.81 84.9099 232.08 85.2399 232.08Z" fill="#FAB65D"/>
<path d="M83.0798 232.08C83.3998 232.08 83.6697 231.82 83.6697 231.49V223.26C83.6697 222.94 83.4098 222.67 83.0798 222.67C82.7598 222.67 82.4897 222.93 82.4897 223.26V231.49C82.4897 231.81 82.7498 232.08 83.0798 232.08Z" fill="#FAB65D"/>
<path d="M80.9298 232.08C81.2498 232.08 81.5198 231.82 81.5198 231.49V223.26C81.5198 222.94 81.2598 222.67 80.9298 222.67C80.6098 222.67 80.3398 222.93 80.3398 223.26V231.49C80.3398 231.81 80.5998 232.08 80.9298 232.08Z" fill="#FAB65D"/>
<path d="M252.39 209.81H195.86C195.192 209.81 194.65 210.352 194.65 211.02V220.2C194.65 220.868 195.192 221.41 195.86 221.41H252.39C253.058 221.41 253.6 220.868 253.6 220.2V211.02C253.6 210.352 253.058 209.81 252.39 209.81Z" fill="#F9A63A"/>
<path d="M252.33 220.47C252.65 220.47 252.92 220.21 252.92 219.88V211.65C252.92 211.33 252.66 211.06 252.33 211.06C252.01 211.06 251.74 211.32 251.74 211.65V219.88C251.74 220.2 252 220.47 252.33 220.47Z" fill="#FAB65D"/>
<path d="M250.17 220.47C250.49 220.47 250.76 220.21 250.76 219.88V211.65C250.76 211.33 250.5 211.06 250.17 211.06C249.85 211.06 249.58 211.32 249.58 211.65V219.88C249.58 220.2 249.84 220.47 250.17 220.47Z" fill="#FAB65D"/>
<path d="M248.02 220.47C248.34 220.47 248.61 220.21 248.61 219.88V211.65C248.61 211.33 248.35 211.06 248.02 211.06C247.7 211.06 247.43 211.32 247.43 211.65V219.88C247.43 220.2 247.69 220.47 248.02 220.47Z" fill="#FDD7A4"/>
<path d="M245.86 220.47C246.18 220.47 246.45 220.21 246.45 219.88V211.65C246.45 211.33 246.19 211.06 245.86 211.06C245.54 211.06 245.27 211.32 245.27 211.65V219.88C245.27 220.2 245.53 220.47 245.86 220.47Z" fill="#FAB65D"/>
<path d="M243.7 220.47C244.02 220.47 244.29 220.21 244.29 219.88V211.65C244.29 211.33 244.03 211.06 243.7 211.06C243.38 211.06 243.11 211.32 243.11 211.65V219.88C243.11 220.2 243.37 220.47 243.7 220.47Z" fill="#FAB65D"/>
<path d="M241.55 220.47C241.87 220.47 242.14 220.21 242.14 219.88V211.65C242.14 211.33 241.88 211.06 241.55 211.06C241.23 211.06 240.96 211.32 240.96 211.65V219.88C240.96 220.2 241.22 220.47 241.55 220.47Z" fill="#FAB65D"/>
<path d="M239.39 220.47C239.71 220.47 239.98 220.21 239.98 219.88V211.65C239.98 211.33 239.72 211.06 239.39 211.06C239.07 211.06 238.8 211.32 238.8 211.65V219.88C238.8 220.2 239.06 220.47 239.39 220.47Z" fill="#FAB65D"/>
<path d="M237.24 220.47C237.56 220.47 237.83 220.21 237.83 219.88V211.65C237.83 211.33 237.57 211.06 237.24 211.06C236.92 211.06 236.65 211.32 236.65 211.65V219.88C236.65 220.2 236.91 220.47 237.24 220.47Z" fill="#FAB65D"/>
<path d="M235.08 220.47C235.4 220.47 235.67 220.21 235.67 219.88V211.65C235.67 211.33 235.41 211.06 235.08 211.06C234.76 211.06 234.49 211.32 234.49 211.65V219.88C234.49 220.2 234.75 220.47 235.08 220.47Z" fill="#FAB65D"/>
<path d="M232.93 220.47C233.25 220.47 233.52 220.21 233.52 219.88V211.65C233.52 211.33 233.26 211.06 232.93 211.06C232.61 211.06 232.34 211.32 232.34 211.65V219.88C232.34 220.2 232.6 220.47 232.93 220.47Z" fill="#FAB65D"/>
<path d="M230.77 220.47C231.09 220.47 231.36 220.21 231.36 219.88V211.65C231.36 211.33 231.1 211.06 230.77 211.06C230.45 211.06 230.18 211.32 230.18 211.65V219.88C230.18 220.2 230.44 220.47 230.77 220.47Z" fill="#FAB65D"/>
<path d="M228.61 220.47C228.93 220.47 229.2 220.21 229.2 219.88V211.65C229.2 211.33 228.94 211.06 228.61 211.06C228.29 211.06 228.02 211.32 228.02 211.65V219.88C228.02 220.2 228.28 220.47 228.61 220.47Z" fill="#FAB65D"/>
<path d="M226.46 220.47C226.78 220.47 227.05 220.21 227.05 219.88V211.65C227.05 211.33 226.79 211.06 226.46 211.06C226.14 211.06 225.87 211.32 225.87 211.65V219.88C225.87 220.2 226.13 220.47 226.46 220.47Z" fill="#FAB65D"/>
<path d="M224.3 220.47C224.62 220.47 224.89 220.21 224.89 219.88V211.65C224.89 211.33 224.63 211.06 224.3 211.06C223.98 211.06 223.71 211.32 223.71 211.65V219.88C223.71 220.2 223.97 220.47 224.3 220.47Z" fill="#FAB65D"/>
<path d="M222.15 220.47C222.47 220.47 222.74 220.21 222.74 219.88V211.65C222.74 211.33 222.48 211.06 222.15 211.06C221.83 211.06 221.56 211.32 221.56 211.65V219.88C221.56 220.2 221.82 220.47 222.15 220.47Z" fill="#DB7709"/>
<path d="M219.99 220.47C220.31 220.47 220.58 220.21 220.58 219.88V211.65C220.58 211.33 220.32 211.06 219.99 211.06C219.67 211.06 219.4 211.32 219.4 211.65V219.88C219.4 220.2 219.66 220.47 219.99 220.47Z" fill="#DB7709"/>
<path d="M217.84 220.47C218.16 220.47 218.43 220.21 218.43 219.88V211.65C218.43 211.33 218.17 211.06 217.84 211.06C217.52 211.06 217.25 211.32 217.25 211.65V219.88C217.25 220.2 217.51 220.47 217.84 220.47Z" fill="#DB7709"/>
<path d="M215.68 220.47C216 220.47 216.27 220.21 216.27 219.88V211.65C216.27 211.33 216.01 211.06 215.68 211.06C215.36 211.06 215.09 211.32 215.09 211.65V219.88C215.09 220.2 215.35 220.47 215.68 220.47Z" fill="#FAB65D"/>
<path d="M213.52 220.47C213.84 220.47 214.11 220.21 214.11 219.88V211.65C214.11 211.33 213.85 211.06 213.52 211.06C213.2 211.06 212.93 211.32 212.93 211.65V219.88C212.93 220.2 213.19 220.47 213.52 220.47Z" fill="#FAB65D"/>
<path d="M211.37 220.47C211.69 220.47 211.96 220.21 211.96 219.88V211.65C211.96 211.33 211.7 211.06 211.37 211.06C211.05 211.06 210.78 211.32 210.78 211.65V219.88C210.78 220.2 211.04 220.47 211.37 220.47Z" fill="#FAB65D"/>
<path d="M209.21 220.47C209.53 220.47 209.8 220.21 209.8 219.88V211.65C209.8 211.33 209.54 211.06 209.21 211.06C208.89 211.06 208.62 211.32 208.62 211.65V219.88C208.62 220.2 208.88 220.47 209.21 220.47Z" fill="#FAB65D"/>
<path d="M207.06 220.47C207.38 220.47 207.65 220.21 207.65 219.88V211.65C207.65 211.33 207.39 211.06 207.06 211.06C206.74 211.06 206.47 211.32 206.47 211.65V219.88C206.47 220.2 206.73 220.47 207.06 220.47Z" fill="#FAB65D"/>
<path d="M204.9 220.47C205.22 220.47 205.49 220.21 205.49 219.88V211.65C205.49 211.33 205.23 211.06 204.9 211.06C204.58 211.06 204.31 211.32 204.31 211.65V219.88C204.31 220.2 204.57 220.47 204.9 220.47Z" fill="#FAB65D"/>
<path d="M202.75 220.47C203.07 220.47 203.34 220.21 203.34 219.88V211.65C203.34 211.33 203.08 211.06 202.75 211.06C202.43 211.06 202.16 211.32 202.16 211.65V219.88C202.16 220.2 202.42 220.47 202.75 220.47Z" fill="#FAB65D"/>
<path d="M200.59 220.47C200.91 220.47 201.18 220.21 201.18 219.88V211.65C201.18 211.33 200.92 211.06 200.59 211.06C200.27 211.06 200 211.32 200 211.65V219.88C200 220.2 200.26 220.47 200.59 220.47Z" fill="#FAB65D"/>
<path d="M198.43 220.47C198.75 220.47 199.02 220.21 199.02 219.88V211.65C199.02 211.33 198.76 211.06 198.43 211.06C198.11 211.06 197.84 211.32 197.84 211.65V219.88C197.84 220.2 198.1 220.47 198.43 220.47Z" fill="#FAB65D"/>
<path d="M196.28 220.47C196.6 220.47 196.87 220.21 196.87 219.88V211.65C196.87 211.33 196.61 211.06 196.28 211.06C195.96 211.06 195.69 211.32 195.69 211.65V219.88C195.69 220.2 195.95 220.47 196.28 220.47Z" fill="#FAB65D"/>
<path d="M194.12 220.47C194.44 220.47 194.71 220.21 194.71 219.88V211.65C194.71 211.33 194.45 211.06 194.12 211.06C193.8 211.06 193.53 211.32 193.53 211.65V219.88C193.53 220.2 193.79 220.47 194.12 220.47Z" fill="#FAB65D"/>
<path d="M249.64 198.21H193.13C192.456 198.21 191.91 198.756 191.91 199.43V208.59C191.91 209.264 192.456 209.81 193.13 209.81H249.64C250.314 209.81 250.86 209.264 250.86 208.59V199.43C250.86 198.756 250.314 198.21 249.64 198.21Z" fill="#F89516"/>
<path d="M249.58 208.87C249.9 208.87 250.17 208.61 250.17 208.28V200.05C250.17 199.73 249.91 199.46 249.58 199.46C249.26 199.46 248.99 199.72 248.99 200.05V208.28C248.99 208.6 249.25 208.87 249.58 208.87Z" fill="#FAB65D"/>
<path d="M247.43 208.87C247.75 208.87 248.02 208.61 248.02 208.28V200.05C248.02 199.73 247.76 199.46 247.43 199.46C247.11 199.46 246.84 199.72 246.84 200.05V208.28C246.84 208.6 247.1 208.87 247.43 208.87Z" fill="#FAB65D"/>
<path d="M245.27 208.87C245.59 208.87 245.86 208.61 245.86 208.28V200.05C245.86 199.73 245.6 199.46 245.27 199.46C244.95 199.46 244.68 199.72 244.68 200.05V208.28C244.68 208.6 244.94 208.87 245.27 208.87Z" fill="#FDD7A4"/>
<path d="M243.12 208.87C243.44 208.87 243.71 208.61 243.71 208.28V200.05C243.71 199.73 243.45 199.46 243.12 199.46C242.8 199.46 242.53 199.72 242.53 200.05V208.28C242.53 208.6 242.79 208.87 243.12 208.87Z" fill="#FAB65D"/>
<path d="M240.96 208.87C241.28 208.87 241.55 208.61 241.55 208.28V200.05C241.55 199.73 241.29 199.46 240.96 199.46C240.64 199.46 240.37 199.72 240.37 200.05V208.28C240.37 208.6 240.63 208.87 240.96 208.87Z" fill="#FAB65D"/>
<path d="M238.8 208.87C239.12 208.87 239.39 208.61 239.39 208.28V200.05C239.39 199.73 239.13 199.46 238.8 199.46C238.48 199.46 238.21 199.72 238.21 200.05V208.28C238.21 208.6 238.47 208.87 238.8 208.87Z" fill="#FAB65D"/>
<path d="M236.65 208.87C236.97 208.87 237.24 208.61 237.24 208.28V200.05C237.24 199.73 236.98 199.46 236.65 199.46C236.33 199.46 236.06 199.72 236.06 200.05V208.28C236.06 208.6 236.32 208.87 236.65 208.87Z" fill="#FAB65D"/>
<path d="M234.49 208.87C234.81 208.87 235.08 208.61 235.08 208.28V200.05C235.08 199.73 234.82 199.46 234.49 199.46C234.17 199.46 233.9 199.72 233.9 200.05V208.28C233.9 208.6 234.16 208.87 234.49 208.87Z" fill="#FAB65D"/>
<path d="M232.93 200.06C232.93 199.734 232.666 199.47 232.34 199.47C232.014 199.47 231.75 199.734 231.75 200.06V208.29C231.75 208.616 232.014 208.88 232.34 208.88C232.666 208.88 232.93 208.616 232.93 208.29V200.06Z" fill="#FAB65D"/>
<path d="M230.18 208.87C230.5 208.87 230.77 208.61 230.77 208.28V200.05C230.77 199.73 230.51 199.46 230.18 199.46C229.86 199.46 229.59 199.72 229.59 200.05V208.28C229.59 208.6 229.85 208.87 230.18 208.87Z" fill="#FAB65D"/>
<path d="M228.03 208.87C228.35 208.87 228.62 208.61 228.62 208.28V200.05C228.62 199.73 228.36 199.46 228.03 199.46C227.71 199.46 227.44 199.72 227.44 200.05V208.28C227.44 208.6 227.7 208.87 228.03 208.87Z" fill="#FAB65D"/>
<path d="M225.87 208.87C226.19 208.87 226.46 208.61 226.46 208.28V200.05C226.46 199.73 226.2 199.46 225.87 199.46C225.55 199.46 225.28 199.72 225.28 200.05V208.28C225.28 208.6 225.54 208.87 225.87 208.87Z" fill="#FAB65D"/>
<path d="M223.71 208.87C224.03 208.87 224.3 208.61 224.3 208.28V200.05C224.3 199.73 224.04 199.46 223.71 199.46C223.39 199.46 223.12 199.72 223.12 200.05V208.28C223.12 208.6 223.38 208.87 223.71 208.87Z" fill="#FAB65D"/>
<path d="M221.56 208.87C221.88 208.87 222.15 208.61 222.15 208.28V200.05C222.15 199.73 221.89 199.46 221.56 199.46C221.24 199.46 220.97 199.72 220.97 200.05V208.28C220.97 208.6 221.23 208.87 221.56 208.87Z" fill="#FAB65D"/>
<path d="M219.4 208.87C219.72 208.87 219.99 208.61 219.99 208.28V200.05C219.99 199.73 219.73 199.46 219.4 199.46C219.08 199.46 218.81 199.72 218.81 200.05V208.28C218.81 208.6 219.07 208.87 219.4 208.87Z" fill="#DB7709"/>
<path d="M217.25 208.87C217.57 208.87 217.84 208.61 217.84 208.28V200.05C217.84 199.73 217.58 199.46 217.25 199.46C216.93 199.46 216.66 199.72 216.66 200.05V208.28C216.66 208.6 216.92 208.87 217.25 208.87Z" fill="#DB7709"/>
<path d="M215.09 208.87C215.41 208.87 215.68 208.61 215.68 208.28V200.05C215.68 199.73 215.42 199.46 215.09 199.46C214.77 199.46 214.5 199.72 214.5 200.05V208.28C214.5 208.6 214.76 208.87 215.09 208.87Z" fill="#DB7709"/>
<path d="M212.94 208.87C213.26 208.87 213.53 208.61 213.53 208.28V200.05C213.53 199.73 213.27 199.46 212.94 199.46C212.62 199.46 212.35 199.72 212.35 200.05V208.28C212.35 208.6 212.61 208.87 212.94 208.87Z" fill="#FAB65D"/>
<path d="M210.78 208.87C211.1 208.87 211.37 208.61 211.37 208.28V200.05C211.37 199.73 211.11 199.46 210.78 199.46C210.46 199.46 210.19 199.72 210.19 200.05V208.28C210.19 208.6 210.45 208.87 210.78 208.87Z" fill="#FAB65D"/>
<path d="M208.63 208.87C208.95 208.87 209.22 208.61 209.22 208.28V200.05C209.22 199.73 208.96 199.46 208.63 199.46C208.31 199.46 208.04 199.72 208.04 200.05V208.28C208.04 208.6 208.3 208.87 208.63 208.87Z" fill="#FAB65D"/>
<path d="M206.47 208.87C206.79 208.87 207.06 208.61 207.06 208.28V200.05C207.06 199.73 206.8 199.46 206.47 199.46C206.15 199.46 205.88 199.72 205.88 200.05V208.28C205.88 208.6 206.14 208.87 206.47 208.87Z" fill="#FAB65D"/>
<path d="M204.31 208.87C204.63 208.87 204.9 208.61 204.9 208.28V200.05C204.9 199.73 204.64 199.46 204.31 199.46C203.99 199.46 203.72 199.72 203.72 200.05V208.28C203.72 208.6 203.98 208.87 204.31 208.87Z" fill="#FAB65D"/>
<path d="M202.16 208.87C202.48 208.87 202.75 208.61 202.75 208.28V200.05C202.75 199.73 202.49 199.46 202.16 199.46C201.84 199.46 201.57 199.72 201.57 200.05V208.28C201.57 208.6 201.83 208.87 202.16 208.87Z" fill="#FAB65D"/>
<path d="M200 208.87C200.32 208.87 200.59 208.61 200.59 208.28V200.05C200.59 199.73 200.33 199.46 200 199.46C199.68 199.46 199.41 199.72 199.41 200.05V208.28C199.41 208.6 199.67 208.87 200 208.87Z" fill="#FAB65D"/>
<path d="M197.85 208.87C198.17 208.87 198.44 208.61 198.44 208.28V200.05C198.44 199.73 198.18 199.46 197.85 199.46C197.53 199.46 197.26 199.72 197.26 200.05V208.28C197.26 208.6 197.52 208.87 197.85 208.87Z" fill="#FAB65D"/>
<path d="M195.69 208.87C196.01 208.87 196.28 208.61 196.28 208.28V200.05C196.28 199.73 196.02 199.46 195.69 199.46C195.37 199.46 195.1 199.72 195.1 200.05V208.28C195.1 208.6 195.36 208.87 195.69 208.87Z" fill="#FAB65D"/>
<path d="M193.54 208.87C193.86 208.87 194.13 208.61 194.13 208.28V200.05C194.13 199.73 193.87 199.46 193.54 199.46C193.22 199.46 192.95 199.72 192.95 200.05V208.28C192.95 208.6 193.21 208.87 193.54 208.87Z" fill="#FAB65D"/>
<path d="M191.38 208.87C191.7 208.87 191.97 208.61 191.97 208.28V200.05C191.97 199.73 191.71 199.46 191.38 199.46C191.06 199.46 190.79 199.72 190.79 200.05V208.28C190.79 208.6 191.05 208.87 191.38 208.87Z" fill="#FAB65D"/>
<path d="M258.03 186.61H201.5C200.832 186.61 200.29 187.152 200.29 187.82V197C200.29 197.669 200.832 198.21 201.5 198.21H258.03C258.698 198.21 259.24 197.669 259.24 197V187.82C259.24 187.152 258.698 186.61 258.03 186.61Z" fill="#F9A63A"/>
<path d="M257.96 197.27C258.28 197.27 258.55 197.01 258.55 196.68V188.45C258.55 188.13 258.29 187.86 257.96 187.86C257.64 187.86 257.37 188.12 257.37 188.45V196.68C257.37 197 257.63 197.27 257.96 197.27Z" fill="#FAB65D"/>
<path d="M255.81 197.27C256.13 197.27 256.4 197.01 256.4 196.68V188.45C256.4 188.13 256.14 187.86 255.81 187.86C255.49 187.86 255.22 188.12 255.22 188.45V196.68C255.22 197 255.48 197.27 255.81 197.27Z" fill="#FAB65D"/>
<path d="M253.65 197.27C253.97 197.27 254.24 197.01 254.24 196.68V188.45C254.24 188.13 253.98 187.86 253.65 187.86C253.33 187.86 253.06 188.12 253.06 188.45V196.68C253.06 197 253.32 197.27 253.65 197.27Z" fill="#FDD7A4"/>
<path d="M251.49 197.27C251.81 197.27 252.08 197.01 252.08 196.68V188.45C252.08 188.13 251.82 187.86 251.49 187.86C251.17 187.86 250.9 188.12 250.9 188.45V196.68C250.9 197 251.16 197.27 251.49 197.27Z" fill="#FAB65D"/>
<path d="M249.34 197.27C249.66 197.27 249.93 197.01 249.93 196.68V188.45C249.93 188.13 249.67 187.86 249.34 187.86C249.02 187.86 248.75 188.12 248.75 188.45V196.68C248.75 197 249.01 197.27 249.34 197.27Z" fill="#FAB65D"/>
<path d="M247.18 197.27C247.5 197.27 247.77 197.01 247.77 196.68V188.45C247.77 188.13 247.51 187.86 247.18 187.86C246.86 187.86 246.59 188.12 246.59 188.45V196.68C246.59 197 246.85 197.27 247.18 197.27Z" fill="#FAB65D"/>
<path d="M245.03 197.27C245.35 197.27 245.62 197.01 245.62 196.68V188.45C245.62 188.13 245.36 187.86 245.03 187.86C244.71 187.86 244.44 188.12 244.44 188.45V196.68C244.44 197 244.7 197.27 245.03 197.27Z" fill="#FAB65D"/>
<path d="M242.87 197.27C243.19 197.27 243.46 197.01 243.46 196.68V188.45C243.46 188.13 243.2 187.86 242.87 187.86C242.55 187.86 242.28 188.12 242.28 188.45V196.68C242.28 197 242.54 197.27 242.87 197.27Z" fill="#FAB65D"/>
<path d="M240.72 197.27C241.04 197.27 241.31 197.01 241.31 196.68V188.45C241.31 188.13 241.05 187.86 240.72 187.86C240.4 187.86 240.13 188.12 240.13 188.45V196.68C240.13 197 240.39 197.27 240.72 197.27Z" fill="#FAB65D"/>
<path d="M238.56 197.27C238.88 197.27 239.15 197.01 239.15 196.68V188.45C239.15 188.13 238.89 187.86 238.56 187.86C238.24 187.86 237.97 188.12 237.97 188.45V196.68C237.97 197 238.23 197.27 238.56 197.27Z" fill="#FAB65D"/>
<path d="M236.4 197.27C236.72 197.27 236.99 197.01 236.99 196.68V188.45C236.99 188.13 236.73 187.86 236.4 187.86C236.08 187.86 235.81 188.12 235.81 188.45V196.68C235.81 197 236.07 197.27 236.4 197.27Z" fill="#FAB65D"/>
<path d="M234.25 197.27C234.57 197.27 234.84 197.01 234.84 196.68V188.45C234.84 188.13 234.58 187.86 234.25 187.86C233.93 187.86 233.66 188.12 233.66 188.45V196.68C233.66 197 233.92 197.27 234.25 197.27Z" fill="#FAB65D"/>
<path d="M232.09 197.27C232.41 197.27 232.68 197.01 232.68 196.68V188.45C232.68 188.13 232.42 187.86 232.09 187.86C231.77 187.86 231.5 188.12 231.5 188.45V196.68C231.5 197 231.76 197.27 232.09 197.27Z" fill="#FAB65D"/>
<path d="M229.94 197.27C230.26 197.27 230.53 197.01 230.53 196.68V188.45C230.53 188.13 230.27 187.86 229.94 187.86C229.62 187.86 229.35 188.12 229.35 188.45V196.68C229.35 197 229.61 197.27 229.94 197.27Z" fill="#FAB65D"/>
<path d="M227.78 197.27C228.1 197.27 228.37 197.01 228.37 196.68V188.45C228.37 188.13 228.11 187.86 227.78 187.86C227.46 187.86 227.19 188.12 227.19 188.45V196.68C227.19 197 227.45 197.27 227.78 197.27Z" fill="#DB7709"/>
<path d="M225.63 197.27C225.95 197.27 226.22 197.01 226.22 196.68V188.45C226.22 188.13 225.96 187.86 225.63 187.86C225.31 187.86 225.04 188.12 225.04 188.45V196.68C225.04 197 225.3 197.27 225.63 197.27Z" fill="#DB7709"/>
<path d="M223.47 197.27C223.79 197.27 224.06 197.01 224.06 196.68V188.45C224.06 188.13 223.8 187.86 223.47 187.86C223.15 187.86 222.88 188.12 222.88 188.45V196.68C222.88 197 223.14 197.27 223.47 197.27Z" fill="#DB7709"/>
<path d="M221.31 197.27C221.63 197.27 221.9 197.01 221.9 196.68V188.45C221.9 188.13 221.64 187.86 221.31 187.86C220.99 187.86 220.72 188.12 220.72 188.45V196.68C220.72 197 220.98 197.27 221.31 197.27Z" fill="#FAB65D"/>
<path d="M219.16 197.27C219.48 197.27 219.75 197.01 219.75 196.68V188.45C219.75 188.13 219.49 187.86 219.16 187.86C218.84 187.86 218.57 188.12 218.57 188.45V196.68C218.57 197 218.83 197.27 219.16 197.27Z" fill="#FAB65D"/>
<path d="M217 197.27C217.32 197.27 217.59 197.01 217.59 196.68V188.45C217.59 188.13 217.33 187.86 217 187.86C216.68 187.86 216.41 188.12 216.41 188.45V196.68C216.41 197 216.67 197.27 217 197.27Z" fill="#FAB65D"/>
<path d="M214.85 197.27C215.17 197.27 215.44 197.01 215.44 196.68V188.45C215.44 188.13 215.18 187.86 214.85 187.86C214.53 187.86 214.26 188.12 214.26 188.45V196.68C214.26 197 214.52 197.27 214.85 197.27Z" fill="#FAB65D"/>
<path d="M212.69 197.27C213.01 197.27 213.28 197.01 213.28 196.68V188.45C213.28 188.13 213.02 187.86 212.69 187.86C212.37 187.86 212.1 188.12 212.1 188.45V196.68C212.1 197 212.36 197.27 212.69 197.27Z" fill="#FAB65D"/>
<path d="M210.54 197.27C210.86 197.27 211.13 197.01 211.13 196.68V188.45C211.13 188.13 210.87 187.86 210.54 187.86C210.22 187.86 209.95 188.12 209.95 188.45V196.68C209.95 197 210.21 197.27 210.54 197.27Z" fill="#FAB65D"/>
<path d="M208.38 197.27C208.7 197.27 208.97 197.01 208.97 196.68V188.45C208.97 188.13 208.71 187.86 208.38 187.86C208.06 187.86 207.79 188.12 207.79 188.45V196.68C207.79 197 208.05 197.27 208.38 197.27Z" fill="#FAB65D"/>
<path d="M206.22 197.27C206.54 197.27 206.81 197.01 206.81 196.68V188.45C206.81 188.13 206.55 187.86 206.22 187.86C205.9 187.86 205.63 188.12 205.63 188.45V196.68C205.63 197 205.89 197.27 206.22 197.27Z" fill="#FAB65D"/>
<path d="M204.07 197.27C204.39 197.27 204.66 197.01 204.66 196.68V188.45C204.66 188.13 204.4 187.86 204.07 187.86C203.75 187.86 203.48 188.12 203.48 188.45V196.68C203.48 197 203.74 197.27 204.07 197.27Z" fill="#FAB65D"/>
<path d="M201.91 197.27C202.23 197.27 202.5 197.01 202.5 196.68V188.45C202.5 188.13 202.24 187.86 201.91 187.86C201.59 187.86 201.32 188.12 201.32 188.45V196.68C201.32 197 201.58 197.27 201.91 197.27Z" fill="#FAB65D"/>
<path d="M199.76 197.27C200.08 197.27 200.35 197.01 200.35 196.68V188.45C200.35 188.13 200.09 187.86 199.76 187.86C199.44 187.86 199.17 188.12 199.17 188.45V196.68C199.17 197 199.43 197.27 199.76 197.27Z" fill="#FAB65D"/>
<path d="M254.59 175.01H198.06C197.392 175.01 196.85 175.552 196.85 176.22V185.4C196.85 186.069 197.392 186.61 198.06 186.61H254.59C255.258 186.61 255.8 186.069 255.8 185.4V176.22C255.8 175.552 255.258 175.01 254.59 175.01Z" fill="#F89516"/>
<path d="M254.52 185.67C254.84 185.67 255.11 185.41 255.11 185.08V176.85C255.11 176.53 254.85 176.26 254.52 176.26C254.2 176.26 253.93 176.52 253.93 176.85V185.08C253.93 185.4 254.19 185.67 254.52 185.67Z" fill="#FAB65D"/>
<path d="M252.37 185.67C252.69 185.67 252.96 185.41 252.96 185.08V176.85C252.96 176.53 252.7 176.26 252.37 176.26C252.05 176.26 251.78 176.52 251.78 176.85V185.08C251.78 185.4 252.04 185.67 252.37 185.67Z" fill="#FAB65D"/>
<path d="M250.21 185.67C250.53 185.67 250.8 185.41 250.8 185.08V176.85C250.8 176.53 250.54 176.26 250.21 176.26C249.89 176.26 249.62 176.52 249.62 176.85V185.08C249.62 185.4 249.88 185.67 250.21 185.67Z" fill="#FDD7A4"/>
<path d="M248.06 185.67C248.38 185.67 248.65 185.41 248.65 185.08V176.85C248.65 176.53 248.39 176.26 248.06 176.26C247.74 176.26 247.47 176.52 247.47 176.85V185.08C247.47 185.4 247.73 185.67 248.06 185.67Z" fill="#FAB65D"/>
<path d="M245.9 185.67C246.22 185.67 246.49 185.41 246.49 185.08V176.85C246.49 176.53 246.23 176.26 245.9 176.26C245.58 176.26 245.31 176.52 245.31 176.85V185.08C245.31 185.4 245.57 185.67 245.9 185.67Z" fill="#FAB65D"/>
<path d="M243.74 185.67C244.06 185.67 244.33 185.41 244.33 185.08V176.85C244.33 176.53 244.07 176.26 243.74 176.26C243.42 176.26 243.15 176.52 243.15 176.85V185.08C243.15 185.4 243.41 185.67 243.74 185.67Z" fill="#FAB65D"/>
<path d="M241.59 185.67C241.91 185.67 242.18 185.41 242.18 185.08V176.85C242.18 176.53 241.92 176.26 241.59 176.26C241.27 176.26 241 176.52 241 176.85V185.08C241 185.4 241.26 185.67 241.59 185.67Z" fill="#FAB65D"/>
<path d="M239.43 185.67C239.75 185.67 240.02 185.41 240.02 185.08V176.85C240.02 176.53 239.76 176.26 239.43 176.26C239.11 176.26 238.84 176.52 238.84 176.85V185.08C238.84 185.4 239.1 185.67 239.43 185.67Z" fill="#FAB65D"/>
<path d="M237.28 185.67C237.6 185.67 237.87 185.41 237.87 185.08V176.85C237.87 176.53 237.61 176.26 237.28 176.26C236.96 176.26 236.69 176.52 236.69 176.85V185.08C236.69 185.4 236.95 185.67 237.28 185.67Z" fill="#FAB65D"/>
<path d="M235.12 185.67C235.44 185.67 235.71 185.41 235.71 185.08V176.85C235.71 176.53 235.45 176.26 235.12 176.26C234.8 176.26 234.53 176.52 234.53 176.85V185.08C234.53 185.4 234.79 185.67 235.12 185.67Z" fill="#FAB65D"/>
<path d="M232.97 185.67C233.29 185.67 233.56 185.41 233.56 185.08V176.85C233.56 176.53 233.3 176.26 232.97 176.26C232.65 176.26 232.38 176.52 232.38 176.85V185.08C232.38 185.4 232.64 185.67 232.97 185.67Z" fill="#FAB65D"/>
<path d="M230.81 185.67C231.13 185.67 231.4 185.41 231.4 185.08V176.85C231.4 176.53 231.14 176.26 230.81 176.26C230.49 176.26 230.22 176.52 230.22 176.85V185.08C230.22 185.4 230.48 185.67 230.81 185.67Z" fill="#FAB65D"/>
<path d="M228.65 185.67C228.97 185.67 229.24 185.41 229.24 185.08V176.85C229.24 176.53 228.98 176.26 228.65 176.26C228.33 176.26 228.06 176.52 228.06 176.85V185.08C228.06 185.4 228.32 185.67 228.65 185.67Z" fill="#FAB65D"/>
<path d="M227.09 176.85C227.09 176.524 226.826 176.26 226.5 176.26C226.174 176.26 225.91 176.524 225.91 176.85V185.08C225.91 185.406 226.174 185.67 226.5 185.67C226.826 185.67 227.09 185.406 227.09 185.08V176.85Z" fill="#FAB65D"/>
<path d="M224.34 185.67C224.66 185.67 224.93 185.41 224.93 185.08V176.85C224.93 176.53 224.67 176.26 224.34 176.26C224.02 176.26 223.75 176.52 223.75 176.85V185.08C223.75 185.4 224.01 185.67 224.34 185.67Z" fill="#DB7709"/>
<path d="M222.19 185.67C222.51 185.67 222.78 185.41 222.78 185.08V176.85C222.78 176.53 222.52 176.26 222.19 176.26C221.87 176.26 221.6 176.52 221.6 176.85V185.08C221.6 185.4 221.86 185.67 222.19 185.67Z" fill="#DB7709"/>
<path d="M220.03 185.67C220.35 185.67 220.62 185.41 220.62 185.08V176.85C220.62 176.53 220.36 176.26 220.03 176.26C219.71 176.26 219.44 176.52 219.44 176.85V185.08C219.44 185.4 219.7 185.67 220.03 185.67Z" fill="#DB7709"/>
<path d="M217.88 185.67C218.2 185.67 218.47 185.41 218.47 185.08V176.85C218.47 176.53 218.21 176.26 217.88 176.26C217.56 176.26 217.29 176.52 217.29 176.85V185.08C217.29 185.4 217.55 185.67 217.88 185.67Z" fill="#FAB65D"/>
<path d="M215.72 185.67C216.04 185.67 216.31 185.41 216.31 185.08V176.85C216.31 176.53 216.05 176.26 215.72 176.26C215.4 176.26 215.13 176.52 215.13 176.85V185.08C215.13 185.4 215.39 185.67 215.72 185.67Z" fill="#FAB65D"/>
<path d="M213.57 185.67C213.89 185.67 214.16 185.41 214.16 185.08V176.85C214.16 176.53 213.9 176.26 213.57 176.26C213.25 176.26 212.98 176.52 212.98 176.85V185.08C212.98 185.4 213.24 185.67 213.57 185.67Z" fill="#FAB65D"/>
<path d="M211.41 185.67C211.73 185.67 212 185.41 212 185.08V176.85C212 176.53 211.74 176.26 211.41 176.26C211.09 176.26 210.82 176.52 210.82 176.85V185.08C210.82 185.4 211.08 185.67 211.41 185.67Z" fill="#FAB65D"/>
<path d="M209.25 185.67C209.57 185.67 209.84 185.41 209.84 185.08V176.85C209.84 176.53 209.58 176.26 209.25 176.26C208.93 176.26 208.66 176.52 208.66 176.85V185.08C208.66 185.4 208.92 185.67 209.25 185.67Z" fill="#FAB65D"/>
<path d="M207.1 185.67C207.42 185.67 207.69 185.41 207.69 185.08V176.85C207.69 176.53 207.43 176.26 207.1 176.26C206.78 176.26 206.51 176.52 206.51 176.85V185.08C206.51 185.4 206.77 185.67 207.1 185.67Z" fill="#FAB65D"/>
<path d="M204.94 185.67C205.26 185.67 205.53 185.41 205.53 185.08V176.85C205.53 176.53 205.27 176.26 204.94 176.26C204.62 176.26 204.35 176.52 204.35 176.85V185.08C204.35 185.4 204.61 185.67 204.94 185.67Z" fill="#FAB65D"/>
<path d="M202.79 185.67C203.11 185.67 203.38 185.41 203.38 185.08V176.85C203.38 176.53 203.12 176.26 202.79 176.26C202.47 176.26 202.2 176.52 202.2 176.85V185.08C202.2 185.4 202.46 185.67 202.79 185.67Z" fill="#FAB65D"/>
<path d="M200.63 185.67C200.95 185.67 201.22 185.41 201.22 185.08V176.85C201.22 176.53 200.96 176.26 200.63 176.26C200.31 176.26 200.04 176.52 200.04 176.85V185.08C200.04 185.4 200.3 185.67 200.63 185.67Z" fill="#FAB65D"/>
<path d="M198.48 185.67C198.8 185.67 199.07 185.41 199.07 185.08V176.85C199.07 176.53 198.81 176.26 198.48 176.26C198.16 176.26 197.89 176.52 197.89 176.85V185.08C197.89 185.4 198.15 185.67 198.48 185.67Z" fill="#FAB65D"/>
<path d="M196.32 185.67C196.64 185.67 196.91 185.41 196.91 185.08V176.85C196.91 176.53 196.65 176.26 196.32 176.26C196 176.26 195.73 176.52 195.73 176.85V185.08C195.73 185.4 195.99 185.67 196.32 185.67Z" fill="#FAB65D"/>
<path d="M244.1 163.41H187.57C186.902 163.41 186.36 163.952 186.36 164.62V173.8C186.36 174.468 186.902 175.01 187.57 175.01H244.1C244.768 175.01 245.31 174.468 245.31 173.8V164.62C245.31 163.952 244.768 163.41 244.1 163.41Z" fill="#F9A63A"/>
<path d="M244.04 174.07C244.36 174.07 244.63 173.81 244.63 173.48V165.25C244.63 164.93 244.37 164.66 244.04 164.66C243.72 164.66 243.45 164.92 243.45 165.25V173.48C243.45 173.8 243.71 174.07 244.04 174.07Z" fill="#FAB65D"/>
<path d="M241.88 174.07C242.2 174.07 242.47 173.81 242.47 173.48V165.25C242.47 164.93 242.21 164.66 241.88 164.66C241.56 164.66 241.29 164.92 241.29 165.25V173.48C241.29 173.8 241.55 174.07 241.88 174.07Z" fill="#FAB65D"/>
<path d="M239.73 174.07C240.05 174.07 240.32 173.81 240.32 173.48V165.25C240.32 164.93 240.06 164.66 239.73 164.66C239.41 164.66 239.14 164.92 239.14 165.25V173.48C239.14 173.8 239.4 174.07 239.73 174.07Z" fill="#FDD7A4"/>
<path d="M237.57 174.07C237.89 174.07 238.16 173.81 238.16 173.48V165.25C238.16 164.93 237.9 164.66 237.57 164.66C237.25 164.66 236.98 164.92 236.98 165.25V173.48C236.98 173.8 237.24 174.07 237.57 174.07Z" fill="#FAB65D"/>
<path d="M235.42 174.07C235.74 174.07 236.01 173.81 236.01 173.48V165.25C236.01 164.93 235.75 164.66 235.42 164.66C235.1 164.66 234.83 164.92 234.83 165.25V173.48C234.83 173.8 235.09 174.07 235.42 174.07Z" fill="#FAB65D"/>
<path d="M233.26 174.07C233.58 174.07 233.85 173.81 233.85 173.48V165.25C233.85 164.93 233.59 164.66 233.26 164.66C232.94 164.66 232.67 164.92 232.67 165.25V173.48C232.67 173.8 232.93 174.07 233.26 174.07Z" fill="#FAB65D"/>
<path d="M231.1 174.07C231.42 174.07 231.69 173.81 231.69 173.48V165.25C231.69 164.93 231.43 164.66 231.1 164.66C230.78 164.66 230.51 164.92 230.51 165.25V173.48C230.51 173.8 230.77 174.07 231.1 174.07Z" fill="#FAB65D"/>
<path d="M228.95 174.07C229.27 174.07 229.54 173.81 229.54 173.48V165.25C229.54 164.93 229.28 164.66 228.95 164.66C228.63 164.66 228.36 164.92 228.36 165.25V173.48C228.36 173.8 228.62 174.07 228.95 174.07Z" fill="#FAB65D"/>
<path d="M226.79 174.07C227.11 174.07 227.38 173.81 227.38 173.48V165.25C227.38 164.93 227.12 164.66 226.79 164.66C226.47 164.66 226.2 164.92 226.2 165.25V173.48C226.2 173.8 226.46 174.07 226.79 174.07Z" fill="#FAB65D"/>
<path d="M224.64 174.07C224.96 174.07 225.23 173.81 225.23 173.48V165.25C225.23 164.93 224.97 164.66 224.64 164.66C224.32 164.66 224.05 164.92 224.05 165.25V173.48C224.05 173.8 224.31 174.07 224.64 174.07Z" fill="#FAB65D"/>
<path d="M222.48 174.07C222.8 174.07 223.07 173.81 223.07 173.48V165.25C223.07 164.93 222.81 164.66 222.48 164.66C222.16 164.66 221.89 164.92 221.89 165.25V173.48C221.89 173.8 222.15 174.07 222.48 174.07Z" fill="#FAB65D"/>
<path d="M220.33 174.07C220.65 174.07 220.92 173.81 220.92 173.48V165.25C220.92 164.93 220.66 164.66 220.33 164.66C220.01 164.66 219.74 164.92 219.74 165.25V173.48C219.74 173.8 220 174.07 220.33 174.07Z" fill="#FAB65D"/>
<path d="M218.17 174.07C218.49 174.07 218.76 173.81 218.76 173.48V165.25C218.76 164.93 218.5 164.66 218.17 164.66C217.85 164.66 217.58 164.92 217.58 165.25V173.48C217.58 173.8 217.84 174.07 218.17 174.07Z" fill="#FAB65D"/>
<path d="M216.01 174.07C216.33 174.07 216.6 173.81 216.6 173.48V165.25C216.6 164.93 216.34 164.66 216.01 164.66C215.69 164.66 215.42 164.92 215.42 165.25V173.48C215.42 173.8 215.68 174.07 216.01 174.07Z" fill="#FAB65D"/>
<path d="M213.86 174.07C214.18 174.07 214.45 173.81 214.45 173.48V165.25C214.45 164.93 214.19 164.66 213.86 164.66C213.54 164.66 213.27 164.92 213.27 165.25V173.48C213.27 173.8 213.53 174.07 213.86 174.07Z" fill="#DB7709"/>
<path d="M211.7 174.07C212.02 174.07 212.29 173.81 212.29 173.48V165.25C212.29 164.93 212.03 164.66 211.7 164.66C211.38 164.66 211.11 164.92 211.11 165.25V173.48C211.11 173.8 211.37 174.07 211.7 174.07Z" fill="#DB7709"/>
<path d="M209.55 174.07C209.87 174.07 210.14 173.81 210.14 173.48V165.25C210.14 164.93 209.88 164.66 209.55 164.66C209.23 164.66 208.96 164.92 208.96 165.25V173.48C208.96 173.8 209.22 174.07 209.55 174.07Z" fill="#DB7709"/>
<path d="M207.39 174.07C207.71 174.07 207.98 173.81 207.98 173.48V165.25C207.98 164.93 207.72 164.66 207.39 164.66C207.07 164.66 206.8 164.92 206.8 165.25V173.48C206.8 173.8 207.06 174.07 207.39 174.07Z" fill="#FAB65D"/>
<path d="M205.24 174.07C205.56 174.07 205.83 173.81 205.83 173.48V165.25C205.83 164.93 205.57 164.66 205.24 164.66C204.92 164.66 204.65 164.92 204.65 165.25V173.48C204.65 173.8 204.91 174.07 205.24 174.07Z" fill="#FAB65D"/>
<path d="M203.08 174.07C203.4 174.07 203.67 173.81 203.67 173.48V165.25C203.67 164.93 203.41 164.66 203.08 164.66C202.76 164.66 202.49 164.92 202.49 165.25V173.48C202.49 173.8 202.75 174.07 203.08 174.07Z" fill="#FAB65D"/>
<path d="M200.92 174.07C201.24 174.07 201.51 173.81 201.51 173.48V165.25C201.51 164.93 201.25 164.66 200.92 164.66C200.6 164.66 200.33 164.92 200.33 165.25V173.48C200.33 173.8 200.59 174.07 200.92 174.07Z" fill="#FAB65D"/>
<path d="M198.77 174.07C199.09 174.07 199.36 173.81 199.36 173.48V165.25C199.36 164.93 199.1 164.66 198.77 164.66C198.45 164.66 198.18 164.92 198.18 165.25V173.48C198.18 173.8 198.44 174.07 198.77 174.07Z" fill="#FAB65D"/>
<path d="M196.61 174.07C196.93 174.07 197.2 173.81 197.2 173.48V165.25C197.2 164.93 196.94 164.66 196.61 164.66C196.29 164.66 196.02 164.92 196.02 165.25V173.48C196.02 173.8 196.28 174.07 196.61 174.07Z" fill="#FAB65D"/>
<path d="M194.46 174.07C194.78 174.07 195.05 173.81 195.05 173.48V165.25C195.05 164.93 194.79 164.66 194.46 164.66C194.14 164.66 193.87 164.92 193.87 165.25V173.48C193.87 173.8 194.13 174.07 194.46 174.07Z" fill="#FAB65D"/>
<path d="M192.3 174.07C192.62 174.07 192.89 173.81 192.89 173.48V165.25C192.89 164.93 192.63 164.66 192.3 164.66C191.98 164.66 191.71 164.92 191.71 165.25V173.48C191.71 173.8 191.97 174.07 192.3 174.07Z" fill="#FAB65D"/>
<path d="M190.15 174.07C190.47 174.07 190.74 173.81 190.74 173.48V165.25C190.74 164.93 190.48 164.66 190.15 164.66C189.83 164.66 189.56 164.92 189.56 165.25V173.48C189.56 173.8 189.82 174.07 190.15 174.07Z" fill="#FAB65D"/>
<path d="M187.99 174.07C188.31 174.07 188.58 173.81 188.58 173.48V165.25C188.58 164.93 188.32 164.66 187.99 164.66C187.67 164.66 187.4 164.92 187.4 165.25V173.48C187.4 173.8 187.66 174.07 187.99 174.07Z" fill="#FAB65D"/>
<path d="M185.84 174.07C186.16 174.07 186.43 173.81 186.43 173.48V165.25C186.43 164.93 186.17 164.66 185.84 164.66C185.52 164.66 185.25 164.92 185.25 165.25V173.48C185.25 173.8 185.51 174.07 185.84 174.07Z" fill="#FAB65D"/>
<g style="mix-blend-mode:multiply">
<path d="M125.8 256.31H116.42C105.63 256.31 96.8696 247.55 96.8696 236.76V34.1599C96.8696 23.3599 105.63 14.6099 116.42 14.6099H125.8C115.01 14.6099 106.25 23.3599 106.25 34.1599V236.77C106.25 247.56 115.01 256.32 125.8 256.32V256.31Z" fill="#CDD9FC"/>
</g>
<path d="M206.21 14.6099H125.8C115.003 14.6099 106.25 23.3627 106.25 34.1599V236.76C106.25 247.557 115.003 256.31 125.8 256.31H206.21C217.007 256.31 225.76 247.557 225.76 236.76V34.1599C225.76 23.3627 217.007 14.6099 206.21 14.6099Z" fill="#0540F2"/>
<path d="M225.77 34.1599V236.77C225.77 247.56 217.02 256.32 206.22 256.32H196.84C207.64 256.32 216.39 247.56 216.39 236.77V34.1599C216.39 23.3599 207.64 14.6099 196.84 14.6099H206.22C217.02 14.6099 225.77 23.3599 225.77 34.1599Z" fill="#0540F2"/>
<path d="M203.51 20.5H128.52C120.009 20.5 113.11 27.3993 113.11 35.91V235.01C113.11 243.521 120.009 250.42 128.52 250.42H203.51C212.021 250.42 218.92 243.521 218.92 235.01V35.91C218.92 27.3993 212.021 20.5 203.51 20.5Z" fill="white"/>
<path d="M182.06 239.64H146.16C145.823 239.64 145.55 239.913 145.55 240.25V240.48C145.55 240.817 145.823 241.09 146.16 241.09H182.06C182.397 241.09 182.67 240.817 182.67 240.48V240.25C182.67 239.913 182.397 239.64 182.06 239.64Z" fill="#DDE6E9"/>
<path d="M135.83 16.8301V20.1501C135.83 23.8601 138.83 26.8701 142.53 26.8701H189.49C193.19 26.8701 196.19 23.8601 196.19 20.1501V15.3901L135.83 16.8201V16.8301Z" fill="#0540F2"/>
<path d="M186.53 20.73C186.53 21.28 186.08 21.73 185.53 21.73C184.98 21.73 184.53 21.28 184.53 20.73C184.53 20.18 184.98 19.73 185.53 19.73C186.08 19.73 186.53 20.18 186.53 20.73Z" fill="#698CF7"/>
<path d="M175.28 21.73H156.58C156.03 21.73 155.58 21.28 155.58 20.73C155.58 20.18 156.03 19.73 156.58 19.73H175.28C175.83 19.73 176.28 20.18 176.28 20.73C176.28 21.28 175.83 21.73 175.28 21.73Z" fill="#698CF7"/>
<g style="mix-blend-mode:multiply">
<path d="M225.77 43.21V69.49H193.02C185.76 69.49 179.88 63.61 179.88 56.35C179.88 52.72 181.35 49.44 183.73 47.06C186.11 44.68 189.39 43.21 193.02 43.21H225.77Z" fill="#CDD9FC"/>
</g>
<path d="M270.02 59.9201H199.3C192.04 59.9201 186.16 54.0401 186.16 46.7801C186.16 39.5201 192.04 33.6401 199.3 33.6401H270.02C277.28 33.6401 283.16 39.5201 283.16 46.7801C283.16 54.0401 277.28 59.9201 270.02 59.9201Z" fill="#3766F5"/>
<path d="M199.23 47.0399C199.23 44.2199 201.51 41.9399 204.33 41.9399C207.15 41.9399 209.43 44.2199 209.43 47.0399C209.43 49.8599 207.15 52.1399 204.33 52.1399C201.51 52.1399 199.23 49.8599 199.23 47.0399Z" fill="#9BB3FA"/>
<path d="M218.89 47.0399C218.89 44.2199 221.17 41.9399 223.99 41.9399C226.81 41.9399 229.09 44.2199 229.09 47.0399C229.09 49.8599 226.81 52.1399 223.99 52.1399C221.17 52.1399 218.89 49.8599 218.89 47.0399Z" fill="#9BB3FA"/>
<path d="M238.55 47.0399C238.55 44.2199 240.83 41.9399 243.65 41.9399C246.47 41.9399 248.75 44.2199 248.75 47.0399C248.75 49.8599 246.47 52.1399 243.65 52.1399C240.83 52.1399 238.55 49.8599 238.55 47.0399Z" fill="#9BB3FA"/>
<path d="M258.2 47.0399C258.2 44.2199 260.48 41.9399 263.3 41.9399C266.12 41.9399 268.4 44.2199 268.4 47.0399C268.4 49.8599 266.12 52.1399 263.3 52.1399C260.48 52.1399 258.2 49.8599 258.2 47.0399Z" fill="#9BB3FA"/>
<path d="M198.59 78.6C195.74 80.56 190.44 82.82 182.24 81.01C173.77 79.15 169.69 74.29 167.85 71.05C167.55 70.52 167.01 70.25 166.48 70.26C165.96 70.26 165.45 70.53 165.16 71.05C164.82 71.66 164.39 72.32 163.88 73.01C163.19 73.93 162.34 74.9 161.29 75.84C160.76 76.31 160.19 76.78 159.56 77.23C157.36 78.8 154.49 80.19 150.79 81.01C149.25 81.35 147.82 81.54 146.48 81.63C146.03 81.66 145.6 81.67 145.18 81.67C144.36 81.67 143.59 81.64 142.86 81.56C142.07 81.48 141.32 81.36 140.62 81.21C139.94 81.06 139.31 80.89 138.71 80.69C137.82 80.4 137.02 80.05 136.31 79.69C136.07 79.57 135.85 79.45 135.63 79.33C135.2 79.08 134.8 78.83 134.44 78.59C134.17 78.4 133.87 78.31 133.57 78.3C133.28 78.29 132.99 78.36 132.73 78.5C132.48 78.64 132.25 78.84 132.1 79.09C131.94 79.34 131.85 79.64 131.85 79.97C131.85 80.8 131.87 81.76 131.9 82.82C131.92 83.53 131.94 84.28 131.97 85.07C132.01 86.26 132.07 87.54 132.15 88.9C132.44 93.87 133 99.81 134.05 105.79C134.15 106.33 134.25 106.88 134.35 107.42C135.39 112.86 136.87 118.25 138.94 122.9C139.35 123.83 139.79 124.73 140.26 125.59C142.11 129.03 143.92 132 145.78 134.6C146.71 135.9 147.65 137.1 148.62 138.23C150.56 140.48 152.59 142.4 154.82 144.1C155.93 144.95 157.1 145.74 158.32 146.5C159.54 147.25 160.83 147.96 162.19 148.64C163.55 149.32 164.98 149.96 166.49 150.59C166.5 150.59 166.51 150.59 166.52 150.6C172.59 148.09 177.3 145.28 181.42 141.38C185.54 137.48 189.07 132.49 192.78 125.59C200.21 111.77 201.12 88.84 201.19 79.96C201.19 78.63 199.7 77.83 198.6 78.59L198.59 78.6Z" fill="#F9A63A"/>
<path d="M166.51 145.48C165.74 145.14 165 144.79 164.28 144.43C163.02 143.8 161.87 143.17 160.77 142.49C159.66 141.81 158.64 141.11 157.66 140.36C155.68 138.85 153.88 137.15 152.17 135.16C151.3 134.15 150.43 133.04 149.59 131.86C147.89 129.48 146.19 126.7 144.39 123.36C143.99 122.61 143.6 121.81 143.23 120.98C141.49 117.09 140.06 112.23 138.96 106.53C138.86 106.01 138.76 105.49 138.67 104.96C137.79 99.9902 137.17 94.4902 136.83 88.6102C136.75 87.3202 136.7 86.1002 136.66 84.9602C136.85 85.0302 137.03 85.0902 137.22 85.1502C138 85.4102 138.81 85.6302 139.61 85.8002C140.49 85.9902 141.43 86.1402 142.38 86.2302C143.24 86.3202 144.13 86.3602 145.01 86.3602H145.2C145.7 86.3602 146.22 86.3402 146.75 86.3102C148.39 86.2102 150.08 85.9702 151.79 85.5902C155.76 84.7202 159.29 83.1902 162.28 81.0502C163.03 80.5202 163.75 79.9402 164.42 79.3402C165.16 78.6802 165.86 77.9602 166.51 77.2202C169.34 80.4402 173.96 84.0002 181.23 85.6002C183.55 86.1102 185.84 86.3702 188.01 86.3702C191.3 86.3702 194.08 85.7802 196.35 84.9702C195.97 94.7302 194.45 112.51 188.62 123.37C185.05 130.01 181.83 134.51 178.17 137.97C175.02 140.95 171.37 143.31 166.5 145.49L166.51 145.48Z" fill="#FCC781"/>
<path d="M172.61 104.68C172.61 101.04 169.66 98.0898 166.02 98.0898C162.38 98.0898 159.43 101.04 159.43 104.68C159.43 107.51 161.21 109.91 163.72 110.85L161.46 119.84C161.36 120.24 161.66 120.62 162.07 120.62H169.98C170.39 120.62 170.69 120.24 170.59 119.84L168.33 110.85C170.83 109.91 172.62 107.51 172.62 104.68H172.61Z" fill="#F89516"/>
<path d="M145.94 197.73C145.97 195.5 146.29 193.45 146.83 191.57C146.83 191.54 146.85 191.52 146.86 191.49C147 191.01 147.15 190.54 147.32 190.09" stroke="#3766F5" stroke-width="1.42" stroke-linecap="round" stroke-linejoin="round"/>
<path d="M185.71 197.87C185.71 196.68 185.61 195.53 185.44 194.44C184.56 188.55 181.55 184.12 177.63 181.24" stroke="#3766F5" stroke-width="1.42" stroke-linecap="round" stroke-linejoin="round"/>
<path d="M173.43 178.88C173.98 179.11 174.53 179.36 175.06 179.64" stroke="#3766F5" stroke-width="1.42" stroke-linecap="round" stroke-linejoin="round"/>
<path d="M149.06 186.56C152.82 180.52 159.43 177.35 165.79 177.35C167.19 177.35 168.6 177.5 169.98 177.8" stroke="#3766F5" stroke-width="1.42" stroke-linecap="round" stroke-linejoin="round"/>
<path d="M160.72 181.73C154.68 183.73 149.5 189.33 149.5 198.1C149.5 199.37 148.49 201.12 146.72 202.98" stroke="#3766F5" stroke-width="1.42" stroke-linecap="round" stroke-linejoin="round"/>
<path d="M179.84 188.96C181.28 191.45 182.15 194.5 182.15 198.09V198.16C182.15 203.17 181.16 207.69 179.56 211.72" stroke="#3766F5" stroke-width="1.42" stroke-linecap="round" stroke-linejoin="round"/>
<path d="M165.78 180.91C170.12 180.91 174.61 182.71 177.78 186.16" stroke="#3766F5" stroke-width="1.42" stroke-linecap="round" stroke-linejoin="round"/>
<path d="M153.13 196.55C153.08 197.06 153.06 197.57 153.06 198.11C153.06 201.25 150.51 204.37 148.16 206.58" stroke="#3766F5" stroke-width="1.42" stroke-linecap="round" stroke-linejoin="round"/>
<path d="M178.41 201.69C177.84 207.01 176.03 211.68 173.61 215.69" stroke="#3766F5" stroke-width="1.42" stroke-linecap="round" stroke-linejoin="round"/>
<path d="M154.3 191.97C156.49 187.06 161.24 184.47 165.79 184.47C171.93 184.47 178.14 188.82 178.58 197.14" stroke="#3766F5" stroke-width="1.42" stroke-linecap="round" stroke-linejoin="round"/>
<path d="M169.87 188.96C172.75 190.35 175.03 193.32 175.03 198.09V198.16C175.03 201.55 174.46 204.68 173.49 207.55" stroke="#3766F5" stroke-width="1.42" stroke-linecap="round" stroke-linejoin="round"/>
<path d="M165.78 188.03C161.23 188.03 156.62 191.49 156.62 198.11C156.62 202.62 153.39 206.67 150.11 209.62" stroke="#3766F5" stroke-width="1.42" stroke-linecap="round" stroke-linejoin="round"/>
<path d="M172.28 210.61C171.18 212.99 169.82 215.17 168.33 217.14" stroke="#3766F5" stroke-width="1.42" stroke-linecap="round" stroke-linejoin="round"/>
<path d="M156.63 207.76C155.4 209.43 153.98 210.92 152.54 212.22" stroke="#3766F5" stroke-width="1.42" stroke-linecap="round" stroke-linejoin="round"/>
<path d="M163.68 217.19C167.9 212.42 171.48 206.04 171.48 198.16V198.09C171.48 193.3 168.41 191.59 165.79 191.59C163.17 191.59 160.18 193.62 160.18 198.11C160.18 200.54 159.5 202.83 158.42 204.91" stroke="#3766F5" stroke-width="1.42" stroke-linecap="round" stroke-linejoin="round"/>
<path d="M159.62 216.32C168.02 207.82 167.91 200.06 167.91 198.08C167.91 195.86 166.99 195.14 165.77 195.14C164.55 195.14 163.72 196.12 163.72 198.08C163.72 199.87 163.76 206.59 155.42 214.38" stroke="#3766F5" stroke-width="1.42" stroke-linecap="round" stroke-linejoin="round"/>
</svg>
