<svg width="340" height="378" viewBox="0 0 340 378" fill="none" xmlns="http://www.w3.org/2000/svg">
<g clip-path="url(#clip0_1036_1332)">
<path d="M102.491 468.821V169.543C102.491 158.417 108.149 149.399 115.137 149.399H327.435V468.847L102.489 468.821H102.491Z" fill="#306BFF"/>
<path d="M193.061 295.866H139.143C137.303 295.866 135.827 297.338 135.827 299.171C135.827 301.005 137.303 302.477 139.143 302.477H193.088C194.927 302.477 196.404 301.005 196.404 299.171C196.377 297.338 194.901 295.866 193.061 295.866Z" fill="white"/>
<path d="M290.159 295.866H205.375C203.536 295.866 202.059 297.338 202.059 299.171C202.059 301.005 203.536 302.477 205.375 302.477H290.159C291.999 302.477 293.475 301.005 293.475 299.171C293.475 297.338 291.999 295.866 290.159 295.866Z" fill="#004DA7"/>
<path d="M212.451 314.5H139.145C137.306 314.5 135.829 315.971 135.829 317.805C135.829 319.639 137.306 321.111 139.145 321.111H212.451C214.29 321.111 215.767 319.639 215.767 317.805C215.767 315.971 214.264 314.5 212.451 314.5Z" fill="#004DA7"/>
<path d="M290.159 314.5H224.765C222.925 314.5 221.449 315.971 221.449 317.805C221.449 319.639 222.925 321.111 224.765 321.111H290.159C291.999 321.111 293.475 319.639 293.475 317.805C293.475 315.971 291.999 314.5 290.159 314.5Z" fill="white"/>
<path d="M253.013 333.107H139.145C137.306 333.107 135.829 334.579 135.829 336.413C135.829 338.247 137.306 339.718 139.145 339.718H253.013C254.853 339.718 256.33 338.247 256.33 336.413C256.303 334.579 254.826 333.107 253.013 333.107Z" fill="#004DA7"/>
<path d="M226.268 350.823H135.829V378.426H226.268V350.823Z" fill="#004DA7"/>
<path d="M292.973 350.823H238.024V378.426H292.973V350.823Z" fill="#004DA7"/>
<path opacity="0.5" d="M327.488 276.526H102.491V169.54C102.491 158.414 108.149 149.396 115.136 149.396H327.488V276.526Z" fill="white"/>
<path d="M113.34 149.37C120.223 149.37 125.803 158.286 125.803 169.228V239.564C125.803 250.69 131.461 259.707 138.449 259.707H206.112V149.343L113.34 149.37Z" fill="#2659D7"/>
<path d="M137.771 259.737H319.98C331.141 259.737 340.187 250.717 340.187 239.594V10.4919H157.691V239.876C157.691 250.844 148.774 259.734 137.771 259.734V259.737Z" fill="#306BFF"/>
<path d="M229.787 204.606H187.521C185.799 204.606 184.418 205.985 184.418 207.699C184.418 209.413 185.802 210.792 187.521 210.792H229.787C231.51 210.792 232.89 209.413 232.89 207.699C232.89 205.985 231.507 204.606 229.787 204.606Z" fill="#004DA7"/>
<path d="M312.443 204.606H241.311C239.589 204.606 238.208 205.985 238.208 207.699C238.208 209.413 239.592 210.792 241.311 210.792H312.443C314.165 210.792 315.546 209.413 315.546 207.699C315.546 205.985 314.138 204.606 312.443 204.606Z" fill="#004DA7"/>
<path d="M247.936 222.045H187.548C185.826 222.045 184.445 223.424 184.445 225.138C184.445 226.852 185.828 228.231 187.548 228.231H247.936C249.658 228.231 251.038 226.852 251.038 225.138C251.012 223.421 249.631 222.045 247.936 222.045Z" fill="#004DA7"/>
<path d="M229.787 98.9722H187.521C185.799 98.9722 184.418 100.351 184.418 102.065C184.418 103.779 185.802 105.158 187.521 105.158H229.787C231.51 105.158 232.89 103.779 232.89 102.065C232.89 100.351 231.507 98.9722 229.787 98.9722Z" fill="white"/>
<path d="M312.443 98.9722H241.311C239.589 98.9722 238.208 100.351 238.208 102.065C238.208 103.779 239.592 105.158 241.311 105.158H312.443C314.165 105.158 315.546 103.779 315.546 102.065C315.546 100.351 314.138 98.9722 312.443 98.9722Z" fill="#004DA7"/>
<path d="M247.936 116.411H187.548C185.826 116.411 184.445 117.79 184.445 119.504C184.445 121.218 185.828 122.597 187.548 122.597H247.936C249.658 122.597 251.038 121.218 251.038 119.504C251.012 117.787 249.631 116.411 247.936 116.411Z" fill="#004DA7"/>
<path d="M312.443 116.411H259.459C257.737 116.411 256.356 117.79 256.356 119.504C256.356 121.218 257.74 122.597 259.459 122.597H312.443C314.165 122.597 315.545 121.218 315.545 119.504C315.545 117.79 314.138 116.411 312.443 116.411Z" fill="white"/>
<path d="M315.548 31.5986H184.445V83.817H315.548V31.5986Z" fill="white"/>
<path d="M192.997 62.6599H201.498V64.7919H198.577V73.6045H195.891V64.7919H192.97V62.6599H192.997Z" fill="#306BFF"/>
<path d="M206.921 64.792C208.224 64.792 209.137 65.3909 209.607 66.1441V64.9224H212.293V73.6286H209.607V72.4069C209.11 73.1601 208.2 73.759 206.894 73.759C204.756 73.759 203.06 72.0183 203.06 69.2635C203.06 66.5087 204.782 64.792 206.918 64.792H206.921ZM207.703 67.1049C206.713 67.1049 205.799 67.8582 205.799 69.2369C205.799 70.6156 206.713 71.3955 207.703 71.3955C208.694 71.3955 209.607 70.6422 209.607 69.2369C209.607 67.8316 208.72 67.1049 207.703 67.1049Z" fill="#306BFF"/>
<path d="M218.499 71.1849L217.092 73.6016H214.197L217.065 69.1567L214.117 64.8928H217.116L218.784 67.283L220.191 64.8928H223.086L220.165 69.2845L223.163 73.599H220.165L218.496 71.1822L218.499 71.1849Z" fill="#306BFF"/>
<path d="M233.568 62.6599C236.254 62.6599 237.61 64.193 237.61 66.1174C237.61 67.4961 236.855 68.795 235.159 69.2874L237.688 73.6285H234.663L232.369 69.495H231.718V73.6285H229.085V62.6865H233.571V62.6599H233.568ZM233.41 64.8691H231.742V67.5733H233.41C234.401 67.5733 234.871 67.0542 234.871 66.1945C234.898 65.4147 234.428 64.8691 233.41 64.8691Z" fill="#306BFF"/>
<path d="M243.947 73.7321C241.391 73.7321 239.541 72.0154 239.541 69.2606C239.541 66.5058 241.367 64.7891 243.947 64.7891C246.526 64.7891 248.301 66.4792 248.301 69.1302C248.301 69.391 248.275 69.6492 248.248 69.91H242.198C242.302 71.0545 243.007 71.5735 243.866 71.5735C244.622 71.5735 245.039 71.2089 245.25 70.7404H248.09C247.674 72.4306 246.109 73.7295 243.944 73.7295L243.947 73.7321ZM242.2 68.4302H245.538C245.538 67.4693 244.782 66.9237 243.896 66.9237C243.009 66.9237 242.358 67.4427 242.2 68.4302Z" fill="#306BFF"/>
<path d="M254.325 64.7917C256.514 64.7917 258.052 65.9868 258.522 68.0682H255.681C255.473 67.4693 255.03 67.0807 254.298 67.0807C253.334 67.0807 252.683 67.834 252.683 69.2899C252.683 70.7458 253.334 71.499 254.298 71.499C255.027 71.499 255.446 71.1344 255.681 70.5116H258.522C258.079 72.5131 256.514 73.7854 254.325 73.7854C251.77 73.7854 249.943 72.0686 249.943 69.3138C249.943 66.5591 251.77 64.7917 254.325 64.7917Z" fill="#306BFF"/>
<path d="M264.596 73.7321C262.041 73.7321 260.191 72.0154 260.191 69.2606C260.191 66.5058 262.017 64.7891 264.596 64.7891C267.176 64.7891 268.951 66.4792 268.951 69.1302C268.951 69.391 268.925 69.6492 268.898 69.91H262.848C262.952 71.0545 263.657 71.5735 264.516 71.5735C265.272 71.5735 265.688 71.2089 265.899 70.7404H268.74C268.324 72.4306 266.759 73.7295 264.594 73.7295L264.596 73.7321ZM262.874 68.4302H266.212C266.212 67.4693 265.456 66.9237 264.57 66.9237C263.683 66.9237 263.032 67.4427 262.874 68.4302Z" fill="#306BFF"/>
<path d="M270.882 62.5826C270.882 61.7761 271.533 61.1267 272.473 61.1267C273.413 61.1267 274.064 61.7761 274.064 62.5826C274.064 63.3891 273.413 64.0119 272.473 64.0119C271.533 64.0119 270.882 63.3625 270.882 62.5826ZM271.143 64.9222H273.83V73.6283H271.143V64.9222Z" fill="#306BFF"/>
<path d="M281.884 64.7917C284.023 64.7917 285.743 66.5085 285.743 69.2633C285.743 72.0181 284.047 73.7587 281.884 73.7587C280.606 73.7587 279.668 73.1599 279.198 72.4067V77.7618H276.539V64.9222H279.225V66.1439C279.695 65.3906 280.608 64.7917 281.884 64.7917ZM281.102 67.1047C280.112 67.1047 279.198 67.8579 279.198 69.2633C279.198 70.6686 280.112 71.4218 281.102 71.4218C282.093 71.4218 283.033 70.642 283.033 69.2633C283.033 67.8846 282.119 67.1047 281.102 67.1047Z" fill="#306BFF"/>
<path d="M288.352 67.1314H287.284V64.9222H288.352V62.7903H291.038V64.9222H292.784V67.1314H291.038V70.6154C291.038 71.1345 291.246 71.3421 291.847 71.3421H292.811V73.6045H291.454C289.628 73.6045 288.378 72.8512 288.378 70.5888V67.1314H288.352Z" fill="#306BFF"/>
<path d="M188.57 138.394V153.485H207.21V138.394H188.57ZM203.968 149.897H191.812V141.981H203.968V149.897Z" fill="#004DA7"/>
<path d="M188.57 172.079V187.17H207.21V172.079H188.57ZM203.968 183.583H191.812V175.667H203.968V183.583Z" fill="#004DA7"/>
<path d="M257.849 138.394V153.485H276.489V138.394H257.849ZM273.247 149.897H261.091V141.981H273.247V149.897Z" fill="#004DA7"/>
<path d="M257.849 172.079V187.17H276.489V172.079H257.849ZM273.247 183.583H261.091V175.667H273.247V183.583Z" fill="#004DA7"/>
<path d="M221.978 139.929H213.217C212.769 139.929 212.408 140.289 212.408 140.736C212.408 141.183 212.769 141.542 213.217 141.542H221.986C222.434 141.542 222.795 141.183 222.795 140.736C222.787 140.289 222.429 139.929 221.98 139.929H221.978Z" fill="white"/>
<path d="M241.268 139.929H224.978C224.53 139.929 224.169 140.289 224.169 140.736C224.169 141.183 224.53 141.542 224.978 141.542H241.268C241.717 141.542 242.077 141.183 242.077 140.736C242.077 140.289 241.717 139.929 241.268 139.929Z" fill="#004DA7"/>
<path d="M226.706 144.473H213.217C212.769 144.473 212.408 144.832 212.408 145.279C212.408 145.726 212.769 146.086 213.217 146.086H226.706C227.155 146.086 227.515 145.726 227.515 145.279C227.515 144.832 227.149 144.473 226.706 144.473Z" fill="#004DA7"/>
<path d="M241.269 144.473H229.707C229.259 144.473 228.898 144.832 228.898 145.279C228.898 145.726 229.259 146.086 229.707 146.086H241.269C241.717 146.086 242.078 145.726 242.078 145.279C242.078 144.832 241.717 144.473 241.269 144.473Z" fill="white"/>
<path d="M232.209 149.011H213.217C212.769 149.011 212.408 149.37 212.408 149.817C212.408 150.264 212.769 150.624 213.217 150.624H232.209C232.658 150.624 233.018 150.264 233.018 149.817C233.01 149.37 232.652 149.011 232.209 149.011Z" fill="white"/>
<path d="M293.654 139.929H284.894C284.445 139.929 284.085 140.289 284.085 140.736C284.085 141.183 284.445 141.542 284.894 141.542H293.662C294.111 141.542 294.471 141.183 294.471 140.736C294.463 140.289 294.106 139.929 293.657 139.929H293.654Z" fill="white"/>
<path d="M312.947 139.929H296.658C296.209 139.929 295.849 140.289 295.849 140.736C295.849 141.183 296.209 141.542 296.658 141.542H312.947C313.396 141.542 313.756 141.183 313.756 140.736C313.756 140.289 313.396 139.929 312.947 139.929Z" fill="white"/>
<path d="M298.382 144.473H284.893C284.445 144.473 284.084 144.832 284.084 145.279C284.084 145.726 284.445 146.086 284.893 146.086H298.382C298.831 146.086 299.191 145.726 299.191 145.279C299.191 144.832 298.826 144.473 298.382 144.473Z" fill="#004DA7"/>
<path d="M312.947 144.473H301.386C300.938 144.473 300.577 144.832 300.577 145.279C300.577 145.726 300.938 146.086 301.386 146.086H312.947C313.396 146.086 313.756 145.726 313.756 145.279C313.756 144.832 313.396 144.473 312.947 144.473Z" fill="white"/>
<path d="M303.888 149.011H284.896C284.448 149.011 284.087 149.37 284.087 149.817C284.087 150.264 284.448 150.624 284.896 150.624H303.888C304.337 150.624 304.697 150.264 304.697 149.817C304.689 149.37 304.331 149.011 303.888 149.011Z" fill="white"/>
<path d="M221.978 174.277H213.217C212.769 174.277 212.408 174.637 212.408 175.084C212.408 175.531 212.769 175.89 213.217 175.89H221.986C222.434 175.89 222.795 175.531 222.795 175.084C222.787 174.637 222.429 174.277 221.98 174.277H221.978Z" fill="white"/>
<path d="M241.268 174.277H224.978C224.53 174.277 224.169 174.637 224.169 175.084C224.169 175.531 224.53 175.89 224.978 175.89H241.268C241.717 175.89 242.077 175.531 242.077 175.084C242.077 174.637 241.717 174.277 241.268 174.277Z" fill="white"/>
<path d="M226.706 178.823H213.217C212.769 178.823 212.408 179.183 212.408 179.63C212.408 180.077 212.769 180.436 213.217 180.436H226.706C227.155 180.436 227.515 180.077 227.515 179.63C227.515 179.183 227.149 178.823 226.706 178.823Z" fill="#004DA7"/>
<path d="M241.269 178.823H229.707C229.259 178.823 228.898 179.183 228.898 179.63C228.898 180.077 229.259 180.436 229.707 180.436H241.269C241.717 180.436 242.078 180.077 242.078 179.63C242.078 179.183 241.717 178.823 241.269 178.823Z" fill="white"/>
<path d="M232.209 183.361H213.217C212.769 183.361 212.408 183.721 212.408 184.168C212.408 184.615 212.769 184.974 213.217 184.974H232.209C232.658 184.974 233.018 184.615 233.018 184.168C233.01 183.721 232.652 183.361 232.209 183.361Z" fill="#004DA7"/>
<path d="M293.654 174.277H284.894C284.445 174.277 284.085 174.637 284.085 175.084C284.085 175.531 284.445 175.89 284.894 175.89H293.662C294.111 175.89 294.471 175.531 294.471 175.084C294.463 174.637 294.106 174.277 293.657 174.277H293.654Z" fill="white"/>
<path d="M312.947 174.277H296.658C296.209 174.277 295.849 174.637 295.849 175.084C295.849 175.531 296.209 175.89 296.658 175.89H312.947C313.396 175.89 313.756 175.531 313.756 175.084C313.756 174.637 313.396 174.277 312.947 174.277Z" fill="#004DA7"/>
<path d="M298.382 178.823H284.893C284.445 178.823 284.084 179.183 284.084 179.63C284.084 180.077 284.445 180.436 284.893 180.436H298.382C298.831 180.436 299.191 180.077 299.191 179.63C299.191 179.183 298.826 178.823 298.382 178.823Z" fill="#004DA7"/>
<path d="M312.947 178.823H301.386C300.938 178.823 300.577 179.183 300.577 179.63C300.577 180.077 300.938 180.436 301.386 180.436H312.947C313.396 180.436 313.756 180.077 313.756 179.63C313.756 179.183 313.396 178.823 312.947 178.823Z" fill="white"/>
<path d="M303.888 183.361H284.896C284.448 183.361 284.087 183.721 284.087 184.168C284.087 184.615 284.448 184.974 284.896 184.974H303.888C304.337 184.974 304.697 184.615 304.697 184.168C304.689 183.721 304.331 183.361 303.888 183.361Z" fill="#004DA7"/>
<path d="M193.715 144.27L195.947 142.623L197.926 144.558L208.766 138.394L209.279 138.63L197.56 149.194L193.715 144.27Z" fill="white"/>
<path d="M263.496 177.959L265.731 176.308L267.707 178.246L278.547 172.079L279.06 172.319L267.341 182.88L263.496 177.959Z" fill="white"/>
<path d="M88.8476 28.7561C87.606 43.3445 74.7339 54.1826 60.0995 52.9449C45.4651 51.7046 34.5928 38.8756 35.8344 24.2873C37.0759 9.69627 49.9481 -1.14186 64.5825 0.0957985C79.2408 1.31748 90.0891 14.1651 88.8476 28.7535V28.7561Z" fill="#2659D7"/>
<path d="M85.601 29.041C84.3594 43.6293 71.4873 54.4674 56.8529 53.2298C42.2186 51.9895 31.3462 39.1605 32.5878 24.5721C33.8294 9.98111 46.7015 -0.857012 61.3359 0.383304C75.9702 1.62362 86.8425 14.4526 85.601 29.041Z" fill="#97B5FF"/>
<path d="M81.6843 28.7031C80.6296 41.1515 69.6585 50.374 57.1708 49.3226C44.6832 48.2713 35.4316 37.3374 36.4862 24.8863C37.5409 12.4379 48.5093 3.21538 60.9996 4.26672C73.4873 5.31806 82.7549 16.2759 81.6843 28.7031Z" fill="#306BFF"/>
<path d="M51.4754 14.4634C54.5299 14.4634 56.8127 16.3212 56.8127 19.8798C56.8127 23.4384 54.5299 25.2962 51.4754 25.2962C48.4209 25.2962 46.106 23.4384 46.106 19.8798C46.106 16.3212 48.4209 14.4634 51.4754 14.4634ZM49.9001 19.8798C49.9001 21.3863 50.4794 22.0596 51.4433 22.0596C52.4072 22.0596 53.0186 21.3863 53.0186 19.8798C53.0186 18.3733 52.4072 17.668 51.4433 17.668C50.4794 17.668 49.9001 18.3414 49.9001 19.8798ZM62.6307 14.8147H67.936L55.5578 37.3773H50.2525L62.6307 14.8147ZM66.7452 26.8958C69.7997 26.8958 72.0826 28.7217 72.0826 32.3122C72.0826 35.9027 69.7997 37.7286 66.7452 37.7286C63.6907 37.7286 61.4078 35.8708 61.4078 32.3122C61.4078 28.7536 63.6907 26.8958 66.7452 26.8958ZM65.1699 32.3122C65.1699 33.8187 65.7493 34.4921 66.7132 34.4921C67.677 34.4921 68.2885 33.8187 68.2885 32.3122C68.2885 30.8057 67.677 30.1004 66.7132 30.1004C65.7493 30.1004 65.1699 30.8057 65.1699 32.3122Z" fill="#97B5FF"/>
<path d="M130.358 85.3553C136.689 94.6045 134.31 107.229 125.032 113.542C115.753 119.853 103.089 117.481 96.7562 108.232C90.4256 98.9828 92.8046 86.3588 102.083 80.0454C111.367 73.7134 124.025 76.1062 130.358 85.3553Z" fill="#2659D7"/>
<path d="M130.86 81.9564C137.191 91.2055 134.812 103.83 125.534 110.143C116.255 116.454 103.591 114.082 97.2581 104.833C90.9275 95.5838 93.3065 82.9598 102.585 76.6464C111.863 70.3357 124.527 72.7072 130.86 81.9564Z" fill="#97B5FF"/>
<path d="M128.372 83.6411C133.778 91.5302 131.741 102.28 123.827 107.67C115.913 113.06 105.129 111.029 99.7223 103.14C94.3155 95.2511 96.3528 84.5008 104.267 79.111C112.181 73.7213 122.986 75.7574 128.372 83.6411Z" fill="#306BFF"/>
<path d="M122.914 95.1473C122.666 96.526 121.849 97.8648 120.455 99.1557L122.009 101.431L119.536 103.108L118.031 100.91C116.955 101.541 115.868 102.036 114.744 102.376C113.641 102.722 112.629 102.893 111.748 102.898L111.032 98.9854C111.959 98.9694 112.952 98.7937 113.967 98.4823C114.997 98.1603 115.921 97.7238 116.738 97.1595C118.306 96.1028 118.816 95.1686 118.284 94.3887C118.004 93.9709 117.563 93.8245 116.989 93.9309C116.415 94.0374 115.555 94.3142 114.413 94.772C113.171 95.2697 112.095 95.6344 111.177 95.8739C110.272 96.1055 109.35 96.0975 108.432 95.8606C107.503 95.6317 106.71 95.0036 106.021 94.0161C105.217 92.8317 104.953 91.5435 105.225 90.1168C105.506 88.7035 106.368 87.3514 107.852 86.0632L106.307 83.7982L108.779 82.1213L110.293 84.3331C111.115 83.87 111.97 83.4921 112.824 83.2046C113.678 82.9172 114.512 82.7442 115.294 82.6909L116.108 86.5609C114.231 86.7632 112.648 87.2849 111.35 88.1659C110.541 88.7115 110.037 89.2332 109.831 89.7229C109.625 90.2127 109.655 90.6545 109.914 91.0298C110.17 91.4077 110.589 91.5488 111.163 91.4423C111.737 91.3359 112.578 91.0537 113.686 90.5986C114.941 90.0929 116.023 89.707 116.923 89.4967C117.828 89.2651 118.738 89.2784 119.659 89.4967C120.583 89.7123 121.387 90.3324 122.076 91.3199C122.914 92.5017 123.176 93.7553 122.914 95.142V95.1473Z" fill="#97B5FF"/>
<path d="M42.3653 127.917C40.1919 139.341 29.6907 147.643 18.9145 146.445C8.13834 145.244 1.15358 135.01 3.32697 123.587C5.50037 112.163 16.0015 103.862 26.7777 105.059C37.5726 106.246 44.5387 116.494 42.3653 127.917Z" fill="#2659D7"/>
<path d="M39.4337 125.429C37.2603 136.853 26.7591 145.154 15.9829 143.957C5.2067 142.756 -1.77806 132.522 0.395332 121.099C2.56873 109.675 13.0699 101.373 23.8461 102.571C34.6223 103.771 41.607 114.005 39.4337 125.429Z" fill="#97B5FF"/>
<path d="M36.5524 125.101C34.702 134.851 25.7548 141.915 16.5593 140.895C7.36373 139.876 1.42027 131.154 3.27059 121.407C5.12091 111.658 14.0681 104.594 23.2637 105.613C32.4592 106.632 38.4134 115.37 36.5524 125.101Z" fill="#306BFF"/>
<path d="M24.7352 130.491C23.5978 131.404 22.0972 131.912 20.2362 132L19.6969 134.808L16.8293 134.484L17.3446 131.766C16.1671 131.548 15.0751 131.215 14.0685 130.739C13.0726 130.281 12.2609 129.743 11.6548 129.166L13.9163 125.631C14.5598 126.232 15.3608 126.751 16.2766 127.177C17.2058 127.609 18.1456 127.877 19.0988 127.976C20.9117 128.183 21.9157 127.792 22.1026 126.831C22.204 126.32 22.0064 125.913 21.5392 125.618C21.0719 125.322 20.2896 124.968 19.1869 124.569C17.9881 124.138 16.9975 123.712 16.2018 123.291C15.4195 122.874 14.7947 122.259 14.3355 121.466C13.8629 120.67 13.7614 119.656 13.9857 118.426C14.2687 116.967 14.995 115.786 16.1831 114.849C17.3686 113.928 18.9066 113.443 20.8263 113.414L21.3603 110.622L24.2279 110.947L23.7099 113.678C24.5964 113.859 25.4454 114.13 26.2331 114.468C27.0207 114.806 27.7096 115.224 28.281 115.7L26.1183 119.267C24.6951 118.184 23.248 117.545 21.7394 117.377C20.8049 117.268 20.092 117.345 19.6061 117.59C19.1202 117.838 18.8318 118.202 18.7437 118.668C18.6556 119.134 18.8425 119.523 19.3071 119.818C19.7743 120.113 20.5459 120.449 21.6246 120.827C22.8395 121.261 23.8461 121.673 24.6097 122.104C25.392 122.522 26.0035 123.134 26.4814 123.914C26.9593 124.694 27.0741 125.711 26.8499 126.94C26.5909 128.42 25.8886 129.575 24.7379 130.486L24.7352 130.491Z" fill="#97B5FF"/>
</g>
<defs>
<clipPath id="clip0_1036_1332">
<rect width="340" height="378" fill="white"/>
</clipPath>
</defs>
</svg>
