<svg width="223" height="230" viewBox="0 0 223 230" fill="none" xmlns="http://www.w3.org/2000/svg">
<g clip-path="url(#clip0_1037_2363)">
<path d="M194.498 201.548C216.953 179.093 216.953 142.685 194.498 120.229C172.042 97.7734 135.634 97.7734 113.179 120.229C90.723 142.685 90.723 179.093 113.179 201.548C135.634 224.004 172.042 224.004 194.498 201.548Z" fill="#F9A140"/>
<path opacity="0.1" d="M153.458 98.2092C118.843 98.4184 90.9485 126.653 91.1604 161.268C91.3696 195.884 119.604 223.778 154.22 223.567C188.835 223.357 216.73 195.123 216.518 160.507C216.308 125.891 188.074 97.9974 153.458 98.2092ZM154.157 213.039C125.355 213.214 101.863 190.007 101.688 161.206C101.512 132.404 124.72 108.912 153.521 108.739C182.323 108.564 205.815 131.771 205.988 160.573C206.163 189.374 182.956 212.867 154.154 213.039H154.157Z" fill="#272525"/>
<path d="M153.419 91.7801C115.251 92.0129 84.4987 123.14 84.7288 161.307C84.9616 199.475 116.088 230.228 154.256 229.998C192.424 229.765 223.177 198.638 222.946 160.47C222.714 122.303 191.587 91.5499 153.419 91.7801ZM154.188 218.39C122.431 218.584 96.5299 192.997 96.3389 161.239C96.1454 129.482 121.733 103.584 153.49 103.39C185.247 103.197 211.148 128.784 211.339 160.541C211.533 192.298 185.945 218.197 154.188 218.39Z" fill="#F4D242"/>
<path d="M135.067 178.323C133.615 175.904 133.33 171.879 137.549 171.372C141.061 170.95 144.66 173.618 147.851 175.135C150.472 176.383 153.365 177.005 156.529 177.005C159.916 177.005 162.634 176.181 164.679 174.531C166.724 172.883 167.747 170.715 167.747 168.029C167.747 165.343 166.923 163.368 165.278 162.217C163.63 161.067 160.811 160.491 156.817 160.491H154.181C147.66 160.491 142.691 159.131 139.27 156.406C135.849 153.683 134.141 149.731 134.141 144.552C134.141 139.374 135.809 135.558 139.149 132.757C142.489 129.958 147.179 128.556 153.221 128.556C155.682 128.556 158.19 128.969 160.748 129.793C166.065 131.509 174.477 135.686 173.004 141.095C170.676 149.629 161.577 138.39 158.303 136.983C156.385 136.159 154.133 135.746 151.544 135.746C148.539 135.746 146.12 136.544 144.281 138.134C142.442 139.727 141.524 141.751 141.524 144.205C141.524 146.658 142.466 148.347 144.352 149.383C146.237 150.419 150.297 151.015 156.529 151.167C163.178 151.361 168.035 152.749 171.103 155.339C174.171 157.928 175.706 161.927 175.706 167.336C175.706 172.745 174.011 176.657 170.624 179.765C167.237 182.872 162.665 184.425 156.914 184.425C155.093 184.425 153.064 184.224 150.827 183.821C146.18 182.984 139.196 183.026 135.833 179.346C135.535 179.022 135.284 178.677 135.069 178.321L135.067 178.323Z" fill="#F4D242"/>
<path d="M155.028 198.073H154.955C152.97 198.073 151.358 196.211 151.358 193.914V123.022C151.358 120.726 152.967 118.863 154.955 118.863H155.028C157.013 118.863 158.624 120.726 158.624 123.022V193.914C158.624 196.211 157.016 198.073 155.028 198.073Z" fill="#F4D242"/>
<path opacity="0.08" d="M121.19 121.604C148.179 94.6143 148.179 50.8554 121.189 23.8657C94.1998 -3.12397 50.4409 -3.12398 23.4512 23.8657C-3.5385 50.8554 -3.5385 94.6143 23.4512 121.604C50.4409 148.594 94.1998 148.594 121.19 121.604Z" fill="#272525"/>
<path d="M110.491 109.771C132.947 87.3152 132.947 50.9074 110.491 28.4518C88.0357 5.9961 51.6279 5.9961 29.1723 28.4518C6.7166 50.9074 6.7166 87.3152 29.1723 109.771C51.6279 132.227 88.0357 132.227 110.491 109.771Z" fill="#F9A140"/>
<path opacity="0.1" d="M69.4497 6.43186C34.8338 6.6411 6.93974 34.8752 7.15159 69.4911C7.36083 104.107 35.5949 132.001 70.2108 131.789C104.827 131.58 132.721 103.346 132.509 68.73C132.3 34.1141 104.066 6.22001 69.4497 6.43186ZM70.148 121.262C41.3464 121.437 17.8541 98.23 17.6815 69.4283C17.5063 40.6266 40.7134 17.1344 69.5151 16.9592C98.3167 16.7839 121.809 39.9911 121.982 68.7927C122.157 97.5944 98.9497 121.087 70.148 121.259V121.262Z" fill="#272525"/>
<path d="M69.4104 -0.000181285C31.2427 0.232596 0.489871 31.362 0.720034 69.5297C0.952811 107.697 32.0796 138.45 70.2473 138.22C108.415 137.987 139.168 106.86 138.938 68.6928C138.707 30.5225 107.578 -0.230343 69.4104 -0.000181285ZM70.1793 126.61C38.4222 126.803 12.5211 101.216 12.3301 69.4591C12.1366 37.702 37.7238 11.8009 69.481 11.6099C101.238 11.4164 127.139 37.0036 127.33 68.7608C127.524 100.518 101.936 126.419 70.1793 126.61Z" fill="#F4D242"/>
<path d="M92.8166 72.4542C91.1139 70.2128 88.5193 68.4735 85.0355 67.239C87.1854 66.0045 88.7992 64.4326 89.8846 62.5259C90.9674 60.6218 91.501 58.396 91.4853 55.8538C91.4539 50.8007 89.644 46.9559 86.0556 44.3248C82.4671 41.691 77.2623 40.3937 70.4385 40.4356L67.9774 40.4512C67.9643 38.1627 67.9486 35.8742 67.9355 33.583C67.9224 31.4775 64.1143 31.5011 64.1274 33.6065C64.1405 35.8951 64.1561 38.1836 64.1692 40.4748L61.695 40.4905C61.6819 38.2019 61.6662 35.9134 61.6531 33.6222C61.6401 31.5168 57.8319 31.5403 57.845 33.6458C57.8581 35.9343 57.8738 38.2229 57.8868 40.514L47.8931 40.5742C46.7972 40.582 45.9629 40.8854 45.3875 41.4844C44.8121 42.0833 44.527 42.9464 44.5348 44.0737C44.5427 45.3945 44.9036 46.3021 45.615 46.7964C46.3264 47.2907 47.9219 47.5313 50.3987 47.5157L51.9916 47.5052L52.2557 91.0058L50.6629 91.0163C47.9899 91.032 46.3029 91.2752 45.5967 91.746C44.8905 92.2168 44.5427 93.0982 44.5505 94.385C44.5584 95.5437 44.8434 96.4094 45.411 96.9874C45.9786 97.5628 46.8234 97.8479 47.9506 97.8401L58.2347 97.7773C58.2478 100.066 58.2635 102.354 58.2766 104.646C58.2896 106.751 62.0978 106.727 62.0847 104.622C62.0716 102.333 62.0559 100.045 62.0428 97.7538L64.5171 97.7381C64.5302 100.027 64.5459 102.315 64.5589 104.606C64.572 106.712 68.3802 106.688 68.3671 104.583C68.354 102.294 68.3383 100.006 68.3252 97.7145L69.578 97.7067L73.7314 97.6805C77.2702 97.6596 80.006 97.4425 81.9336 97.0267C83.8638 96.6134 85.6135 95.9491 87.1828 95.0389C89.814 93.4775 91.8436 91.4871 93.2795 89.0625C94.7154 86.6406 95.4216 83.965 95.4033 81.0356C95.3824 77.5597 94.5192 74.7009 92.8166 72.4569V72.4542ZM71.5423 47.3797C75.2746 47.3561 78.1437 48.1041 80.1498 49.6211C82.1533 51.1381 83.1655 53.3299 83.1838 56.1938C83.2021 59.2199 82.114 61.464 79.917 62.9234C77.72 64.3855 74.3382 65.1309 69.769 65.1571L68.1291 65.1675C68.0924 59.2461 68.0558 53.322 68.0218 47.4006L71.5449 47.3797H71.5423ZM64.2111 47.4241C64.2477 53.3456 64.2817 59.2696 64.3183 65.1911L61.8441 65.2068C61.8074 59.2853 61.7708 53.3613 61.7368 47.4398L64.2111 47.4241ZM62.001 90.9405C61.9618 84.3416 61.9199 77.7454 61.8807 71.1465L64.3549 71.1308C64.3942 77.7297 64.436 84.3259 64.4752 90.9248L62.001 90.9405ZM83.3328 88.5159C80.8638 90.0616 76.6032 90.8515 70.5536 90.8881L68.286 90.9012C68.2468 84.3024 68.2049 77.7061 68.1657 71.1073L70.9172 71.0916C76.8726 71.055 81.0365 71.7873 83.4113 73.286C85.7862 74.7846 86.984 77.319 87.005 80.8918C87.0259 84.4331 85.8018 86.9754 83.3328 88.5185V88.5159Z" fill="#F4D242"/>
<path d="M75.1195 209.364L60.5905 193.394C60.1276 192.886 59.2854 193.24 59.322 193.925L59.8085 202.972C47.1182 199.334 36.2927 191.537 29.074 180.753C21.3923 169.277 18.6879 155.749 21.429 142.586C21.51 142.193 21.2668 141.809 20.8745 141.72L16.6819 140.784C16.2869 140.695 15.892 140.946 15.8083 141.343C12.7246 156.055 15.7246 171.157 24.2903 183.952C32.3407 195.978 44.4269 204.638 58.5792 208.606L53.9681 217.979C53.67 218.586 54.2846 219.237 54.9071 218.973L74.8632 210.525C75.3261 210.329 75.4569 209.735 75.1195 209.361V209.364Z" fill="#6DB294"/>
<path d="M199.067 54.6822C190.06 43.3571 177.304 35.7173 162.872 32.924L166.716 23.1578C166.957 22.5458 166.308 21.9599 165.725 22.2659L146.465 32.3538C146.031 32.5814 145.952 33.1698 146.31 33.5046L162.155 48.2847C162.644 48.7424 163.437 48.3318 163.345 47.6674L162.113 38.6388C175.06 41.2255 186.487 48.1068 194.566 58.2654C203.166 69.0804 206.969 82.3461 205.31 95.6955C205.263 96.0826 205.53 96.4383 205.917 96.4932L210.207 97.0869C210.599 97.1418 210.962 96.8672 211.012 96.4749C212.885 81.5536 208.658 66.7395 199.07 54.6848L199.067 54.6822Z" fill="#679BC6"/>
</g>
<defs>
<clipPath id="clip0_1037_2363">
<rect width="222.229" height="230" fill="white" transform="translate(0.720215)"/>
</clipPath>
</defs>
</svg>
