<svg width="176" height="56" viewBox="0 0 176 56" fill="none" xmlns="http://www.w3.org/2000/svg">
<path d="M19.8974 6.47607C18.2785 6.47607 16.686 6.8211 15.1733 7.43153C13.687 8.06849 12.3334 8.97086 11.1922 10.1386C10.051 11.3064 9.14861 12.66 8.53818 14.1728C7.92776 15.6856 7.60927 17.3045 7.63581 18.9235V23.0372H17.5884V17.0656C17.5884 16.7737 17.6415 16.5083 17.7477 16.2429C17.8538 15.9775 18.0131 15.7386 18.1988 15.5529C18.3846 15.3671 18.6235 15.2078 18.8889 15.1017C19.1543 14.9955 19.4197 14.9424 19.7116 14.9424H20.0832C20.3486 14.9424 20.6405 14.9955 20.906 15.1017C21.1714 15.2078 21.4102 15.3671 21.596 15.5529C21.7818 15.7386 21.941 15.9775 22.0472 16.2429C22.1533 16.5083 22.2064 16.7737 22.2064 17.0656V33.0429C23.5069 33.0429 24.8074 32.7775 26.0282 32.2732C27.2491 31.769 28.3372 31.0258 29.2661 30.0969C30.195 29.168 30.9382 28.0533 31.4159 26.859C31.9202 25.6382 32.1856 24.3377 32.1856 23.0372V18.9235C32.1856 15.6325 30.9116 12.4476 28.6026 10.1121C27.4614 8.94432 26.1078 8.04195 24.6216 7.40498C23.1088 6.79456 21.5164 6.47607 19.8974 6.47607Z" fill="#A5A5A5"/>
<path d="M20.0834 41.1378H19.7118C19.4464 41.1378 19.1545 41.0847 18.8891 40.9786C18.6237 40.8724 18.4113 40.7132 18.199 40.5274C18.0132 40.3416 17.854 40.1027 17.7478 39.8373C17.6417 39.5719 17.5886 39.3065 17.5886 39.0146V23.0373C16.2881 23.0373 14.9876 23.3027 13.7668 23.807C12.5459 24.3113 11.4578 25.0544 10.5289 25.9833C9.59996 26.9122 8.85684 28.0269 8.37911 29.2212C7.87485 30.4421 7.60944 31.7426 7.60944 33.043V37.1037C7.5829 38.7226 7.90139 40.3416 8.51181 41.8544C9.12224 43.3672 10.0246 44.7473 11.1658 45.8885C12.3071 47.0563 13.6606 47.9587 15.1469 48.5956C16.6331 49.2326 18.2521 49.5511 19.8711 49.5511C21.49 49.5511 23.109 49.2326 24.5952 48.5956C26.0815 47.9587 27.4616 47.0563 28.5763 45.8885C29.7175 44.7207 30.6199 43.3672 31.2303 41.8544C31.8407 40.3416 32.1327 38.7226 32.1327 37.1037V33.043H22.1801V39.0146C22.1801 39.3065 22.127 39.5719 22.0208 39.8373C21.9147 40.1027 21.7554 40.3416 21.5696 40.5274C21.3838 40.7132 21.145 40.8724 20.8796 40.9786C20.6407 41.0847 20.3753 41.1378 20.0834 41.1378ZM49.1981 19.1094H45.6947V36.9179H55.9393V33.5473H49.1715C49.1981 33.5738 49.1981 19.1094 49.1981 19.1094ZM67.1393 25.7179C66.635 25.1075 66.0246 24.6032 65.308 24.2847C64.5914 23.9662 63.7952 23.807 63.0255 23.8601C62.2028 23.8601 61.4066 24.0193 60.6369 24.3643C59.8938 24.7094 59.2303 25.1871 58.6729 25.8241C57.5052 27.1245 56.8682 28.8231 56.8682 30.6013C56.8682 32.353 57.5052 34.0516 58.6729 35.3786C59.2037 35.989 59.8938 36.4933 60.6369 36.8383C61.38 37.1833 62.2028 37.3426 63.0255 37.3426C64.8037 37.3426 66.1838 36.7321 67.1393 35.4847V36.9975H70.4037V24.2847H67.1393V25.7179ZM66.1573 33.1757C65.8388 33.4942 65.4407 33.7596 64.9895 33.9454C64.5649 34.1312 64.0872 34.2108 63.636 34.1843C63.1848 34.2108 62.7071 34.1046 62.2824 33.9454C61.8578 33.7596 61.4597 33.5208 61.1412 33.1757C60.5042 32.4591 60.1592 31.5568 60.1592 30.6013C60.1592 29.6459 60.5042 28.717 61.1412 28.0269C61.4597 27.7084 61.8578 27.443 62.2824 27.2572C62.7071 27.0715 63.1848 26.9918 63.636 27.0184C64.1137 26.9918 64.5649 27.098 64.9895 27.2572C65.4142 27.443 65.8123 27.6819 66.1573 28.0269C66.7943 28.7435 67.1658 29.6459 67.1658 30.6013C67.1393 31.5302 66.7943 32.4591 66.1573 33.1757ZM78.817 32.7511L75.526 24.2051H71.9431L77.1184 36.5198C76.9061 37.2629 76.4815 37.8999 75.8976 38.4042C75.2871 38.8288 74.544 39.0146 73.8009 38.9615V42.0136C75.2341 42.1463 76.6938 41.7482 77.8616 40.899C78.9497 40.0762 79.8255 38.7492 80.4891 36.9445L85.1071 24.2051H81.6037L78.817 32.7511ZM92.1933 23.8601C91.2909 23.8335 90.4151 23.9928 89.5924 24.3113C88.7696 24.6298 88.0265 25.134 87.3895 25.771C86.1687 27.0715 85.5052 28.7966 85.5052 30.5748C85.5052 32.353 86.1952 34.0781 87.4161 35.3786C88.69 36.6525 90.362 37.2895 92.4587 37.2895C94.9004 37.2895 96.7317 36.3871 97.9791 34.5558L95.3516 33.0165C95.0066 33.4411 94.5819 33.7862 94.0777 33.9985C93.5734 34.2108 93.0426 34.317 92.5118 34.2904C90.5743 34.2904 89.38 33.4942 88.9554 31.9018H98.5099C98.5895 31.4506 98.6426 30.9994 98.6426 30.5482C98.6957 28.77 98.0322 27.0449 96.8379 25.771C96.254 25.134 95.5374 24.6298 94.7412 24.3113C93.8919 23.9928 93.0426 23.8335 92.1933 23.8601ZM88.8758 29.3805C89.0085 28.6373 89.4331 27.9738 90.017 27.4961C90.654 27.0184 91.4236 26.7795 92.1933 26.8326C92.9099 26.8326 93.5999 27.0449 94.1838 27.4696C94.7943 27.9473 95.2189 28.6373 95.3251 29.407C95.3251 29.3805 88.8758 29.3805 88.8758 29.3805ZM104.136 26.408V24.2316H100.872V36.9445H104.136V30.8667C104.136 29.6459 104.535 28.77 105.304 28.2392C106.1 27.7084 107.029 27.4961 107.985 27.6288V23.9662C107.162 23.9662 106.366 24.1786 105.649 24.5767C104.933 24.9748 104.402 25.6383 104.136 26.408ZM123.882 21.8696V19.1094H112.284V22.48H119.477L112.099 34.1312V36.9445H124.042V33.5738H116.531C116.504 33.5738 123.882 21.8696 123.882 21.8696ZM131.738 23.8601C130.836 23.8335 129.96 23.9928 129.137 24.3113C128.315 24.6298 127.572 25.134 126.935 25.771C125.714 27.0715 125.05 28.7966 125.05 30.5748C125.05 32.353 125.74 34.0781 126.961 35.3786C128.235 36.6525 129.907 37.2895 132.004 37.2895C134.445 37.2895 136.277 36.3871 137.524 34.5558L134.897 33.0165C134.552 33.4411 134.127 33.7862 133.623 33.9985C133.118 34.2108 132.588 34.317 132.057 34.2904C130.119 34.2904 128.925 33.4942 128.5 31.9018H138.055C138.135 31.4506 138.188 30.9994 138.188 30.5482C138.241 28.77 137.577 27.0449 136.383 25.771C135.799 25.134 135.082 24.6298 134.286 24.3113C133.463 23.9928 132.588 23.8335 131.738 23.8601ZM128.421 29.3805C128.553 28.6373 128.978 27.9738 129.562 27.4961C130.199 27.0184 130.969 26.7795 131.738 26.8326C132.455 26.8326 133.145 27.0449 133.729 27.4696C134.339 27.9473 134.764 28.6373 134.87 29.407L128.421 29.3805ZM143.681 26.408V24.2316H140.417V36.9445H143.681V30.8667C143.681 29.6459 144.08 28.77 144.849 28.2392C145.645 27.7084 146.574 27.4961 147.53 27.6288V23.9662C146.707 23.9662 145.911 24.1786 145.194 24.5767C144.478 24.9748 143.947 25.6383 143.681 26.408ZM154.988 23.8601C153.448 23.8866 151.989 24.4174 150.794 25.426C149.626 26.408 148.83 27.788 148.538 29.3008C148.246 30.8136 148.485 32.3795 149.228 33.7331C149.971 35.0866 151.139 36.1482 152.546 36.7321C153.953 37.316 155.545 37.3691 157.005 36.9179C158.464 36.4667 159.738 35.5113 160.588 34.2373C161.437 32.9634 161.808 31.4241 161.649 29.8847C161.49 28.3454 160.826 26.9122 159.738 25.8241C159.128 25.1871 158.385 24.6828 157.562 24.3643C156.739 23.9928 155.863 23.8335 154.988 23.8601ZM157.429 33.0961C157.111 33.4146 156.739 33.68 156.315 33.8392C155.89 33.9985 155.439 34.1046 154.988 34.0781C154.536 34.0781 154.085 33.9985 153.661 33.8392C153.236 33.68 152.864 33.4146 152.546 33.0961C151.909 32.4061 151.564 31.5037 151.564 30.5748C151.564 29.6459 151.909 28.7435 152.546 28.0535C152.864 27.735 153.236 27.4696 153.661 27.3103C154.085 27.1511 154.536 27.0449 154.988 27.0715C155.439 27.0715 155.89 27.1511 156.315 27.3103C156.739 27.4696 157.111 27.735 157.429 28.0535C158.066 28.7435 158.411 29.6459 158.411 30.5748C158.411 31.5037 158.066 32.4061 157.429 33.0961ZM168.523 33.0165H164.542V36.9445H168.523V33.0165Z" fill="#A5A5A5"/>
</svg>
